# Tiled2Unity generated file. Do not modify by hand.
# Wavefront file for 'field_mesh_0002.obj'

# Vertices (Count = 376)
v -288 -16 0
v -304 -16 0
v -304 0 0
v -288 0 0
v -240 -80 0
v -256 -80 0
v -256 -64 0
v -240 -64 0
v -128 -80 0
v -144 -80 0
v -144 -64 0
v -128 -64 0
v -608 -96 0
v -624 -96 0
v -624 -80 0
v -608 -80 0
v -288 -96 0
v -304 -96 0
v -304 -80 0
v -288 -80 0
v -64 -96 0
v -80 -96 0
v -80 -80 0
v -64 -80 0
v -48 -96 0
v -64 -96 0
v -64 -80 0
v -48 -80 0
v -960 -128 0
v -976 -128 0
v -976 -112 0
v -960 -112 0
v -880 -144 0
v -896 -144 0
v -896 -128 0
v -880 -128 0
v -832 -176 0
v -848 -176 0
v -848 -160 0
v -832 -160 0
v -736 -176 0
v -752 -176 0
v -752 -160 0
v -736 -160 0
v -608 -176 0
v -624 -176 0
v -624 -160 0
v -608 -160 0
v -48 -176 0
v -64 -176 0
v -64 -160 0
v -48 -160 0
v -736 -192 0
v -752 -192 0
v -752 -176 0
v -736 -176 0
v -256 -192 0
v -272 -192 0
v -272 -176 0
v -256 -176 0
v -224 -192 0
v -240 -192 0
v -240 -176 0
v -224 -176 0
v -32 -192 0
v -48 -192 0
v -48 -176 0
v -32 -176 0
v -912 -208 0
v -928 -208 0
v -928 -192 0
v -912 -192 0
v -144 -208 0
v -160 -208 0
v -160 -192 0
v -144 -192 0
v -128 -208 0
v -144 -208 0
v -144 -192 0
v -128 -192 0
v -224 -240 0
v -240 -240 0
v -240 -224 0
v -224 -224 0
v -144 -240 0
v -160 -240 0
v -160 -224 0
v -144 -224 0
v -688 -256 0
v -704 -256 0
v -704 -240 0
v -688 -240 0
v -160 -256 0
v -176 -256 0
v -176 -240 0
v -160 -240 0
v -688 -272 0
v -704 -272 0
v -704 -256 0
v -688 -256 0
v -544 -272 0
v -560 -272 0
v -560 -256 0
v -544 -256 0
v -48 -288 0
v -64 -288 0
v -64 -272 0
v -48 -272 0
v -448 -304 0
v -464 -304 0
v -464 -288 0
v -448 -288 0
v -896 -320 0
v -912 -320 0
v -912 -304 0
v -896 -304 0
v -704 -336 0
v -720 -336 0
v -720 -320 0
v -704 -320 0
v -736 -368 0
v -752 -368 0
v -752 -352 0
v -736 -352 0
v -48 -368 0
v -64 -368 0
v -64 -352 0
v -48 -352 0
v -752 -416 0
v -768 -416 0
v -768 -400 0
v -752 -400 0
v -720 -432 0
v -736 -432 0
v -736 -416 0
v -720 -416 0
v -1136 -448 0
v -1152 -448 0
v -1152 -432 0
v -1136 -432 0
v -1120 -480 0
v -1136 -480 0
v -1136 -464 0
v -1120 -464 0
v -848 -480 0
v -864 -480 0
v -864 -464 0
v -848 -464 0
v -432 -528 0
v -448 -528 0
v -448 -512 0
v -432 -512 0
v -688 -544 0
v -704 -544 0
v -704 -528 0
v -688 -528 0
v -464 -560 0
v -480 -560 0
v -480 -544 0
v -464 -544 0
v -1120 -576 0
v -1136 -576 0
v -1136 -560 0
v -1120 -560 0
v -736 -576 0
v -752 -576 0
v -752 -560 0
v -736 -560 0
v -720 -576 0
v -736 -576 0
v -736 -560 0
v -720 -560 0
v -736 -608 0
v -752 -608 0
v -752 -592 0
v -736 -592 0
v -608 -608 0
v -624 -608 0
v -624 -592 0
v -608 -592 0
v -240 -672 0
v -256 -672 0
v -256 -656 0
v -240 -656 0
v -80 -688 0
v -96 -688 0
v -96 -672 0
v -80 -672 0
v -64 -704 0
v -80 -704 0
v -80 -688 0
v -64 -688 0
v -1120 -736 0
v -1136 -736 0
v -1136 -720 0
v -1120 -720 0
v -96 -736 0
v -112 -736 0
v -112 -720 0
v -96 -720 0
v -1088 -752 0
v -1104 -752 0
v -1104 -736 0
v -1088 -736 0
v -64 -752 0
v -80 -752 0
v -80 -736 0
v -64 -736 0
v -1056 -784 0
v -1072 -784 0
v -1072 -768 0
v -1056 -768 0
v -640 -784 0
v -656 -784 0
v -656 -768 0
v -640 -768 0
v -928 -800 0
v -944 -800 0
v -944 -784 0
v -928 -784 0
v -560 -800 0
v -576 -800 0
v -576 -784 0
v -560 -784 0
v -544 -800 0
v -560 -800 0
v -560 -784 0
v -544 -784 0
v -64 -800 0
v -80 -800 0
v -80 -784 0
v -64 -784 0
v -672 -832 0
v -688 -832 0
v -688 -816 0
v -672 -816 0
v -656 -832 0
v -672 -832 0
v -672 -816 0
v -656 -816 0
v -512 -832 0
v -528 -832 0
v -528 -816 0
v -512 -816 0
v -64 -832 0
v -80 -832 0
v -80 -816 0
v -64 -816 0
v -64 -848 0
v -80 -848 0
v -80 -832 0
v -64 -832 0
v -816 -864 0
v -832 -864 0
v -832 -848 0
v -816 -848 0
v -656 -864 0
v -672 -864 0
v -672 -848 0
v -656 -848 0
v -976 -880 0
v -992 -880 0
v -992 -864 0
v -976 -864 0
v -560 -880 0
v -576 -880 0
v -576 -864 0
v -560 -864 0
v -960 -912 0
v -976 -912 0
v -976 -896 0
v -960 -896 0
v -128 -912 0
v -144 -912 0
v -144 -896 0
v -128 -896 0
v -304 -928 0
v -320 -928 0
v -320 -912 0
v -304 -912 0
v -160 -928 0
v -176 -928 0
v -176 -912 0
v -160 -912 0
v -80 -928 0
v -96 -928 0
v -96 -912 0
v -80 -912 0
v -64 -928 0
v -80 -928 0
v -80 -912 0
v -64 -912 0
v -256 -944 0
v -272 -944 0
v -272 -928 0
v -256 -928 0
v -192 -944 0
v -208 -944 0
v -208 -928 0
v -192 -928 0
v -1088 -976 0
v -1104 -976 0
v -1104 -960 0
v -1088 -960 0
v -1136 -992 0
v -1152 -992 0
v -1152 -976 0
v -1136 -976 0
v -672 -992 0
v -688 -992 0
v -688 -976 0
v -672 -976 0
v -896 -1024 0
v -912 -1024 0
v -912 -1008 0
v -896 -1008 0
v -336 -1024 0
v -352 -1024 0
v -352 -1008 0
v -336 -1008 0
v -112 -1040 0
v -128 -1040 0
v -128 -1024 0
v -112 -1024 0
v -1152 -1056 0
v -1168 -1056 0
v -1168 -1040 0
v -1152 -1040 0
v -544 -1056 0
v -560 -1056 0
v -560 -1040 0
v -544 -1040 0
v -144 -1056 0
v -160 -1056 0
v -160 -1040 0
v -144 -1040 0
v -224 -1072 0
v -240 -1072 0
v -240 -1056 0
v -224 -1056 0
v -96 -1072 0
v -112 -1072 0
v -112 -1056 0
v -96 -1056 0
v -672 -1088 0
v -688 -1088 0
v -688 -1072 0
v -672 -1072 0
v -224 -1088 0
v -240 -1088 0
v -240 -1072 0
v -224 -1072 0
v -544 -1104 0
v -560 -1104 0
v -560 -1088 0
v -544 -1088 0
v -1136 -1120 0
v -1152 -1120 0
v -1152 -1104 0
v -1136 -1104 0
v -896 -1120 0
v -912 -1120 0
v -912 -1104 0
v -896 -1104 0
v -1024 -1136 0
v -1040 -1136 0
v -1040 -1120 0
v -1024 -1120 0
v -880 -1136 0
v -896 -1136 0
v -896 -1120 0
v -880 -1120 0
v -544 -1168 0
v -560 -1168 0
v -560 -1152 0
v -544 -1152 0

# Texture cooridinates (Count = 8)
vt 0 0.2540323
vt 0.125 0.2540323
vt 0.125 0.2580645
vt 0 0.2580645
vt 0.25 0.2540323
vt 0.25 0.2580645
vt 0 0.25
vt 0.125 0.25

# Normal
vn 0 0 -1

# Mesh description
g field_mesh_0002

# Faces
f 1/1/1 2/2/1 3/3/1 4/4/1
f 5/1/1 6/2/1 7/3/1 8/4/1
f 9/2/1 10/5/1 11/6/1 12/3/1
f 13/7/1 14/8/1 15/2/1 16/1/1
f 17/2/1 18/5/1 19/6/1 20/3/1
f 21/2/1 22/5/1 23/6/1 24/3/1
f 25/2/1 26/5/1 27/6/1 28/3/1
f 29/1/1 30/2/1 31/3/1 32/4/1
f 33/1/1 34/2/1 35/3/1 36/4/1
f 37/1/1 38/2/1 39/3/1 40/4/1
f 41/7/1 42/8/1 43/2/1 44/1/1
f 45/1/1 46/2/1 47/3/1 48/4/1
f 49/2/1 50/5/1 51/6/1 52/3/1
f 53/7/1 54/8/1 55/2/1 56/1/1
f 57/2/1 58/5/1 59/6/1 60/3/1
f 61/1/1 62/2/1 63/3/1 64/4/1
f 65/1/1 66/2/1 67/3/1 68/4/1
f 69/2/1 70/5/1 71/6/1 72/3/1
f 73/7/1 74/8/1 75/2/1 76/1/1
f 77/1/1 78/2/1 79/3/1 80/4/1
f 81/2/1 82/5/1 83/6/1 84/3/1
f 85/1/1 86/2/1 87/3/1 88/4/1
f 89/2/1 90/5/1 91/6/1 92/3/1
f 93/2/1 94/5/1 95/6/1 96/3/1
f 97/1/1 98/2/1 99/3/1 100/4/1
f 101/7/1 102/8/1 103/2/1 104/1/1
f 105/2/1 106/5/1 107/6/1 108/3/1
f 109/7/1 110/8/1 111/2/1 112/1/1
f 113/1/1 114/2/1 115/3/1 116/4/1
f 117/2/1 118/5/1 119/6/1 120/3/1
f 121/2/1 122/5/1 123/6/1 124/3/1
f 125/1/1 126/2/1 127/3/1 128/4/1
f 129/7/1 130/8/1 131/2/1 132/1/1
f 133/1/1 134/2/1 135/3/1 136/4/1
f 137/1/1 138/2/1 139/3/1 140/4/1
f 141/1/1 142/2/1 143/3/1 144/4/1
f 145/1/1 146/2/1 147/3/1 148/4/1
f 149/1/1 150/2/1 151/3/1 152/4/1
f 153/7/1 154/8/1 155/2/1 156/1/1
f 157/1/1 158/2/1 159/3/1 160/4/1
f 161/2/1 162/5/1 163/6/1 164/3/1
f 165/1/1 166/2/1 167/3/1 168/4/1
f 169/1/1 170/2/1 171/3/1 172/4/1
f 173/1/1 174/2/1 175/3/1 176/4/1
f 177/2/1 178/5/1 179/6/1 180/3/1
f 181/7/1 182/8/1 183/2/1 184/1/1
f 185/2/1 186/5/1 187/6/1 188/3/1
f 189/2/1 190/5/1 191/6/1 192/3/1
f 193/2/1 194/5/1 195/6/1 196/3/1
f 197/1/1 198/2/1 199/3/1 200/4/1
f 201/7/1 202/8/1 203/2/1 204/1/1
f 205/7/1 206/8/1 207/2/1 208/1/1
f 209/1/1 210/2/1 211/3/1 212/4/1
f 213/1/1 214/2/1 215/3/1 216/4/1
f 217/1/1 218/2/1 219/3/1 220/4/1
f 221/2/1 222/5/1 223/6/1 224/3/1
f 225/1/1 226/2/1 227/3/1 228/4/1
f 229/1/1 230/2/1 231/3/1 232/4/1
f 233/2/1 234/5/1 235/6/1 236/3/1
f 237/1/1 238/2/1 239/3/1 240/4/1
f 241/1/1 242/2/1 243/3/1 244/4/1
f 245/1/1 246/2/1 247/3/1 248/4/1
f 249/2/1 250/5/1 251/6/1 252/3/1
f 253/1/1 254/2/1 255/3/1 256/4/1
f 257/2/1 258/5/1 259/6/1 260/3/1
f 261/2/1 262/5/1 263/6/1 264/3/1
f 265/1/1 266/2/1 267/3/1 268/4/1
f 269/7/1 270/8/1 271/2/1 272/1/1
f 273/1/1 274/2/1 275/3/1 276/4/1
f 277/2/1 278/5/1 279/6/1 280/3/1
f 281/2/1 282/5/1 283/6/1 284/3/1
f 285/2/1 286/5/1 287/6/1 288/3/1
f 289/1/1 290/2/1 291/3/1 292/4/1
f 293/2/1 294/5/1 295/6/1 296/3/1
f 297/1/1 298/2/1 299/3/1 300/4/1
f 301/1/1 302/2/1 303/3/1 304/4/1
f 305/2/1 306/5/1 307/6/1 308/3/1
f 309/7/1 310/8/1 311/2/1 312/1/1
f 313/2/1 314/5/1 315/6/1 316/3/1
f 317/1/1 318/2/1 319/3/1 320/4/1
f 321/1/1 322/2/1 323/3/1 324/4/1
f 325/2/1 326/5/1 327/6/1 328/3/1
f 329/1/1 330/2/1 331/3/1 332/4/1
f 333/1/1 334/2/1 335/3/1 336/4/1
f 337/1/1 338/2/1 339/3/1 340/4/1
f 341/2/1 342/5/1 343/6/1 344/3/1
f 345/1/1 346/2/1 347/3/1 348/4/1
f 349/1/1 350/2/1 351/3/1 352/4/1
f 353/1/1 354/2/1 355/3/1 356/4/1
f 357/1/1 358/2/1 359/3/1 360/4/1
f 361/1/1 362/2/1 363/3/1 364/4/1
f 365/7/1 366/8/1 367/2/1 368/1/1
f 369/7/1 370/8/1 371/2/1 372/1/1
f 373/2/1 374/5/1 375/6/1 376/3/1

