# Tiled2Unity generated file. Do not modify by hand.
# Wavefront file for 'field_mesh_0012.obj'

# Vertices (Count = 32)
v -1184 -832 0
v -1200 -832 0
v -1200 -816 0
v -1184 -816 0
v -1168 -832 0
v -1184 -832 0
v -1184 -816 0
v -1168 -816 0
v -1184 -848 0
v -1200 -848 0
v -1200 -832 0
v -1184 -832 0
v -1168 -848 0
v -1184 -848 0
v -1184 -832 0
v -1168 -832 0
v -1184 -864 0
v -1200 -864 0
v -1200 -848 0
v -1184 -848 0
v -1168 -864 0
v -1184 -864 0
v -1184 -848 0
v -1168 -848 0
v -1184 -880 0
v -1200 -880 0
v -1200 -864 0
v -1184 -864 0
v -1168 -880 0
v -1184 -880 0
v -1184 -864 0
v -1168 -864 0

# Texture cooridinates (Count = 20)
vt 0.5 0.8024194
vt 0.625 0.8024194
vt 0.625 0.8064516
vt 0.5 0.8064516
vt 0 0.8024194
vt 0.125 0.8024194
vt 0.125 0.8064516
vt 0 0.8064516
vt 0.5 0.7983871
vt 0.625 0.7983871
vt 0 0.7983871
vt 0.125 0.7983871
vt 0.5 0.7943549
vt 0.625 0.7943549
vt 0 0.7943549
vt 0.125 0.7943549
vt 0.5 0.7903226
vt 0.625 0.7903226
vt 0 0.7903226
vt 0.125 0.7903226

# Normal
vn 0 0 -1

# Mesh description
g field_mesh_0012

# Faces
f 1/1/1 2/2/1 3/3/1 4/4/1
f 5/5/1 6/6/1 7/7/1 8/8/1
f 9/9/1 10/10/1 11/2/1 12/1/1
f 13/11/1 14/12/1 15/6/1 16/5/1
f 17/13/1 18/14/1 19/10/1 20/9/1
f 21/15/1 22/16/1 23/12/1 24/11/1
f 25/17/1 26/18/1 27/14/1 28/13/1
f 29/19/1 30/20/1 31/16/1 32/15/1

