# Tiled2Unity generated file. Do not modify by hand.
# Wavefront file for 'field_mesh_0010.obj'

# Vertices (Count = 16)
v -576 -112 0
v -592 -112 0
v -592 -96 0
v -576 -96 0
v -448 -112 0
v -464 -112 0
v -464 -96 0
v -448 -96 0
v -96 -368 0
v -112 -368 0
v -112 -352 0
v -96 -352 0
v -96 -384 0
v -112 -384 0
v -112 -368 0
v -96 -368 0

# Texture cooridinates (Count = 10)
vt 0.1 0.1944444
vt 0.125 0.1944444
vt 0.125 0.2222222
vt 0.1 0.2222222
vt 0.825 0.9722222
vt 0.85 0.9722222
vt 0.85 1
vt 0.825 1
vt 0.825 0.9444444
vt 0.85 0.9444444

# Normal
vn 0 0 -1

# Mesh description
g field_mesh_0010

# Faces
f 1/1/1 2/2/1 3/3/1 4/4/1
f 5/1/1 6/2/1 7/3/1 8/4/1
f 9/5/1 10/6/1 11/7/1 12/8/1
f 13/9/1 14/10/1 15/6/1 16/5/1

