# Tiled2Unity generated file. Do not modify by hand.
# Wavefront file for 'field_mesh_0018.obj'

# Vertices (Count = 348)
v -1184 -160 0
v -1200 -160 0
v -1200 -144 0
v -1184 -144 0
v -1168 -160 0
v -1184 -160 0
v -1184 -144 0
v -1168 -144 0
v -1152 -160 0
v -1168 -160 0
v -1168 -144 0
v -1152 -144 0
v -1136 -160 0
v -1152 -160 0
v -1152 -144 0
v -1136 -144 0
v -1184 -176 0
v -1200 -176 0
v -1200 -160 0
v -1184 -160 0
v -1168 -176 0
v -1184 -176 0
v -1184 -160 0
v -1168 -160 0
v -1152 -176 0
v -1168 -176 0
v -1168 -160 0
v -1152 -160 0
v -1136 -176 0
v -1152 -176 0
v -1152 -160 0
v -1136 -160 0
v -1184 -192 0
v -1200 -192 0
v -1200 -176 0
v -1184 -176 0
v -1168 -192 0
v -1184 -192 0
v -1184 -176 0
v -1168 -176 0
v -1152 -192 0
v -1168 -192 0
v -1168 -176 0
v -1152 -176 0
v -1136 -192 0
v -1152 -192 0
v -1152 -176 0
v -1136 -176 0
v -1184 -208 0
v -1200 -208 0
v -1200 -192 0
v -1184 -192 0
v -1168 -208 0
v -1184 -208 0
v -1184 -192 0
v -1168 -192 0
v -1152 -208 0
v -1168 -208 0
v -1168 -192 0
v -1152 -192 0
v -1136 -208 0
v -1152 -208 0
v -1152 -192 0
v -1136 -192 0
v -432 -208 0
v -448 -208 0
v -448 -192 0
v -432 -192 0
v -416 -208 0
v -432 -208 0
v -432 -192 0
v -416 -192 0
v -400 -208 0
v -416 -208 0
v -416 -192 0
v -400 -192 0
v -384 -208 0
v -400 -208 0
v -400 -192 0
v -384 -192 0
v -368 -208 0
v -384 -208 0
v -384 -192 0
v -368 -192 0
v -432 -224 0
v -448 -224 0
v -448 -208 0
v -432 -208 0
v -416 -224 0
v -432 -224 0
v -432 -208 0
v -416 -208 0
v -400 -224 0
v -416 -224 0
v -416 -208 0
v -400 -208 0
v -384 -224 0
v -400 -224 0
v -400 -208 0
v -384 -208 0
v -368 -224 0
v -384 -224 0
v -384 -208 0
v -368 -208 0
v -432 -240 0
v -448 -240 0
v -448 -224 0
v -432 -224 0
v -416 -240 0
v -432 -240 0
v -432 -224 0
v -416 -224 0
v -400 -240 0
v -416 -240 0
v -416 -224 0
v -400 -224 0
v -384 -240 0
v -400 -240 0
v -400 -224 0
v -384 -224 0
v -368 -240 0
v -384 -240 0
v -384 -224 0
v -368 -224 0
v -432 -256 0
v -448 -256 0
v -448 -240 0
v -432 -240 0
v -416 -256 0
v -432 -256 0
v -432 -240 0
v -416 -240 0
v -400 -256 0
v -416 -256 0
v -416 -240 0
v -400 -240 0
v -384 -256 0
v -400 -256 0
v -400 -240 0
v -384 -240 0
v -368 -256 0
v -384 -256 0
v -384 -240 0
v -368 -240 0
v -352 -256 0
v -368 -256 0
v -368 -240 0
v -352 -240 0
v -336 -256 0
v -352 -256 0
v -352 -240 0
v -336 -240 0
v -320 -256 0
v -336 -256 0
v -336 -240 0
v -320 -240 0
v -368 -272 0
v -384 -272 0
v -384 -256 0
v -368 -256 0
v -352 -272 0
v -368 -272 0
v -368 -256 0
v -352 -256 0
v -336 -272 0
v -352 -272 0
v -352 -256 0
v -336 -256 0
v -320 -272 0
v -336 -272 0
v -336 -256 0
v -320 -256 0
v -368 -288 0
v -384 -288 0
v -384 -272 0
v -368 -272 0
v -352 -288 0
v -368 -288 0
v -368 -272 0
v -352 -272 0
v -336 -288 0
v -352 -288 0
v -352 -272 0
v -336 -272 0
v -320 -288 0
v -336 -288 0
v -336 -272 0
v -320 -272 0
v -368 -304 0
v -384 -304 0
v -384 -288 0
v -368 -288 0
v -352 -304 0
v -368 -304 0
v -368 -288 0
v -352 -288 0
v -336 -304 0
v -352 -304 0
v -352 -288 0
v -336 -288 0
v -320 -304 0
v -336 -304 0
v -336 -288 0
v -320 -288 0
v -336 -400 0
v -352 -400 0
v -352 -384 0
v -336 -384 0
v -320 -400 0
v -336 -400 0
v -336 -384 0
v -320 -384 0
v -304 -400 0
v -320 -400 0
v -320 -384 0
v -304 -384 0
v -288 -400 0
v -304 -400 0
v -304 -384 0
v -288 -384 0
v -272 -400 0
v -288 -400 0
v -288 -384 0
v -272 -384 0
v -336 -416 0
v -352 -416 0
v -352 -400 0
v -336 -400 0
v -320 -416 0
v -336 -416 0
v -336 -400 0
v -320 -400 0
v -304 -416 0
v -320 -416 0
v -320 -400 0
v -304 -400 0
v -288 -416 0
v -304 -416 0
v -304 -400 0
v -288 -400 0
v -272 -416 0
v -288 -416 0
v -288 -400 0
v -272 -400 0
v -336 -432 0
v -352 -432 0
v -352 -416 0
v -336 -416 0
v -320 -432 0
v -336 -432 0
v -336 -416 0
v -320 -416 0
v -304 -432 0
v -320 -432 0
v -320 -416 0
v -304 -416 0
v -288 -432 0
v -304 -432 0
v -304 -416 0
v -288 -416 0
v -272 -432 0
v -288 -432 0
v -288 -416 0
v -272 -416 0
v -336 -448 0
v -352 -448 0
v -352 -432 0
v -336 -432 0
v -320 -448 0
v -336 -448 0
v -336 -432 0
v -320 -432 0
v -304 -448 0
v -320 -448 0
v -320 -432 0
v -304 -432 0
v -288 -448 0
v -304 -448 0
v -304 -432 0
v -288 -432 0
v -272 -448 0
v -288 -448 0
v -288 -432 0
v -272 -432 0
v -1184 -512 0
v -1200 -512 0
v -1200 -496 0
v -1184 -496 0
v -1168 -512 0
v -1184 -512 0
v -1184 -496 0
v -1168 -496 0
v -1184 -528 0
v -1200 -528 0
v -1200 -512 0
v -1184 -512 0
v -1168 -528 0
v -1184 -528 0
v -1184 -512 0
v -1168 -512 0
v -1184 -544 0
v -1200 -544 0
v -1200 -528 0
v -1184 -528 0
v -1168 -544 0
v -1184 -544 0
v -1184 -528 0
v -1168 -528 0
v -1184 -560 0
v -1200 -560 0
v -1200 -544 0
v -1184 -544 0
v -1168 -560 0
v -1184 -560 0
v -1184 -544 0
v -1168 -544 0
v -1184 -1120 0
v -1200 -1120 0
v -1200 -1104 0
v -1184 -1104 0
v -1168 -1120 0
v -1184 -1120 0
v -1184 -1104 0
v -1168 -1104 0
v -1184 -1136 0
v -1200 -1136 0
v -1200 -1120 0
v -1184 -1120 0
v -1168 -1136 0
v -1184 -1136 0
v -1184 -1120 0
v -1168 -1120 0
v -1184 -1152 0
v -1200 -1152 0
v -1200 -1136 0
v -1184 -1136 0
v -1168 -1152 0
v -1184 -1152 0
v -1184 -1136 0
v -1168 -1136 0
v -1184 -1168 0
v -1200 -1168 0
v -1200 -1152 0
v -1184 -1152 0
v -1168 -1168 0
v -1184 -1168 0
v -1184 -1152 0
v -1168 -1152 0

# Texture cooridinates (Count = 45)
vt 0.75 0.8024194
vt 0.875 0.8024194
vt 0.875 0.8064516
vt 0.75 0.8064516
vt 0.625 0.8024194
vt 0.625 0.8064516
vt 0.5 0.8024194
vt 0.5 0.8064516
vt 0 0.8024194
vt 0.125 0.8024194
vt 0.125 0.8064516
vt 0 0.8064516
vt 0.75 0.7983871
vt 0.875 0.7983871
vt 0.625 0.7983871
vt 0.5 0.7983871
vt 0 0.7983871
vt 0.125 0.7983871
vt 0.75 0.7943549
vt 0.875 0.7943549
vt 0.625 0.7943549
vt 0.5 0.7943549
vt 0 0.7943549
vt 0.125 0.7943549
vt 0.75 0.7903226
vt 0.875 0.7903226
vt 0.625 0.7903226
vt 0.5 0.7903226
vt 0 0.7903226
vt 0.125 0.7903226
vt 1 0.8024194
vt 1 0.8064516
vt 0.375 0.8024194
vt 0.375 0.8064516
vt 0.25 0.8024194
vt 0.25 0.8064516
vt 1 0.7983871
vt 0.375 0.7983871
vt 0.25 0.7983871
vt 1 0.7943549
vt 0.375 0.7943549
vt 0.25 0.7943549
vt 1 0.7903226
vt 0.375 0.7903226
vt 0.25 0.7903226

# Normal
vn 0 0 -1

# Mesh description
g field_mesh_0018

# Faces
f 1/1/1 2/2/1 3/3/1 4/4/1
f 5/5/1 6/1/1 7/4/1 8/6/1
f 9/7/1 10/5/1 11/6/1 12/8/1
f 13/9/1 14/10/1 15/11/1 16/12/1
f 17/13/1 18/14/1 19/2/1 20/1/1
f 21/15/1 22/13/1 23/1/1 24/5/1
f 25/16/1 26/15/1 27/5/1 28/7/1
f 29/17/1 30/18/1 31/10/1 32/9/1
f 33/19/1 34/20/1 35/14/1 36/13/1
f 37/21/1 38/19/1 39/13/1 40/15/1
f 41/22/1 42/21/1 43/15/1 44/16/1
f 45/23/1 46/24/1 47/18/1 48/17/1
f 49/25/1 50/26/1 51/20/1 52/19/1
f 53/27/1 54/25/1 55/19/1 56/21/1
f 57/28/1 58/27/1 59/21/1 60/22/1
f 61/29/1 62/30/1 63/24/1 64/23/1
f 65/2/1 66/31/1 67/32/1 68/3/1
f 69/33/1 70/7/1 71/8/1 72/34/1
f 73/35/1 74/33/1 75/34/1 76/36/1
f 77/10/1 78/35/1 79/36/1 80/11/1
f 81/9/1 82/10/1 83/11/1 84/12/1
f 85/14/1 86/37/1 87/31/1 88/2/1
f 89/38/1 90/16/1 91/7/1 92/33/1
f 93/39/1 94/38/1 95/33/1 96/35/1
f 97/18/1 98/39/1 99/35/1 100/10/1
f 101/17/1 102/18/1 103/10/1 104/9/1
f 105/20/1 106/40/1 107/37/1 108/14/1
f 109/41/1 110/22/1 111/16/1 112/38/1
f 113/42/1 114/41/1 115/38/1 116/39/1
f 117/24/1 118/42/1 119/39/1 120/18/1
f 121/23/1 122/24/1 123/18/1 124/17/1
f 125/26/1 126/43/1 127/40/1 128/20/1
f 129/44/1 130/28/1 131/22/1 132/41/1
f 133/45/1 134/44/1 135/41/1 136/42/1
f 137/30/1 138/45/1 139/42/1 140/24/1
f 141/33/1 142/7/1 143/8/1 144/34/1
f 145/35/1 146/33/1 147/34/1 148/36/1
f 149/10/1 150/35/1 151/36/1 152/11/1
f 153/9/1 154/10/1 155/11/1 156/12/1
f 157/38/1 158/16/1 159/7/1 160/33/1
f 161/39/1 162/38/1 163/33/1 164/35/1
f 165/18/1 166/39/1 167/35/1 168/10/1
f 169/17/1 170/18/1 171/10/1 172/9/1
f 173/41/1 174/22/1 175/16/1 176/38/1
f 177/42/1 178/41/1 179/38/1 180/39/1
f 181/24/1 182/42/1 183/39/1 184/18/1
f 185/23/1 186/24/1 187/18/1 188/17/1
f 189/44/1 190/28/1 191/22/1 192/41/1
f 193/45/1 194/44/1 195/41/1 196/42/1
f 197/30/1 198/45/1 199/42/1 200/24/1
f 201/29/1 202/30/1 203/24/1 204/23/1
f 205/2/1 206/31/1 207/32/1 208/3/1
f 209/33/1 210/7/1 211/8/1 212/34/1
f 213/35/1 214/33/1 215/34/1 216/36/1
f 217/10/1 218/35/1 219/36/1 220/11/1
f 221/9/1 222/10/1 223/11/1 224/12/1
f 225/14/1 226/37/1 227/31/1 228/2/1
f 229/38/1 230/16/1 231/7/1 232/33/1
f 233/39/1 234/38/1 235/33/1 236/35/1
f 237/18/1 238/39/1 239/35/1 240/10/1
f 241/17/1 242/18/1 243/10/1 244/9/1
f 245/20/1 246/40/1 247/37/1 248/14/1
f 249/41/1 250/22/1 251/16/1 252/38/1
f 253/42/1 254/41/1 255/38/1 256/39/1
f 257/24/1 258/42/1 259/39/1 260/18/1
f 261/23/1 262/24/1 263/18/1 264/17/1
f 265/26/1 266/43/1 267/40/1 268/20/1
f 269/44/1 270/28/1 271/22/1 272/41/1
f 273/45/1 274/44/1 275/41/1 276/42/1
f 277/30/1 278/45/1 279/42/1 280/24/1
f 281/29/1 282/30/1 283/24/1 284/23/1
f 285/10/1 286/35/1 287/36/1 288/11/1
f 289/9/1 290/10/1 291/11/1 292/12/1
f 293/18/1 294/39/1 295/35/1 296/10/1
f 297/17/1 298/18/1 299/10/1 300/9/1
f 301/24/1 302/42/1 303/39/1 304/18/1
f 305/23/1 306/24/1 307/18/1 308/17/1
f 309/30/1 310/45/1 311/42/1 312/24/1
f 313/29/1 314/30/1 315/24/1 316/23/1
f 317/7/1 318/5/1 319/6/1 320/8/1
f 321/9/1 322/10/1 323/11/1 324/12/1
f 325/16/1 326/15/1 327/5/1 328/7/1
f 329/17/1 330/18/1 331/10/1 332/9/1
f 333/22/1 334/21/1 335/15/1 336/16/1
f 337/23/1 338/24/1 339/18/1 340/17/1
f 341/28/1 342/27/1 343/21/1 344/22/1
f 345/29/1 346/30/1 347/24/1 348/23/1

