# Tiled2Unity generated file. Do not modify by hand.
# Wavefront file for 'field_mesh_0002.obj'

# Vertices (Count = 96)
v -1152 -352 0
v -1168 -352 0
v -1168 -336 0
v -1152 -336 0
v -1136 -352 0
v -1152 -352 0
v -1152 -336 0
v -1136 -336 0
v -1120 -352 0
v -1136 -352 0
v -1136 -336 0
v -1120 -336 0
v -1104 -352 0
v -1120 -352 0
v -1120 -336 0
v -1104 -336 0
v -1088 -352 0
v -1104 -352 0
v -1104 -336 0
v -1088 -336 0
v -1072 -352 0
v -1088 -352 0
v -1088 -336 0
v -1072 -336 0
v -1072 -368 0
v -1088 -368 0
v -1088 -352 0
v -1072 -352 0
v -1072 -384 0
v -1088 -384 0
v -1088 -368 0
v -1072 -368 0
v -1072 -400 0
v -1088 -400 0
v -1088 -384 0
v -1072 -384 0
v -1072 -416 0
v -1088 -416 0
v -1088 -400 0
v -1072 -400 0
v -848 -416 0
v -864 -416 0
v -864 -400 0
v -848 -400 0
v -1072 -432 0
v -1088 -432 0
v -1088 -416 0
v -1072 -416 0
v -848 -432 0
v -864 -432 0
v -864 -416 0
v -848 -416 0
v -896 -448 0
v -912 -448 0
v -912 -432 0
v -896 -432 0
v -848 -448 0
v -864 -448 0
v -864 -432 0
v -848 -432 0
v -1072 -528 0
v -1088 -528 0
v -1088 -512 0
v -1072 -512 0
v -1072 -544 0
v -1088 -544 0
v -1088 -528 0
v -1072 -528 0
v -1072 -560 0
v -1088 -560 0
v -1088 -544 0
v -1072 -544 0
v -1072 -576 0
v -1088 -576 0
v -1088 -560 0
v -1072 -560 0
v -1072 -592 0
v -1088 -592 0
v -1088 -576 0
v -1072 -576 0
v -1072 -608 0
v -1088 -608 0
v -1088 -592 0
v -1072 -592 0
v -1168 -624 0
v -1184 -624 0
v -1184 -608 0
v -1168 -608 0
v -1088 -624 0
v -1104 -624 0
v -1104 -608 0
v -1088 -608 0
v -1072 -624 0
v -1088 -624 0
v -1088 -608 0
v -1072 -608 0

# Texture cooridinates (Count = 16)
vt 0.4375 0.8125
vt 0.453125 0.8125
vt 0.453125 0.84375
vt 0.4375 0.84375
vt 0.453125 0.875
vt 0.4375 0.875
vt 0.46875 0.84375
vt 0.46875 0.875
vt 0.5 0.90625
vt 0.515625 0.90625
vt 0.515625 0.9375
vt 0.5 0.9375
vt 0.75 0.90625
vt 0.765625 0.90625
vt 0.765625 0.9375
vt 0.75 0.9375

# Normal
vn 0 0 -1

# Mesh description
g field_mesh_0002

# Faces
f 1/1/1 2/2/1 3/3/1 4/4/1
f 5/1/1 6/2/1 7/3/1 8/4/1
f 9/1/1 10/2/1 11/3/1 12/4/1
f 13/4/1 14/3/1 15/5/1 16/6/1
f 17/1/1 18/2/1 19/3/1 20/4/1
f 21/4/1 22/3/1 23/5/1 24/6/1
f 25/1/1 26/2/1 27/3/1 28/4/1
f 29/3/1 30/7/1 31/8/1 32/5/1
f 33/4/1 34/3/1 35/5/1 36/6/1
f 37/4/1 38/3/1 39/5/1 40/6/1
f 41/9/1 42/10/1 43/11/1 44/12/1
f 45/1/1 46/2/1 47/3/1 48/4/1
f 49/13/1 50/14/1 51/15/1 52/16/1
f 53/4/1 54/3/1 55/5/1 56/6/1
f 57/12/1 58/9/1 59/10/1 60/11/1
f 61/1/1 62/2/1 63/3/1 64/4/1
f 65/4/1 66/3/1 67/5/1 68/6/1
f 69/3/1 70/7/1 71/8/1 72/5/1
f 73/1/1 74/2/1 75/3/1 76/4/1
f 77/4/1 78/3/1 79/5/1 80/6/1
f 81/1/1 82/2/1 83/3/1 84/4/1
f 85/1/1 86/2/1 87/3/1 88/4/1
f 89/4/1 90/3/1 91/5/1 92/6/1
f 93/4/1 94/3/1 95/5/1 96/6/1

