# Tiled2Unity generated file. Do not modify by hand.
# Wavefront file for 'field_mesh_0011.obj'

# Vertices (Count = 172)
v -592 -80 0
v -608 -80 0
v -608 -64 0
v -592 -64 0
v -576 -80 0
v -592 -80 0
v -592 -64 0
v -576 -64 0
v -448 -80 0
v -464 -80 0
v -464 -64 0
v -448 -64 0
v -432 -80 0
v -448 -80 0
v -448 -64 0
v -432 -64 0
v -592 -96 0
v -608 -96 0
v -608 -80 0
v -592 -80 0
v -576 -96 0
v -592 -96 0
v -592 -80 0
v -576 -80 0
v -448 -96 0
v -464 -96 0
v -464 -80 0
v -448 -80 0
v -432 -96 0
v -448 -96 0
v -448 -80 0
v -432 -80 0
v -592 -112 0
v -608 -112 0
v -608 -96 0
v -592 -96 0
v -576 -112 0
v -592 -112 0
v -592 -96 0
v -576 -96 0
v -448 -112 0
v -464 -112 0
v -464 -96 0
v -448 -96 0
v -432 -112 0
v -448 -112 0
v -448 -96 0
v -432 -96 0
v -592 -128 0
v -608 -128 0
v -608 -112 0
v -592 -112 0
v -576 -128 0
v -592 -128 0
v -592 -112 0
v -576 -112 0
v -448 -128 0
v -464 -128 0
v -464 -112 0
v -448 -112 0
v -432 -128 0
v -448 -128 0
v -448 -112 0
v -432 -112 0
v -224 -320 0
v -240 -320 0
v -240 -304 0
v -224 -304 0
v -192 -320 0
v -208 -320 0
v -208 -304 0
v -192 -304 0
v -512 -336 0
v -528 -336 0
v -528 -320 0
v -512 -320 0
v -224 -336 0
v -240 -336 0
v -240 -320 0
v -224 -320 0
v -192 -336 0
v -208 -336 0
v -208 -320 0
v -192 -320 0
v -512 -352 0
v -528 -352 0
v -528 -336 0
v -512 -336 0
v -224 -352 0
v -240 -352 0
v -240 -336 0
v -224 -336 0
v -192 -352 0
v -208 -352 0
v -208 -336 0
v -192 -336 0
v -560 -368 0
v -576 -368 0
v -576 -352 0
v -560 -352 0
v -544 -368 0
v -560 -368 0
v -560 -352 0
v -544 -352 0
v -368 -368 0
v -384 -368 0
v -384 -352 0
v -368 -352 0
v -352 -368 0
v -368 -368 0
v -368 -352 0
v -352 -352 0
v -224 -368 0
v -240 -368 0
v -240 -352 0
v -224 -352 0
v -192 -368 0
v -208 -368 0
v -208 -352 0
v -192 -352 0
v -560 -384 0
v -576 -384 0
v -576 -368 0
v -560 -368 0
v -544 -384 0
v -560 -384 0
v -560 -368 0
v -544 -368 0
v -368 -384 0
v -384 -384 0
v -384 -368 0
v -368 -368 0
v -352 -384 0
v -368 -384 0
v -368 -368 0
v -352 -368 0
v -112 -384 0
v -128 -384 0
v -128 -368 0
v -112 -368 0
v -96 -384 0
v -112 -384 0
v -112 -368 0
v -96 -368 0
v -416 -400 0
v -432 -400 0
v -432 -384 0
v -416 -384 0
v -400 -400 0
v -416 -400 0
v -416 -384 0
v -400 -384 0
v -384 -400 0
v -400 -400 0
v -400 -384 0
v -384 -384 0
v -112 -400 0
v -128 -400 0
v -128 -384 0
v -112 -384 0
v -96 -400 0
v -112 -400 0
v -112 -384 0
v -96 -384 0
v -416 -416 0
v -432 -416 0
v -432 -400 0
v -416 -400 0
v -400 -416 0
v -416 -416 0
v -416 -400 0
v -400 -400 0

# Texture cooridinates (Count = 49)
vt 0.15 0.1666667
vt 0.175 0.1666667
vt 0.175 0.1944444
vt 0.15 0.1944444
vt 0.125 0.1666667
vt 0.125 0.1944444
vt 0.15 0.1388889
vt 0.175 0.1388889
vt 0.125 0.1388889
vt 0.375 0.2222222
vt 0.4 0.2222222
vt 0.4 0.25
vt 0.375 0.25
vt 0.35 0.2222222
vt 0.35 0.25
vt 0.375 0.1944444
vt 0.4 0.1944444
vt 0.35 0.1944444
vt 0.925 0.75
vt 0.95 0.75
vt 0.95 0.7777778
vt 0.925 0.7777778
vt 0.75 0.9722222
vt 0.775 0.9722222
vt 0.775 1
vt 0.75 1
vt 0.925 0.7222222
vt 0.95 0.7222222
vt 0.75 0.9444444
vt 0.775 0.9444444
vt 0.825 0.9722222
vt 0.85 0.9722222
vt 0.85 1
vt 0.825 1
vt 0.85 0.8888889
vt 0.875 0.8888889
vt 0.875 0.9166667
vt 0.85 0.9166667
vt 0.825 0.8888889
vt 0.825 0.9166667
vt 0.325 0.3611111
vt 0.35 0.3611111
vt 0.35 0.3888889
vt 0.325 0.3888889
vt 0.825 0.9444444
vt 0.85 0.9444444
vt 0.85 0.8611111
vt 0.875 0.8611111
vt 0.825 0.8611111

# Normal
vn 0 0 -1

# Mesh description
g field_mesh_0011

# Faces
f 1/1/1 2/2/1 3/3/1 4/4/1
f 5/5/1 6/1/1 7/4/1 8/6/1
f 9/1/1 10/5/1 11/6/1 12/4/1
f 13/2/1 14/1/1 15/4/1 16/3/1
f 17/7/1 18/8/1 19/2/1 20/1/1
f 21/9/1 22/7/1 23/1/1 24/5/1
f 25/7/1 26/9/1 27/5/1 28/1/1
f 29/8/1 30/7/1 31/1/1 32/2/1
f 33/10/1 34/11/1 35/12/1 36/13/1
f 37/14/1 38/10/1 39/13/1 40/15/1
f 41/10/1 42/14/1 43/15/1 44/13/1
f 45/11/1 46/10/1 47/13/1 48/12/1
f 49/16/1 50/17/1 51/11/1 52/10/1
f 53/18/1 54/16/1 55/10/1 56/14/1
f 57/16/1 58/18/1 59/14/1 60/10/1
f 61/17/1 62/16/1 63/10/1 64/11/1
f 65/19/1 66/20/1 67/21/1 68/22/1
f 69/19/1 70/20/1 71/21/1 72/22/1
f 73/23/1 74/24/1 75/25/1 76/26/1
f 77/27/1 78/28/1 79/20/1 80/19/1
f 81/27/1 82/28/1 83/20/1 84/19/1
f 85/29/1 86/30/1 87/24/1 88/23/1
f 89/19/1 90/20/1 91/21/1 92/22/1
f 93/19/1 94/20/1 95/21/1 96/22/1
f 97/10/1 98/11/1 99/12/1 100/13/1
f 101/14/1 102/10/1 103/13/1 104/15/1
f 105/10/1 106/14/1 107/15/1 108/13/1
f 109/11/1 110/10/1 111/13/1 112/12/1
f 113/27/1 114/28/1 115/20/1 116/19/1
f 117/27/1 118/28/1 119/20/1 120/19/1
f 121/16/1 122/17/1 123/11/1 124/10/1
f 125/18/1 126/16/1 127/10/1 128/14/1
f 129/16/1 130/18/1 131/14/1 132/10/1
f 133/17/1 134/16/1 135/10/1 136/11/1
f 137/31/1 138/32/1 139/33/1 140/34/1
f 141/31/1 142/32/1 143/33/1 144/34/1
f 145/35/1 146/36/1 147/37/1 148/38/1
f 149/39/1 150/35/1 151/38/1 152/40/1
f 153/41/1 154/42/1 155/43/1 156/44/1
f 157/45/1 158/46/1 159/32/1 160/31/1
f 161/45/1 162/46/1 163/32/1 164/31/1
f 165/47/1 166/48/1 167/36/1 168/35/1
f 169/49/1 170/47/1 171/35/1 172/39/1

