# Tiled2Unity generated file. Do not modify by hand.
# Wavefront file for 'field_mesh_0024.obj'

# Vertices (Count = 176)
v -1184 -64 0
v -1200 -64 0
v -1200 -48 0
v -1184 -48 0
v -1168 -64 0
v -1184 -64 0
v -1184 -48 0
v -1168 -48 0
v -1152 -64 0
v -1168 -64 0
v -1168 -48 0
v -1152 -48 0
v -1136 -64 0
v -1152 -64 0
v -1152 -48 0
v -1136 -48 0
v -1184 -80 0
v -1200 -80 0
v -1200 -64 0
v -1184 -64 0
v -1168 -80 0
v -1184 -80 0
v -1184 -64 0
v -1168 -64 0
v -1152 -80 0
v -1168 -80 0
v -1168 -64 0
v -1152 -64 0
v -1136 -80 0
v -1152 -80 0
v -1152 -64 0
v -1136 -64 0
v -1184 -96 0
v -1200 -96 0
v -1200 -80 0
v -1184 -80 0
v -1168 -96 0
v -1184 -96 0
v -1184 -80 0
v -1168 -80 0
v -1152 -96 0
v -1168 -96 0
v -1168 -80 0
v -1152 -80 0
v -1136 -96 0
v -1152 -96 0
v -1152 -80 0
v -1136 -80 0
v -1184 -112 0
v -1200 -112 0
v -1200 -96 0
v -1184 -96 0
v -1168 -112 0
v -1184 -112 0
v -1184 -96 0
v -1168 -96 0
v -1152 -112 0
v -1168 -112 0
v -1168 -96 0
v -1152 -96 0
v -1136 -112 0
v -1152 -112 0
v -1152 -96 0
v -1136 -96 0
v -1184 -928 0
v -1200 -928 0
v -1200 -912 0
v -1184 -912 0
v -1168 -928 0
v -1184 -928 0
v -1184 -912 0
v -1168 -912 0
v -528 -928 0
v -544 -928 0
v -544 -912 0
v -528 -912 0
v -512 -928 0
v -528 -928 0
v -528 -912 0
v -512 -912 0
v -496 -928 0
v -512 -928 0
v -512 -912 0
v -496 -912 0
v -480 -928 0
v -496 -928 0
v -496 -912 0
v -480 -912 0
v -464 -928 0
v -480 -928 0
v -480 -912 0
v -464 -912 0
v -1184 -944 0
v -1200 -944 0
v -1200 -928 0
v -1184 -928 0
v -1168 -944 0
v -1184 -944 0
v -1184 -928 0
v -1168 -928 0
v -528 -944 0
v -544 -944 0
v -544 -928 0
v -528 -928 0
v -512 -944 0
v -528 -944 0
v -528 -928 0
v -512 -928 0
v -496 -944 0
v -512 -944 0
v -512 -928 0
v -496 -928 0
v -480 -944 0
v -496 -944 0
v -496 -928 0
v -480 -928 0
v -464 -944 0
v -480 -944 0
v -480 -928 0
v -464 -928 0
v -1184 -960 0
v -1200 -960 0
v -1200 -944 0
v -1184 -944 0
v -1168 -960 0
v -1184 -960 0
v -1184 -944 0
v -1168 -944 0
v -528 -960 0
v -544 -960 0
v -544 -944 0
v -528 -944 0
v -512 -960 0
v -528 -960 0
v -528 -944 0
v -512 -944 0
v -496 -960 0
v -512 -960 0
v -512 -944 0
v -496 -944 0
v -480 -960 0
v -496 -960 0
v -496 -944 0
v -480 -944 0
v -464 -960 0
v -480 -960 0
v -480 -944 0
v -464 -944 0
v -1184 -976 0
v -1200 -976 0
v -1200 -960 0
v -1184 -960 0
v -1168 -976 0
v -1184 -976 0
v -1184 -960 0
v -1168 -960 0
v -528 -976 0
v -544 -976 0
v -544 -960 0
v -528 -960 0
v -512 -976 0
v -528 -976 0
v -528 -960 0
v -512 -960 0
v -496 -976 0
v -512 -976 0
v -512 -960 0
v -496 -960 0
v -480 -976 0
v -496 -976 0
v -496 -960 0
v -480 -960 0
v -464 -976 0
v -480 -976 0
v -480 -960 0
v -464 -960 0

# Texture cooridinates (Count = 35)
vt 0.75 0.8024194
vt 0.875 0.8024194
vt 0.875 0.8064516
vt 0.75 0.8064516
vt 0.625 0.8024194
vt 0.625 0.8064516
vt 0.5 0.8024194
vt 0.5 0.8064516
vt 0 0.8024194
vt 0.125 0.8024194
vt 0.125 0.8064516
vt 0 0.8064516
vt 0.75 0.7983871
vt 0.875 0.7983871
vt 0.625 0.7983871
vt 0.5 0.7983871
vt 0 0.7983871
vt 0.125 0.7983871
vt 0.75 0.7943549
vt 0.875 0.7943549
vt 0.625 0.7943549
vt 0.5 0.7943549
vt 0 0.7943549
vt 0.125 0.7943549
vt 0.75 0.7903226
vt 0.875 0.7903226
vt 0.625 0.7903226
vt 0.5 0.7903226
vt 0 0.7903226
vt 0.125 0.7903226
vt 1 0.8024194
vt 1 0.8064516
vt 1 0.7983871
vt 1 0.7943549
vt 1 0.7903226

# Normal
vn 0 0 -1

# Mesh description
g field_mesh_0024

# Faces
f 1/1/1 2/2/1 3/3/1 4/4/1
f 5/5/1 6/1/1 7/4/1 8/6/1
f 9/7/1 10/5/1 11/6/1 12/8/1
f 13/9/1 14/10/1 15/11/1 16/12/1
f 17/13/1 18/14/1 19/2/1 20/1/1
f 21/15/1 22/13/1 23/1/1 24/5/1
f 25/16/1 26/15/1 27/5/1 28/7/1
f 29/17/1 30/18/1 31/10/1 32/9/1
f 33/19/1 34/20/1 35/14/1 36/13/1
f 37/21/1 38/19/1 39/13/1 40/15/1
f 41/22/1 42/21/1 43/15/1 44/16/1
f 45/23/1 46/24/1 47/18/1 48/17/1
f 49/25/1 50/26/1 51/20/1 52/19/1
f 53/27/1 54/25/1 55/19/1 56/21/1
f 57/28/1 58/27/1 59/21/1 60/22/1
f 61/29/1 62/30/1 63/24/1 64/23/1
f 65/7/1 66/5/1 67/6/1 68/8/1
f 69/9/1 70/10/1 71/11/1 72/12/1
f 73/2/1 74/31/1 75/32/1 76/3/1
f 77/1/1 78/2/1 79/3/1 80/4/1
f 81/5/1 82/1/1 83/4/1 84/6/1
f 85/7/1 86/5/1 87/6/1 88/8/1
f 89/9/1 90/10/1 91/11/1 92/12/1
f 93/16/1 94/15/1 95/5/1 96/7/1
f 97/17/1 98/18/1 99/10/1 100/9/1
f 101/14/1 102/33/1 103/31/1 104/2/1
f 105/13/1 106/14/1 107/2/1 108/1/1
f 109/15/1 110/13/1 111/1/1 112/5/1
f 113/16/1 114/15/1 115/5/1 116/7/1
f 117/17/1 118/18/1 119/10/1 120/9/1
f 121/22/1 122/21/1 123/15/1 124/16/1
f 125/23/1 126/24/1 127/18/1 128/17/1
f 129/20/1 130/34/1 131/33/1 132/14/1
f 133/19/1 134/20/1 135/14/1 136/13/1
f 137/21/1 138/19/1 139/13/1 140/15/1
f 141/22/1 142/21/1 143/15/1 144/16/1
f 145/23/1 146/24/1 147/18/1 148/17/1
f 149/28/1 150/27/1 151/21/1 152/22/1
f 153/29/1 154/30/1 155/24/1 156/23/1
f 157/26/1 158/35/1 159/34/1 160/20/1
f 161/25/1 162/26/1 163/20/1 164/19/1
f 165/27/1 166/25/1 167/19/1 168/21/1
f 169/28/1 170/27/1 171/21/1 172/22/1
f 173/29/1 174/30/1 175/24/1 176/23/1

