# Tiled2Unity generated file. Do not modify by hand.
# Wavefront file for 'field_mesh_0005.obj'

# Vertices (Count = 12)
v -1072 -448 0
v -1088 -448 0
v -1088 -432 0
v -1072 -432 0
v -896 -448 0
v -912 -448 0
v -912 -432 0
v -896 -432 0
v -1072 -512 0
v -1088 -512 0
v -1088 -496 0
v -1072 -496 0

# Texture cooridinates (Count = 4)
vt 0.328125 0.90625
vt 0.34375 0.90625
vt 0.34375 0.9375
vt 0.328125 0.9375

# Normal
vn 0 0 -1

# Mesh description
g field_mesh_0005

# Faces
f 1/1/1 2/2/1 3/3/1 4/4/1
f 5/1/1 6/2/1 7/3/1 8/4/1
f 9/1/1 10/2/1 11/3/1 12/4/1

