# Tiled2Unity generated file. Do not modify by hand.
# Wavefront file for 'field_mesh_0017.obj'

# Vertices (Count = 24)
v -544 -448 0
v -560 -448 0
v -560 -432 0
v -544 -432 0
v -368 -448 0
v -384 -448 0
v -384 -432 0
v -368 -432 0
v -544 -464 0
v -560 -464 0
v -560 -448 0
v -544 -448 0
v -368 -464 0
v -384 -464 0
v -384 -448 0
v -368 -448 0
v -544 -480 0
v -560 -480 0
v -560 -464 0
v -544 -464 0
v -368 -480 0
v -384 -480 0
v -384 -464 0
v -368 -464 0

# Texture cooridinates (Count = 12)
vt 0.8780992 0.7756654
vt 0.8946281 0.7756654
vt 0.8946281 0.8060837
vt 0.8780992 0.8060837
vt 0.8780992 0.743346
vt 0.8946281 0.743346
vt 0.8946281 0.7737643
vt 0.8780992 0.7737643
vt 0.8780992 0.7110266
vt 0.8946281 0.7110266
vt 0.8946281 0.7414448
vt 0.8780992 0.7414448

# Normal
vn 0 0 -1

# Mesh description
g field_mesh_0017

# Faces
f 1/1/1 2/2/1 3/3/1 4/4/1
f 5/1/1 6/2/1 7/3/1 8/4/1
f 9/5/1 10/6/1 11/7/1 12/8/1
f 13/5/1 14/6/1 15/7/1 16/8/1
f 17/9/1 18/10/1 19/11/1 20/12/1
f 21/9/1 22/10/1 23/11/1 24/12/1

