# Tiled2Unity generated file. Do not modify by hand.
# Wavefront file for 'field_mesh_0025.obj'

# Vertices (Count = 432)
v -400 -64 0
v -416 -64 0
v -416 -48 0
v -400 -48 0
v -384 -64 0
v -400 -64 0
v -400 -48 0
v -384 -48 0
v -368 -64 0
v -384 -64 0
v -384 -48 0
v -368 -48 0
v -352 -64 0
v -368 -64 0
v -368 -48 0
v -352 -48 0
v -336 -64 0
v -352 -64 0
v -352 -48 0
v -336 -48 0
v -400 -80 0
v -416 -80 0
v -416 -64 0
v -400 -64 0
v -384 -80 0
v -400 -80 0
v -400 -64 0
v -384 -64 0
v -368 -80 0
v -384 -80 0
v -384 -64 0
v -368 -64 0
v -352 -80 0
v -368 -80 0
v -368 -64 0
v -352 -64 0
v -336 -80 0
v -352 -80 0
v -352 -64 0
v -336 -64 0
v -400 -96 0
v -416 -96 0
v -416 -80 0
v -400 -80 0
v -384 -96 0
v -400 -96 0
v -400 -80 0
v -384 -80 0
v -368 -96 0
v -384 -96 0
v -384 -80 0
v -368 -80 0
v -352 -96 0
v -368 -96 0
v -368 -80 0
v -352 -80 0
v -336 -96 0
v -352 -96 0
v -352 -80 0
v -336 -80 0
v -1184 -112 0
v -1200 -112 0
v -1200 -96 0
v -1184 -96 0
v -1168 -112 0
v -1184 -112 0
v -1184 -96 0
v -1168 -96 0
v -1152 -112 0
v -1168 -112 0
v -1168 -96 0
v -1152 -96 0
v -1136 -112 0
v -1152 -112 0
v -1152 -96 0
v -1136 -96 0
v -400 -112 0
v -416 -112 0
v -416 -96 0
v -400 -96 0
v -384 -112 0
v -400 -112 0
v -400 -96 0
v -384 -96 0
v -368 -112 0
v -384 -112 0
v -384 -96 0
v -368 -96 0
v -352 -112 0
v -368 -112 0
v -368 -96 0
v -352 -96 0
v -336 -112 0
v -352 -112 0
v -352 -96 0
v -336 -96 0
v -1184 -128 0
v -1200 -128 0
v -1200 -112 0
v -1184 -112 0
v -1168 -128 0
v -1184 -128 0
v -1184 -112 0
v -1168 -112 0
v -1152 -128 0
v -1168 -128 0
v -1168 -112 0
v -1152 -112 0
v -1136 -128 0
v -1152 -128 0
v -1152 -112 0
v -1136 -112 0
v -1184 -144 0
v -1200 -144 0
v -1200 -128 0
v -1184 -128 0
v -1168 -144 0
v -1184 -144 0
v -1184 -128 0
v -1168 -128 0
v -1152 -144 0
v -1168 -144 0
v -1168 -128 0
v -1152 -128 0
v -1136 -144 0
v -1152 -144 0
v -1152 -128 0
v -1136 -128 0
v -1184 -160 0
v -1200 -160 0
v -1200 -144 0
v -1184 -144 0
v -1168 -160 0
v -1184 -160 0
v -1184 -144 0
v -1168 -144 0
v -1152 -160 0
v -1168 -160 0
v -1168 -144 0
v -1152 -144 0
v -1136 -160 0
v -1152 -160 0
v -1152 -144 0
v -1136 -144 0
v -1056 -176 0
v -1072 -176 0
v -1072 -160 0
v -1056 -160 0
v -1040 -176 0
v -1056 -176 0
v -1056 -160 0
v -1040 -160 0
v -1024 -176 0
v -1040 -176 0
v -1040 -160 0
v -1024 -160 0
v -1008 -176 0
v -1024 -176 0
v -1024 -160 0
v -1008 -160 0
v -992 -176 0
v -1008 -176 0
v -1008 -160 0
v -992 -160 0
v -1056 -192 0
v -1072 -192 0
v -1072 -176 0
v -1056 -176 0
v -1040 -192 0
v -1056 -192 0
v -1056 -176 0
v -1040 -176 0
v -1024 -192 0
v -1040 -192 0
v -1040 -176 0
v -1024 -176 0
v -1008 -192 0
v -1024 -192 0
v -1024 -176 0
v -1008 -176 0
v -992 -192 0
v -1008 -192 0
v -1008 -176 0
v -992 -176 0
v -1056 -208 0
v -1072 -208 0
v -1072 -192 0
v -1056 -192 0
v -1040 -208 0
v -1056 -208 0
v -1056 -192 0
v -1040 -192 0
v -1024 -208 0
v -1040 -208 0
v -1040 -192 0
v -1024 -192 0
v -1008 -208 0
v -1024 -208 0
v -1024 -192 0
v -1008 -192 0
v -992 -208 0
v -1008 -208 0
v -1008 -192 0
v -992 -192 0
v -1056 -224 0
v -1072 -224 0
v -1072 -208 0
v -1056 -208 0
v -1040 -224 0
v -1056 -224 0
v -1056 -208 0
v -1040 -208 0
v -1024 -224 0
v -1040 -224 0
v -1040 -208 0
v -1024 -208 0
v -1008 -224 0
v -1024 -224 0
v -1024 -208 0
v -1008 -208 0
v -992 -224 0
v -1008 -224 0
v -1008 -208 0
v -992 -208 0
v -320 -256 0
v -336 -256 0
v -336 -240 0
v -320 -240 0
v -304 -256 0
v -320 -256 0
v -320 -240 0
v -304 -240 0
v -288 -256 0
v -304 -256 0
v -304 -240 0
v -288 -240 0
v -272 -256 0
v -288 -256 0
v -288 -240 0
v -272 -240 0
v -320 -272 0
v -336 -272 0
v -336 -256 0
v -320 -256 0
v -304 -272 0
v -320 -272 0
v -320 -256 0
v -304 -256 0
v -288 -272 0
v -304 -272 0
v -304 -256 0
v -288 -256 0
v -272 -272 0
v -288 -272 0
v -288 -256 0
v -272 -256 0
v -320 -288 0
v -336 -288 0
v -336 -272 0
v -320 -272 0
v -304 -288 0
v -320 -288 0
v -320 -272 0
v -304 -272 0
v -288 -288 0
v -304 -288 0
v -304 -272 0
v -288 -272 0
v -272 -288 0
v -288 -288 0
v -288 -272 0
v -272 -272 0
v -320 -304 0
v -336 -304 0
v -336 -288 0
v -320 -288 0
v -304 -304 0
v -320 -304 0
v -320 -288 0
v -304 -288 0
v -288 -304 0
v -304 -304 0
v -304 -288 0
v -288 -288 0
v -272 -304 0
v -288 -304 0
v -288 -288 0
v -272 -288 0
v -1184 -368 0
v -1200 -368 0
v -1200 -352 0
v -1184 -352 0
v -1168 -368 0
v -1184 -368 0
v -1184 -352 0
v -1168 -352 0
v -1184 -384 0
v -1200 -384 0
v -1200 -368 0
v -1184 -368 0
v -1168 -384 0
v -1184 -384 0
v -1184 -368 0
v -1168 -368 0
v -1184 -400 0
v -1200 -400 0
v -1200 -384 0
v -1184 -384 0
v -1168 -400 0
v -1184 -400 0
v -1184 -384 0
v -1168 -384 0
v -1184 -416 0
v -1200 -416 0
v -1200 -400 0
v -1184 -400 0
v -1168 -416 0
v -1184 -416 0
v -1184 -400 0
v -1168 -400 0
v -1184 -976 0
v -1200 -976 0
v -1200 -960 0
v -1184 -960 0
v -1168 -976 0
v -1184 -976 0
v -1184 -960 0
v -1168 -960 0
v -528 -976 0
v -544 -976 0
v -544 -960 0
v -528 -960 0
v -512 -976 0
v -528 -976 0
v -528 -960 0
v -512 -960 0
v -496 -976 0
v -512 -976 0
v -512 -960 0
v -496 -960 0
v -480 -976 0
v -496 -976 0
v -496 -960 0
v -480 -960 0
v -464 -976 0
v -480 -976 0
v -480 -960 0
v -464 -960 0
v -1184 -992 0
v -1200 -992 0
v -1200 -976 0
v -1184 -976 0
v -1168 -992 0
v -1184 -992 0
v -1184 -976 0
v -1168 -976 0
v -528 -992 0
v -544 -992 0
v -544 -976 0
v -528 -976 0
v -512 -992 0
v -528 -992 0
v -528 -976 0
v -512 -976 0
v -496 -992 0
v -512 -992 0
v -512 -976 0
v -496 -976 0
v -480 -992 0
v -496 -992 0
v -496 -976 0
v -480 -976 0
v -464 -992 0
v -480 -992 0
v -480 -976 0
v -464 -976 0
v -1184 -1008 0
v -1200 -1008 0
v -1200 -992 0
v -1184 -992 0
v -1168 -1008 0
v -1184 -1008 0
v -1184 -992 0
v -1168 -992 0
v -528 -1008 0
v -544 -1008 0
v -544 -992 0
v -528 -992 0
v -512 -1008 0
v -528 -1008 0
v -528 -992 0
v -512 -992 0
v -496 -1008 0
v -512 -1008 0
v -512 -992 0
v -496 -992 0
v -480 -1008 0
v -496 -1008 0
v -496 -992 0
v -480 -992 0
v -464 -1008 0
v -480 -1008 0
v -480 -992 0
v -464 -992 0
v -1184 -1024 0
v -1200 -1024 0
v -1200 -1008 0
v -1184 -1008 0
v -1168 -1024 0
v -1184 -1024 0
v -1184 -1008 0
v -1168 -1008 0
v -528 -1024 0
v -544 -1024 0
v -544 -1008 0
v -528 -1008 0
v -512 -1024 0
v -528 -1024 0
v -528 -1008 0
v -512 -1008 0
v -496 -1024 0
v -512 -1024 0
v -512 -1008 0
v -496 -1008 0
v -480 -1024 0
v -496 -1024 0
v -496 -1008 0
v -480 -1008 0
v -464 -1024 0
v -480 -1024 0
v -480 -1008 0
v -464 -1008 0

# Texture cooridinates (Count = 45)
vt 0.875 0.8024194
vt 1 0.8024194
vt 1 0.8064516
vt 0.875 0.8064516
vt 0.375 0.8024194
vt 0.5 0.8024194
vt 0.5 0.8064516
vt 0.375 0.8064516
vt 0.25 0.8024194
vt 0.25 0.8064516
vt 0.125 0.8024194
vt 0.125 0.8064516
vt 0 0.8024194
vt 0 0.8064516
vt 0.875 0.7983871
vt 1 0.7983871
vt 0.375 0.7983871
vt 0.5 0.7983871
vt 0.25 0.7983871
vt 0.125 0.7983871
vt 0 0.7983871
vt 0.875 0.7943549
vt 1 0.7943549
vt 0.375 0.7943549
vt 0.5 0.7943549
vt 0.25 0.7943549
vt 0.125 0.7943549
vt 0 0.7943549
vt 0.75 0.8024194
vt 0.75 0.8064516
vt 0.625 0.8024194
vt 0.625 0.8064516
vt 0.875 0.7903226
vt 1 0.7903226
vt 0.375 0.7903226
vt 0.5 0.7903226
vt 0.25 0.7903226
vt 0.125 0.7903226
vt 0 0.7903226
vt 0.75 0.7983871
vt 0.625 0.7983871
vt 0.75 0.7943549
vt 0.625 0.7943549
vt 0.75 0.7903226
vt 0.625 0.7903226

# Normal
vn 0 0 -1

# Mesh description
g field_mesh_0025

# Faces
f 1/1/1 2/2/1 3/3/1 4/4/1
f 5/5/1 6/6/1 7/7/1 8/8/1
f 9/9/1 10/5/1 11/8/1 12/10/1
f 13/11/1 14/9/1 15/10/1 16/12/1
f 17/13/1 18/11/1 19/12/1 20/14/1
f 21/15/1 22/16/1 23/2/1 24/1/1
f 25/17/1 26/18/1 27/6/1 28/5/1
f 29/19/1 30/17/1 31/5/1 32/9/1
f 33/20/1 34/19/1 35/9/1 36/11/1
f 37/21/1 38/20/1 39/11/1 40/13/1
f 41/22/1 42/23/1 43/16/1 44/15/1
f 45/24/1 46/25/1 47/18/1 48/17/1
f 49/26/1 50/24/1 51/17/1 52/19/1
f 53/27/1 54/26/1 55/19/1 56/20/1
f 57/28/1 58/27/1 59/20/1 60/21/1
f 61/29/1 62/1/1 63/4/1 64/30/1
f 65/31/1 66/29/1 67/30/1 68/32/1
f 69/6/1 70/31/1 71/32/1 72/7/1
f 73/13/1 74/11/1 75/12/1 76/14/1
f 77/33/1 78/34/1 79/23/1 80/22/1
f 81/35/1 82/36/1 83/25/1 84/24/1
f 85/37/1 86/35/1 87/24/1 88/26/1
f 89/38/1 90/37/1 91/26/1 92/27/1
f 93/39/1 94/38/1 95/27/1 96/28/1
f 97/40/1 98/15/1 99/1/1 100/29/1
f 101/41/1 102/40/1 103/29/1 104/31/1
f 105/18/1 106/41/1 107/31/1 108/6/1
f 109/21/1 110/20/1 111/11/1 112/13/1
f 113/42/1 114/22/1 115/15/1 116/40/1
f 117/43/1 118/42/1 119/40/1 120/41/1
f 121/25/1 122/43/1 123/41/1 124/18/1
f 125/28/1 126/27/1 127/20/1 128/21/1
f 129/44/1 130/33/1 131/22/1 132/42/1
f 133/45/1 134/44/1 135/42/1 136/43/1
f 137/36/1 138/45/1 139/43/1 140/25/1
f 141/39/1 142/38/1 143/27/1 144/28/1
f 145/1/1 146/2/1 147/3/1 148/4/1
f 149/29/1 150/1/1 151/4/1 152/30/1
f 153/31/1 154/29/1 155/30/1 156/32/1
f 157/6/1 158/31/1 159/32/1 160/7/1
f 161/13/1 162/11/1 163/12/1 164/14/1
f 165/15/1 166/16/1 167/2/1 168/1/1
f 169/40/1 170/15/1 171/1/1 172/29/1
f 173/41/1 174/40/1 175/29/1 176/31/1
f 177/18/1 178/41/1 179/31/1 180/6/1
f 181/21/1 182/20/1 183/11/1 184/13/1
f 185/22/1 186/23/1 187/16/1 188/15/1
f 189/42/1 190/22/1 191/15/1 192/40/1
f 193/43/1 194/42/1 195/40/1 196/41/1
f 197/25/1 198/43/1 199/41/1 200/18/1
f 201/28/1 202/27/1 203/20/1 204/21/1
f 205/33/1 206/34/1 207/23/1 208/22/1
f 209/44/1 210/33/1 211/22/1 212/42/1
f 213/45/1 214/44/1 215/42/1 216/43/1
f 217/36/1 218/45/1 219/43/1 220/25/1
f 221/39/1 222/38/1 223/27/1 224/28/1
f 225/5/1 226/6/1 227/7/1 228/8/1
f 229/9/1 230/5/1 231/8/1 232/10/1
f 233/11/1 234/9/1 235/10/1 236/12/1
f 237/13/1 238/11/1 239/12/1 240/14/1
f 241/17/1 242/18/1 243/6/1 244/5/1
f 245/19/1 246/17/1 247/5/1 248/9/1
f 249/20/1 250/19/1 251/9/1 252/11/1
f 253/21/1 254/20/1 255/11/1 256/13/1
f 257/24/1 258/25/1 259/18/1 260/17/1
f 261/26/1 262/24/1 263/17/1 264/19/1
f 265/27/1 266/26/1 267/19/1 268/20/1
f 269/28/1 270/27/1 271/20/1 272/21/1
f 273/35/1 274/36/1 275/25/1 276/24/1
f 277/37/1 278/35/1 279/24/1 280/26/1
f 281/38/1 282/37/1 283/26/1 284/27/1
f 285/39/1 286/38/1 287/27/1 288/28/1
f 289/11/1 290/9/1 291/10/1 292/12/1
f 293/13/1 294/11/1 295/12/1 296/14/1
f 297/20/1 298/19/1 299/9/1 300/11/1
f 301/21/1 302/20/1 303/11/1 304/13/1
f 305/27/1 306/26/1 307/19/1 308/20/1
f 309/28/1 310/27/1 311/20/1 312/21/1
f 313/38/1 314/37/1 315/26/1 316/27/1
f 317/39/1 318/38/1 319/27/1 320/28/1
f 321/6/1 322/31/1 323/32/1 324/7/1
f 325/13/1 326/11/1 327/12/1 328/14/1
f 329/1/1 330/2/1 331/3/1 332/4/1
f 333/29/1 334/1/1 335/4/1 336/30/1
f 337/31/1 338/29/1 339/30/1 340/32/1
f 341/6/1 342/31/1 343/32/1 344/7/1
f 345/13/1 346/11/1 347/12/1 348/14/1
f 349/18/1 350/41/1 351/31/1 352/6/1
f 353/21/1 354/20/1 355/11/1 356/13/1
f 357/15/1 358/16/1 359/2/1 360/1/1
f 361/40/1 362/15/1 363/1/1 364/29/1
f 365/41/1 366/40/1 367/29/1 368/31/1
f 369/18/1 370/41/1 371/31/1 372/6/1
f 373/21/1 374/20/1 375/11/1 376/13/1
f 377/25/1 378/43/1 379/41/1 380/18/1
f 381/28/1 382/27/1 383/20/1 384/21/1
f 385/22/1 386/23/1 387/16/1 388/15/1
f 389/42/1 390/22/1 391/15/1 392/40/1
f 393/43/1 394/42/1 395/40/1 396/41/1
f 397/25/1 398/43/1 399/41/1 400/18/1
f 401/28/1 402/27/1 403/20/1 404/21/1
f 405/36/1 406/45/1 407/43/1 408/25/1
f 409/39/1 410/38/1 411/27/1 412/28/1
f 413/33/1 414/34/1 415/23/1 416/22/1
f 417/44/1 418/33/1 419/22/1 420/42/1
f 421/45/1 422/44/1 423/42/1 424/43/1
f 425/36/1 426/45/1 427/43/1 428/25/1
f 429/39/1 430/38/1 431/27/1 432/28/1

