# Tiled2Unity generated file. Do not modify by hand.
# Wavefront file for 'field_mesh_0016.obj'

# Vertices (Count = 448)
v -1184 -64 0
v -1200 -64 0
v -1200 -48 0
v -1184 -48 0
v -1168 -64 0
v -1184 -64 0
v -1184 -48 0
v -1168 -48 0
v -1152 -64 0
v -1168 -64 0
v -1168 -48 0
v -1152 -48 0
v -1136 -64 0
v -1152 -64 0
v -1152 -48 0
v -1136 -48 0
v -1184 -80 0
v -1200 -80 0
v -1200 -64 0
v -1184 -64 0
v -1168 -80 0
v -1184 -80 0
v -1184 -64 0
v -1168 -64 0
v -1152 -80 0
v -1168 -80 0
v -1168 -64 0
v -1152 -64 0
v -1136 -80 0
v -1152 -80 0
v -1152 -64 0
v -1136 -64 0
v -1184 -96 0
v -1200 -96 0
v -1200 -80 0
v -1184 -80 0
v -1168 -96 0
v -1184 -96 0
v -1184 -80 0
v -1168 -80 0
v -1152 -96 0
v -1168 -96 0
v -1168 -80 0
v -1152 -80 0
v -1136 -96 0
v -1152 -96 0
v -1152 -80 0
v -1136 -80 0
v -1184 -112 0
v -1200 -112 0
v -1200 -96 0
v -1184 -96 0
v -1168 -112 0
v -1184 -112 0
v -1184 -96 0
v -1168 -96 0
v -1152 -112 0
v -1168 -112 0
v -1168 -96 0
v -1152 -96 0
v -1136 -112 0
v -1152 -112 0
v -1152 -96 0
v -1136 -96 0
v -432 -112 0
v -448 -112 0
v -448 -96 0
v -432 -96 0
v -416 -112 0
v -432 -112 0
v -432 -96 0
v -416 -96 0
v -400 -112 0
v -416 -112 0
v -416 -96 0
v -400 -96 0
v -384 -112 0
v -400 -112 0
v -400 -96 0
v -384 -96 0
v -368 -112 0
v -384 -112 0
v -384 -96 0
v -368 -96 0
v -432 -128 0
v -448 -128 0
v -448 -112 0
v -432 -112 0
v -416 -128 0
v -432 -128 0
v -432 -112 0
v -416 -112 0
v -400 -128 0
v -416 -128 0
v -416 -112 0
v -400 -112 0
v -384 -128 0
v -400 -128 0
v -400 -112 0
v -384 -112 0
v -368 -128 0
v -384 -128 0
v -384 -112 0
v -368 -112 0
v -432 -144 0
v -448 -144 0
v -448 -128 0
v -432 -128 0
v -416 -144 0
v -432 -144 0
v -432 -128 0
v -416 -128 0
v -400 -144 0
v -416 -144 0
v -416 -128 0
v -400 -128 0
v -384 -144 0
v -400 -144 0
v -400 -128 0
v -384 -128 0
v -368 -144 0
v -384 -144 0
v -384 -128 0
v -368 -128 0
v -432 -160 0
v -448 -160 0
v -448 -144 0
v -432 -144 0
v -416 -160 0
v -432 -160 0
v -432 -144 0
v -416 -144 0
v -400 -160 0
v -416 -160 0
v -416 -144 0
v -400 -144 0
v -384 -160 0
v -400 -160 0
v -400 -144 0
v -384 -144 0
v -368 -160 0
v -384 -160 0
v -384 -144 0
v -368 -144 0
v -1104 -176 0
v -1120 -176 0
v -1120 -160 0
v -1104 -160 0
v -1088 -176 0
v -1104 -176 0
v -1104 -160 0
v -1088 -160 0
v -1072 -176 0
v -1088 -176 0
v -1088 -160 0
v -1072 -160 0
v -1056 -176 0
v -1072 -176 0
v -1072 -160 0
v -1056 -160 0
v -1040 -176 0
v -1056 -176 0
v -1056 -160 0
v -1040 -160 0
v -1104 -192 0
v -1120 -192 0
v -1120 -176 0
v -1104 -176 0
v -1088 -192 0
v -1104 -192 0
v -1104 -176 0
v -1088 -176 0
v -1072 -192 0
v -1088 -192 0
v -1088 -176 0
v -1072 -176 0
v -1056 -192 0
v -1072 -192 0
v -1072 -176 0
v -1056 -176 0
v -1040 -192 0
v -1056 -192 0
v -1056 -176 0
v -1040 -176 0
v -1104 -208 0
v -1120 -208 0
v -1120 -192 0
v -1104 -192 0
v -1088 -208 0
v -1104 -208 0
v -1104 -192 0
v -1088 -192 0
v -1072 -208 0
v -1088 -208 0
v -1088 -192 0
v -1072 -192 0
v -1056 -208 0
v -1072 -208 0
v -1072 -192 0
v -1056 -192 0
v -1040 -208 0
v -1056 -208 0
v -1056 -192 0
v -1040 -192 0
v -1104 -224 0
v -1120 -224 0
v -1120 -208 0
v -1104 -208 0
v -1088 -224 0
v -1104 -224 0
v -1104 -208 0
v -1088 -208 0
v -1072 -224 0
v -1088 -224 0
v -1088 -208 0
v -1072 -208 0
v -1056 -224 0
v -1072 -224 0
v -1072 -208 0
v -1056 -208 0
v -1040 -224 0
v -1056 -224 0
v -1056 -208 0
v -1040 -208 0
v -336 -304 0
v -352 -304 0
v -352 -288 0
v -336 -288 0
v -320 -304 0
v -336 -304 0
v -336 -288 0
v -320 -288 0
v -304 -304 0
v -320 -304 0
v -320 -288 0
v -304 -288 0
v -288 -304 0
v -304 -304 0
v -304 -288 0
v -288 -288 0
v -272 -304 0
v -288 -304 0
v -288 -288 0
v -272 -288 0
v -336 -320 0
v -352 -320 0
v -352 -304 0
v -336 -304 0
v -320 -320 0
v -336 -320 0
v -336 -304 0
v -320 -304 0
v -304 -320 0
v -320 -320 0
v -320 -304 0
v -304 -304 0
v -288 -320 0
v -304 -320 0
v -304 -304 0
v -288 -304 0
v -272 -320 0
v -288 -320 0
v -288 -304 0
v -272 -304 0
v -336 -336 0
v -352 -336 0
v -352 -320 0
v -336 -320 0
v -320 -336 0
v -336 -336 0
v -336 -320 0
v -320 -320 0
v -304 -336 0
v -320 -336 0
v -320 -320 0
v -304 -320 0
v -288 -336 0
v -304 -336 0
v -304 -320 0
v -288 -320 0
v -272 -336 0
v -288 -336 0
v -288 -320 0
v -272 -320 0
v -336 -352 0
v -352 -352 0
v -352 -336 0
v -336 -336 0
v -320 -352 0
v -336 -352 0
v -336 -336 0
v -320 -336 0
v -304 -352 0
v -320 -352 0
v -320 -336 0
v -304 -336 0
v -288 -352 0
v -304 -352 0
v -304 -336 0
v -288 -336 0
v -272 -352 0
v -288 -352 0
v -288 -336 0
v -272 -336 0
v -1184 -416 0
v -1200 -416 0
v -1200 -400 0
v -1184 -400 0
v -1168 -416 0
v -1184 -416 0
v -1184 -400 0
v -1168 -400 0
v -1184 -432 0
v -1200 -432 0
v -1200 -416 0
v -1184 -416 0
v -1168 -432 0
v -1184 -432 0
v -1184 -416 0
v -1168 -416 0
v -1184 -448 0
v -1200 -448 0
v -1200 -432 0
v -1184 -432 0
v -1168 -448 0
v -1184 -448 0
v -1184 -432 0
v -1168 -432 0
v -208 -448 0
v -224 -448 0
v -224 -432 0
v -208 -432 0
v -192 -448 0
v -208 -448 0
v -208 -432 0
v -192 -432 0
v -176 -448 0
v -192 -448 0
v -192 -432 0
v -176 -432 0
v -160 -448 0
v -176 -448 0
v -176 -432 0
v -160 -432 0
v -144 -448 0
v -160 -448 0
v -160 -432 0
v -144 -432 0
v -1184 -464 0
v -1200 -464 0
v -1200 -448 0
v -1184 -448 0
v -1168 -464 0
v -1184 -464 0
v -1184 -448 0
v -1168 -448 0
v -208 -464 0
v -224 -464 0
v -224 -448 0
v -208 -448 0
v -192 -464 0
v -208 -464 0
v -208 -448 0
v -192 -448 0
v -176 -464 0
v -192 -464 0
v -192 -448 0
v -176 -448 0
v -160 -464 0
v -176 -464 0
v -176 -448 0
v -160 -448 0
v -144 -464 0
v -160 -464 0
v -160 -448 0
v -144 -448 0
v -208 -480 0
v -224 -480 0
v -224 -464 0
v -208 -464 0
v -192 -480 0
v -208 -480 0
v -208 -464 0
v -192 -464 0
v -176 -480 0
v -192 -480 0
v -192 -464 0
v -176 -464 0
v -160 -480 0
v -176 -480 0
v -176 -464 0
v -160 -464 0
v -144 -480 0
v -160 -480 0
v -160 -464 0
v -144 -464 0
v -208 -496 0
v -224 -496 0
v -224 -480 0
v -208 -480 0
v -192 -496 0
v -208 -496 0
v -208 -480 0
v -192 -480 0
v -176 -496 0
v -192 -496 0
v -192 -480 0
v -176 -480 0
v -160 -496 0
v -176 -496 0
v -176 -480 0
v -160 -480 0
v -144 -496 0
v -160 -496 0
v -160 -480 0
v -144 -480 0
v -1184 -1024 0
v -1200 -1024 0
v -1200 -1008 0
v -1184 -1008 0
v -1168 -1024 0
v -1184 -1024 0
v -1184 -1008 0
v -1168 -1008 0
v -1184 -1040 0
v -1200 -1040 0
v -1200 -1024 0
v -1184 -1024 0
v -1168 -1040 0
v -1184 -1040 0
v -1184 -1024 0
v -1168 -1024 0
v -1184 -1056 0
v -1200 -1056 0
v -1200 -1040 0
v -1184 -1040 0
v -1168 -1056 0
v -1184 -1056 0
v -1184 -1040 0
v -1168 -1040 0
v -1184 -1072 0
v -1200 -1072 0
v -1200 -1056 0
v -1184 -1056 0
v -1168 -1072 0
v -1184 -1072 0
v -1184 -1056 0
v -1168 -1056 0

# Texture cooridinates (Count = 45)
vt 0.75 0.8024194
vt 0.875 0.8024194
vt 0.875 0.8064516
vt 0.75 0.8064516
vt 0.625 0.8024194
vt 0.625 0.8064516
vt 0.5 0.8024194
vt 0.5 0.8064516
vt 0 0.8024194
vt 0.125 0.8024194
vt 0.125 0.8064516
vt 0 0.8064516
vt 0.75 0.7983871
vt 0.875 0.7983871
vt 0.625 0.7983871
vt 0.5 0.7983871
vt 0 0.7983871
vt 0.125 0.7983871
vt 0.75 0.7943549
vt 0.875 0.7943549
vt 0.625 0.7943549
vt 0.5 0.7943549
vt 0 0.7943549
vt 0.125 0.7943549
vt 0.75 0.7903226
vt 0.875 0.7903226
vt 0.625 0.7903226
vt 0.5 0.7903226
vt 0 0.7903226
vt 0.125 0.7903226
vt 1 0.8024194
vt 1 0.8064516
vt 0.375 0.8024194
vt 0.375 0.8064516
vt 0.25 0.8024194
vt 0.25 0.8064516
vt 1 0.7983871
vt 0.375 0.7983871
vt 0.25 0.7983871
vt 1 0.7943549
vt 0.375 0.7943549
vt 0.25 0.7943549
vt 1 0.7903226
vt 0.375 0.7903226
vt 0.25 0.7903226

# Normal
vn 0 0 -1

# Mesh description
g field_mesh_0016

# Faces
f 1/1/1 2/2/1 3/3/1 4/4/1
f 5/5/1 6/1/1 7/4/1 8/6/1
f 9/7/1 10/5/1 11/6/1 12/8/1
f 13/9/1 14/10/1 15/11/1 16/12/1
f 17/13/1 18/14/1 19/2/1 20/1/1
f 21/15/1 22/13/1 23/1/1 24/5/1
f 25/16/1 26/15/1 27/5/1 28/7/1
f 29/17/1 30/18/1 31/10/1 32/9/1
f 33/19/1 34/20/1 35/14/1 36/13/1
f 37/21/1 38/19/1 39/13/1 40/15/1
f 41/22/1 42/21/1 43/15/1 44/16/1
f 45/23/1 46/24/1 47/18/1 48/17/1
f 49/25/1 50/26/1 51/20/1 52/19/1
f 53/27/1 54/25/1 55/19/1 56/21/1
f 57/28/1 58/27/1 59/21/1 60/22/1
f 61/29/1 62/30/1 63/24/1 64/23/1
f 65/2/1 66/31/1 67/32/1 68/3/1
f 69/33/1 70/7/1 71/8/1 72/34/1
f 73/35/1 74/33/1 75/34/1 76/36/1
f 77/10/1 78/35/1 79/36/1 80/11/1
f 81/9/1 82/10/1 83/11/1 84/12/1
f 85/14/1 86/37/1 87/31/1 88/2/1
f 89/38/1 90/16/1 91/7/1 92/33/1
f 93/39/1 94/38/1 95/33/1 96/35/1
f 97/18/1 98/39/1 99/35/1 100/10/1
f 101/17/1 102/18/1 103/10/1 104/9/1
f 105/20/1 106/40/1 107/37/1 108/14/1
f 109/41/1 110/22/1 111/16/1 112/38/1
f 113/42/1 114/41/1 115/38/1 116/39/1
f 117/24/1 118/42/1 119/39/1 120/18/1
f 121/23/1 122/24/1 123/18/1 124/17/1
f 125/26/1 126/43/1 127/40/1 128/20/1
f 129/44/1 130/28/1 131/22/1 132/41/1
f 133/45/1 134/44/1 135/41/1 136/42/1
f 137/30/1 138/45/1 139/42/1 140/24/1
f 141/29/1 142/30/1 143/24/1 144/23/1
f 145/2/1 146/31/1 147/32/1 148/3/1
f 149/1/1 150/2/1 151/3/1 152/4/1
f 153/5/1 154/1/1 155/4/1 156/6/1
f 157/7/1 158/5/1 159/6/1 160/8/1
f 161/9/1 162/10/1 163/11/1 164/12/1
f 165/14/1 166/37/1 167/31/1 168/2/1
f 169/13/1 170/14/1 171/2/1 172/1/1
f 173/15/1 174/13/1 175/1/1 176/5/1
f 177/16/1 178/15/1 179/5/1 180/7/1
f 181/17/1 182/18/1 183/10/1 184/9/1
f 185/20/1 186/40/1 187/37/1 188/14/1
f 189/19/1 190/20/1 191/14/1 192/13/1
f 193/21/1 194/19/1 195/13/1 196/15/1
f 197/22/1 198/21/1 199/15/1 200/16/1
f 201/23/1 202/24/1 203/18/1 204/17/1
f 205/26/1 206/43/1 207/40/1 208/20/1
f 209/25/1 210/26/1 211/20/1 212/19/1
f 213/27/1 214/25/1 215/19/1 216/21/1
f 217/28/1 218/27/1 219/21/1 220/22/1
f 221/29/1 222/30/1 223/24/1 224/23/1
f 225/2/1 226/31/1 227/32/1 228/3/1
f 229/33/1 230/7/1 231/8/1 232/34/1
f 233/35/1 234/33/1 235/34/1 236/36/1
f 237/10/1 238/35/1 239/36/1 240/11/1
f 241/9/1 242/10/1 243/11/1 244/12/1
f 245/14/1 246/37/1 247/31/1 248/2/1
f 249/38/1 250/16/1 251/7/1 252/33/1
f 253/39/1 254/38/1 255/33/1 256/35/1
f 257/18/1 258/39/1 259/35/1 260/10/1
f 261/17/1 262/18/1 263/10/1 264/9/1
f 265/20/1 266/40/1 267/37/1 268/14/1
f 269/41/1 270/22/1 271/16/1 272/38/1
f 273/42/1 274/41/1 275/38/1 276/39/1
f 277/24/1 278/42/1 279/39/1 280/18/1
f 281/23/1 282/24/1 283/18/1 284/17/1
f 285/26/1 286/43/1 287/40/1 288/20/1
f 289/44/1 290/28/1 291/22/1 292/41/1
f 293/45/1 294/44/1 295/41/1 296/42/1
f 297/30/1 298/45/1 299/42/1 300/24/1
f 301/29/1 302/30/1 303/24/1 304/23/1
f 305/10/1 306/35/1 307/36/1 308/11/1
f 309/9/1 310/10/1 311/11/1 312/12/1
f 313/18/1 314/39/1 315/35/1 316/10/1
f 317/17/1 318/18/1 319/10/1 320/9/1
f 321/24/1 322/42/1 323/39/1 324/18/1
f 325/23/1 326/24/1 327/18/1 328/17/1
f 329/2/1 330/31/1 331/32/1 332/3/1
f 333/1/1 334/2/1 335/3/1 336/4/1
f 337/5/1 338/1/1 339/4/1 340/6/1
f 341/7/1 342/5/1 343/6/1 344/8/1
f 345/9/1 346/10/1 347/11/1 348/12/1
f 349/30/1 350/45/1 351/42/1 352/24/1
f 353/29/1 354/30/1 355/24/1 356/23/1
f 357/14/1 358/37/1 359/31/1 360/2/1
f 361/13/1 362/14/1 363/2/1 364/1/1
f 365/15/1 366/13/1 367/1/1 368/5/1
f 369/16/1 370/15/1 371/5/1 372/7/1
f 373/17/1 374/18/1 375/10/1 376/9/1
f 377/20/1 378/40/1 379/37/1 380/14/1
f 381/19/1 382/20/1 383/14/1 384/13/1
f 385/21/1 386/19/1 387/13/1 388/15/1
f 389/22/1 390/21/1 391/15/1 392/16/1
f 393/23/1 394/24/1 395/18/1 396/17/1
f 397/26/1 398/43/1 399/40/1 400/20/1
f 401/25/1 402/26/1 403/20/1 404/19/1
f 405/27/1 406/25/1 407/19/1 408/21/1
f 409/28/1 410/27/1 411/21/1 412/22/1
f 413/29/1 414/30/1 415/24/1 416/23/1
f 417/7/1 418/5/1 419/6/1 420/8/1
f 421/9/1 422/10/1 423/11/1 424/12/1
f 425/16/1 426/15/1 427/5/1 428/7/1
f 429/17/1 430/18/1 431/10/1 432/9/1
f 433/22/1 434/21/1 435/15/1 436/16/1
f 437/23/1 438/24/1 439/18/1 440/17/1
f 441/28/1 442/27/1 443/21/1 444/22/1
f 445/29/1 446/30/1 447/24/1 448/23/1

