# Tiled2Unity generated file. Do not modify by hand.
# Wavefront file for 'field_mesh_0026.obj'

# Vertices (Count = 528)
v -432 -112 0
v -448 -112 0
v -448 -96 0
v -432 -96 0
v -416 -112 0
v -432 -112 0
v -432 -96 0
v -416 -96 0
v -400 -112 0
v -416 -112 0
v -416 -96 0
v -400 -96 0
v -384 -112 0
v -400 -112 0
v -400 -96 0
v -384 -96 0
v -368 -112 0
v -384 -112 0
v -384 -96 0
v -368 -96 0
v -432 -128 0
v -448 -128 0
v -448 -112 0
v -432 -112 0
v -416 -128 0
v -432 -128 0
v -432 -112 0
v -416 -112 0
v -400 -128 0
v -416 -128 0
v -416 -112 0
v -400 -112 0
v -384 -128 0
v -400 -128 0
v -400 -112 0
v -384 -112 0
v -368 -128 0
v -384 -128 0
v -384 -112 0
v -368 -112 0
v -432 -144 0
v -448 -144 0
v -448 -128 0
v -432 -128 0
v -416 -144 0
v -432 -144 0
v -432 -128 0
v -416 -128 0
v -400 -144 0
v -416 -144 0
v -416 -128 0
v -400 -128 0
v -384 -144 0
v -400 -144 0
v -400 -128 0
v -384 -128 0
v -368 -144 0
v -384 -144 0
v -384 -128 0
v -368 -128 0
v -1184 -160 0
v -1200 -160 0
v -1200 -144 0
v -1184 -144 0
v -1168 -160 0
v -1184 -160 0
v -1184 -144 0
v -1168 -144 0
v -1152 -160 0
v -1168 -160 0
v -1168 -144 0
v -1152 -144 0
v -1136 -160 0
v -1152 -160 0
v -1152 -144 0
v -1136 -144 0
v -432 -160 0
v -448 -160 0
v -448 -144 0
v -432 -144 0
v -416 -160 0
v -432 -160 0
v -432 -144 0
v -416 -144 0
v -400 -160 0
v -416 -160 0
v -416 -144 0
v -400 -144 0
v -384 -160 0
v -400 -160 0
v -400 -144 0
v -384 -144 0
v -368 -160 0
v -384 -160 0
v -384 -144 0
v -368 -144 0
v -1184 -176 0
v -1200 -176 0
v -1200 -160 0
v -1184 -160 0
v -1168 -176 0
v -1184 -176 0
v -1184 -160 0
v -1168 -160 0
v -1152 -176 0
v -1168 -176 0
v -1168 -160 0
v -1152 -160 0
v -1136 -176 0
v -1152 -176 0
v -1152 -160 0
v -1136 -160 0
v -1104 -176 0
v -1120 -176 0
v -1120 -160 0
v -1104 -160 0
v -1088 -176 0
v -1104 -176 0
v -1104 -160 0
v -1088 -160 0
v -1072 -176 0
v -1088 -176 0
v -1088 -160 0
v -1072 -160 0
v -1056 -176 0
v -1072 -176 0
v -1072 -160 0
v -1056 -160 0
v -1040 -176 0
v -1056 -176 0
v -1056 -160 0
v -1040 -160 0
v -1184 -192 0
v -1200 -192 0
v -1200 -176 0
v -1184 -176 0
v -1168 -192 0
v -1184 -192 0
v -1184 -176 0
v -1168 -176 0
v -1152 -192 0
v -1168 -192 0
v -1168 -176 0
v -1152 -176 0
v -1136 -192 0
v -1152 -192 0
v -1152 -176 0
v -1136 -176 0
v -1104 -192 0
v -1120 -192 0
v -1120 -176 0
v -1104 -176 0
v -1088 -192 0
v -1104 -192 0
v -1104 -176 0
v -1088 -176 0
v -1072 -192 0
v -1088 -192 0
v -1088 -176 0
v -1072 -176 0
v -1056 -192 0
v -1072 -192 0
v -1072 -176 0
v -1056 -176 0
v -1040 -192 0
v -1056 -192 0
v -1056 -176 0
v -1040 -176 0
v -1184 -208 0
v -1200 -208 0
v -1200 -192 0
v -1184 -192 0
v -1168 -208 0
v -1184 -208 0
v -1184 -192 0
v -1168 -192 0
v -1152 -208 0
v -1168 -208 0
v -1168 -192 0
v -1152 -192 0
v -1136 -208 0
v -1152 -208 0
v -1152 -192 0
v -1136 -192 0
v -1104 -208 0
v -1120 -208 0
v -1120 -192 0
v -1104 -192 0
v -1088 -208 0
v -1104 -208 0
v -1104 -192 0
v -1088 -192 0
v -1072 -208 0
v -1088 -208 0
v -1088 -192 0
v -1072 -192 0
v -1056 -208 0
v -1072 -208 0
v -1072 -192 0
v -1056 -192 0
v -1040 -208 0
v -1056 -208 0
v -1056 -192 0
v -1040 -192 0
v -1104 -224 0
v -1120 -224 0
v -1120 -208 0
v -1104 -208 0
v -1088 -224 0
v -1104 -224 0
v -1104 -208 0
v -1088 -208 0
v -1072 -224 0
v -1088 -224 0
v -1088 -208 0
v -1072 -208 0
v -1056 -224 0
v -1072 -224 0
v -1072 -208 0
v -1056 -208 0
v -1040 -224 0
v -1056 -224 0
v -1056 -208 0
v -1040 -208 0
v -336 -304 0
v -352 -304 0
v -352 -288 0
v -336 -288 0
v -320 -304 0
v -336 -304 0
v -336 -288 0
v -320 -288 0
v -304 -304 0
v -320 -304 0
v -320 -288 0
v -304 -288 0
v -288 -304 0
v -304 -304 0
v -304 -288 0
v -288 -288 0
v -272 -304 0
v -288 -304 0
v -288 -288 0
v -272 -288 0
v -336 -320 0
v -352 -320 0
v -352 -304 0
v -336 -304 0
v -320 -320 0
v -336 -320 0
v -336 -304 0
v -320 -304 0
v -304 -320 0
v -320 -320 0
v -320 -304 0
v -304 -304 0
v -288 -320 0
v -304 -320 0
v -304 -304 0
v -288 -304 0
v -272 -320 0
v -288 -320 0
v -288 -304 0
v -272 -304 0
v -336 -336 0
v -352 -336 0
v -352 -320 0
v -336 -320 0
v -320 -336 0
v -336 -336 0
v -336 -320 0
v -320 -320 0
v -304 -336 0
v -320 -336 0
v -320 -320 0
v -304 -320 0
v -288 -336 0
v -304 -336 0
v -304 -320 0
v -288 -320 0
v -272 -336 0
v -288 -336 0
v -288 -320 0
v -272 -320 0
v -336 -352 0
v -352 -352 0
v -352 -336 0
v -336 -336 0
v -320 -352 0
v -336 -352 0
v -336 -336 0
v -320 -336 0
v -304 -352 0
v -320 -352 0
v -320 -336 0
v -304 -336 0
v -288 -352 0
v -304 -352 0
v -304 -336 0
v -288 -336 0
v -272 -352 0
v -288 -352 0
v -288 -336 0
v -272 -336 0
v -1184 -416 0
v -1200 -416 0
v -1200 -400 0
v -1184 -400 0
v -1168 -416 0
v -1184 -416 0
v -1184 -400 0
v -1168 -400 0
v -1184 -432 0
v -1200 -432 0
v -1200 -416 0
v -1184 -416 0
v -1168 -432 0
v -1184 -432 0
v -1184 -416 0
v -1168 -416 0
v -1184 -448 0
v -1200 -448 0
v -1200 -432 0
v -1184 -432 0
v -1168 -448 0
v -1184 -448 0
v -1184 -432 0
v -1168 -432 0
v -208 -448 0
v -224 -448 0
v -224 -432 0
v -208 -432 0
v -192 -448 0
v -208 -448 0
v -208 -432 0
v -192 -432 0
v -176 -448 0
v -192 -448 0
v -192 -432 0
v -176 -432 0
v -160 -448 0
v -176 -448 0
v -176 -432 0
v -160 -432 0
v -144 -448 0
v -160 -448 0
v -160 -432 0
v -144 -432 0
v -1184 -464 0
v -1200 -464 0
v -1200 -448 0
v -1184 -448 0
v -1168 -464 0
v -1184 -464 0
v -1184 -448 0
v -1168 -448 0
v -208 -464 0
v -224 -464 0
v -224 -448 0
v -208 -448 0
v -192 -464 0
v -208 -464 0
v -208 -448 0
v -192 -448 0
v -176 -464 0
v -192 -464 0
v -192 -448 0
v -176 -448 0
v -160 -464 0
v -176 -464 0
v -176 -448 0
v -160 -448 0
v -144 -464 0
v -160 -464 0
v -160 -448 0
v -144 -448 0
v -208 -480 0
v -224 -480 0
v -224 -464 0
v -208 -464 0
v -192 -480 0
v -208 -480 0
v -208 -464 0
v -192 -464 0
v -176 -480 0
v -192 -480 0
v -192 -464 0
v -176 -464 0
v -160 -480 0
v -176 -480 0
v -176 -464 0
v -160 -464 0
v -144 -480 0
v -160 -480 0
v -160 -464 0
v -144 -464 0
v -208 -496 0
v -224 -496 0
v -224 -480 0
v -208 -480 0
v -192 -496 0
v -208 -496 0
v -208 -480 0
v -192 -480 0
v -176 -496 0
v -192 -496 0
v -192 -480 0
v -176 -480 0
v -160 -496 0
v -176 -496 0
v -176 -480 0
v -160 -480 0
v -144 -496 0
v -160 -496 0
v -160 -480 0
v -144 -480 0
v -1184 -1024 0
v -1200 -1024 0
v -1200 -1008 0
v -1184 -1008 0
v -1168 -1024 0
v -1184 -1024 0
v -1184 -1008 0
v -1168 -1008 0
v -528 -1024 0
v -544 -1024 0
v -544 -1008 0
v -528 -1008 0
v -512 -1024 0
v -528 -1024 0
v -528 -1008 0
v -512 -1008 0
v -496 -1024 0
v -512 -1024 0
v -512 -1008 0
v -496 -1008 0
v -480 -1024 0
v -496 -1024 0
v -496 -1008 0
v -480 -1008 0
v -464 -1024 0
v -480 -1024 0
v -480 -1008 0
v -464 -1008 0
v -1184 -1040 0
v -1200 -1040 0
v -1200 -1024 0
v -1184 -1024 0
v -1168 -1040 0
v -1184 -1040 0
v -1184 -1024 0
v -1168 -1024 0
v -528 -1040 0
v -544 -1040 0
v -544 -1024 0
v -528 -1024 0
v -512 -1040 0
v -528 -1040 0
v -528 -1024 0
v -512 -1024 0
v -496 -1040 0
v -512 -1040 0
v -512 -1024 0
v -496 -1024 0
v -480 -1040 0
v -496 -1040 0
v -496 -1024 0
v -480 -1024 0
v -464 -1040 0
v -480 -1040 0
v -480 -1024 0
v -464 -1024 0
v -1184 -1056 0
v -1200 -1056 0
v -1200 -1040 0
v -1184 -1040 0
v -1168 -1056 0
v -1184 -1056 0
v -1184 -1040 0
v -1168 -1040 0
v -528 -1056 0
v -544 -1056 0
v -544 -1040 0
v -528 -1040 0
v -512 -1056 0
v -528 -1056 0
v -528 -1040 0
v -512 -1040 0
v -496 -1056 0
v -512 -1056 0
v -512 -1040 0
v -496 -1040 0
v -480 -1056 0
v -496 -1056 0
v -496 -1040 0
v -480 -1040 0
v -464 -1056 0
v -480 -1056 0
v -480 -1040 0
v -464 -1040 0
v -1184 -1072 0
v -1200 -1072 0
v -1200 -1056 0
v -1184 -1056 0
v -1168 -1072 0
v -1184 -1072 0
v -1184 -1056 0
v -1168 -1056 0
v -528 -1072 0
v -544 -1072 0
v -544 -1056 0
v -528 -1056 0
v -512 -1072 0
v -528 -1072 0
v -528 -1056 0
v -512 -1056 0
v -496 -1072 0
v -512 -1072 0
v -512 -1056 0
v -496 -1056 0
v -480 -1072 0
v -496 -1072 0
v -496 -1056 0
v -480 -1056 0
v -464 -1072 0
v -480 -1072 0
v -480 -1056 0
v -464 -1056 0

# Texture cooridinates (Count = 45)
vt 0.875 0.8024194
vt 1 0.8024194
vt 1 0.8064516
vt 0.875 0.8064516
vt 0.375 0.8024194
vt 0.5 0.8024194
vt 0.5 0.8064516
vt 0.375 0.8064516
vt 0.25 0.8024194
vt 0.25 0.8064516
vt 0.125 0.8024194
vt 0.125 0.8064516
vt 0 0.8024194
vt 0 0.8064516
vt 0.875 0.7983871
vt 1 0.7983871
vt 0.375 0.7983871
vt 0.5 0.7983871
vt 0.25 0.7983871
vt 0.125 0.7983871
vt 0 0.7983871
vt 0.875 0.7943549
vt 1 0.7943549
vt 0.375 0.7943549
vt 0.5 0.7943549
vt 0.25 0.7943549
vt 0.125 0.7943549
vt 0 0.7943549
vt 0.75 0.8024194
vt 0.75 0.8064516
vt 0.625 0.8024194
vt 0.625 0.8064516
vt 0.875 0.7903226
vt 1 0.7903226
vt 0.375 0.7903226
vt 0.5 0.7903226
vt 0.25 0.7903226
vt 0.125 0.7903226
vt 0 0.7903226
vt 0.75 0.7983871
vt 0.625 0.7983871
vt 0.75 0.7943549
vt 0.625 0.7943549
vt 0.75 0.7903226
vt 0.625 0.7903226

# Normal
vn 0 0 -1

# Mesh description
g field_mesh_0026

# Faces
f 1/1/1 2/2/1 3/3/1 4/4/1
f 5/5/1 6/6/1 7/7/1 8/8/1
f 9/9/1 10/5/1 11/8/1 12/10/1
f 13/11/1 14/9/1 15/10/1 16/12/1
f 17/13/1 18/11/1 19/12/1 20/14/1
f 21/15/1 22/16/1 23/2/1 24/1/1
f 25/17/1 26/18/1 27/6/1 28/5/1
f 29/19/1 30/17/1 31/5/1 32/9/1
f 33/20/1 34/19/1 35/9/1 36/11/1
f 37/21/1 38/20/1 39/11/1 40/13/1
f 41/22/1 42/23/1 43/16/1 44/15/1
f 45/24/1 46/25/1 47/18/1 48/17/1
f 49/26/1 50/24/1 51/17/1 52/19/1
f 53/27/1 54/26/1 55/19/1 56/20/1
f 57/28/1 58/27/1 59/20/1 60/21/1
f 61/29/1 62/1/1 63/4/1 64/30/1
f 65/31/1 66/29/1 67/30/1 68/32/1
f 69/6/1 70/31/1 71/32/1 72/7/1
f 73/13/1 74/11/1 75/12/1 76/14/1
f 77/33/1 78/34/1 79/23/1 80/22/1
f 81/35/1 82/36/1 83/25/1 84/24/1
f 85/37/1 86/35/1 87/24/1 88/26/1
f 89/38/1 90/37/1 91/26/1 92/27/1
f 93/39/1 94/38/1 95/27/1 96/28/1
f 97/40/1 98/15/1 99/1/1 100/29/1
f 101/41/1 102/40/1 103/29/1 104/31/1
f 105/18/1 106/41/1 107/31/1 108/6/1
f 109/21/1 110/20/1 111/11/1 112/13/1
f 113/1/1 114/2/1 115/3/1 116/4/1
f 117/29/1 118/1/1 119/4/1 120/30/1
f 121/31/1 122/29/1 123/30/1 124/32/1
f 125/6/1 126/31/1 127/32/1 128/7/1
f 129/13/1 130/11/1 131/12/1 132/14/1
f 133/42/1 134/22/1 135/15/1 136/40/1
f 137/43/1 138/42/1 139/40/1 140/41/1
f 141/25/1 142/43/1 143/41/1 144/18/1
f 145/28/1 146/27/1 147/20/1 148/21/1
f 149/15/1 150/16/1 151/2/1 152/1/1
f 153/40/1 154/15/1 155/1/1 156/29/1
f 157/41/1 158/40/1 159/29/1 160/31/1
f 161/18/1 162/41/1 163/31/1 164/6/1
f 165/21/1 166/20/1 167/11/1 168/13/1
f 169/44/1 170/33/1 171/22/1 172/42/1
f 173/45/1 174/44/1 175/42/1 176/43/1
f 177/36/1 178/45/1 179/43/1 180/25/1
f 181/39/1 182/38/1 183/27/1 184/28/1
f 185/22/1 186/23/1 187/16/1 188/15/1
f 189/42/1 190/22/1 191/15/1 192/40/1
f 193/43/1 194/42/1 195/40/1 196/41/1
f 197/25/1 198/43/1 199/41/1 200/18/1
f 201/28/1 202/27/1 203/20/1 204/21/1
f 205/33/1 206/34/1 207/23/1 208/22/1
f 209/44/1 210/33/1 211/22/1 212/42/1
f 213/45/1 214/44/1 215/42/1 216/43/1
f 217/36/1 218/45/1 219/43/1 220/25/1
f 221/39/1 222/38/1 223/27/1 224/28/1
f 225/1/1 226/2/1 227/3/1 228/4/1
f 229/5/1 230/6/1 231/7/1 232/8/1
f 233/9/1 234/5/1 235/8/1 236/10/1
f 237/11/1 238/9/1 239/10/1 240/12/1
f 241/13/1 242/11/1 243/12/1 244/14/1
f 245/15/1 246/16/1 247/2/1 248/1/1
f 249/17/1 250/18/1 251/6/1 252/5/1
f 253/19/1 254/17/1 255/5/1 256/9/1
f 257/20/1 258/19/1 259/9/1 260/11/1
f 261/21/1 262/20/1 263/11/1 264/13/1
f 265/22/1 266/23/1 267/16/1 268/15/1
f 269/24/1 270/25/1 271/18/1 272/17/1
f 273/26/1 274/24/1 275/17/1 276/19/1
f 277/27/1 278/26/1 279/19/1 280/20/1
f 281/28/1 282/27/1 283/20/1 284/21/1
f 285/33/1 286/34/1 287/23/1 288/22/1
f 289/35/1 290/36/1 291/25/1 292/24/1
f 293/37/1 294/35/1 295/24/1 296/26/1
f 297/38/1 298/37/1 299/26/1 300/27/1
f 301/39/1 302/38/1 303/27/1 304/28/1
f 305/11/1 306/9/1 307/10/1 308/12/1
f 309/13/1 310/11/1 311/12/1 312/14/1
f 313/20/1 314/19/1 315/9/1 316/11/1
f 317/21/1 318/20/1 319/11/1 320/13/1
f 321/27/1 322/26/1 323/19/1 324/20/1
f 325/28/1 326/27/1 327/20/1 328/21/1
f 329/1/1 330/2/1 331/3/1 332/4/1
f 333/29/1 334/1/1 335/4/1 336/30/1
f 337/31/1 338/29/1 339/30/1 340/32/1
f 341/6/1 342/31/1 343/32/1 344/7/1
f 345/13/1 346/11/1 347/12/1 348/14/1
f 349/38/1 350/37/1 351/26/1 352/27/1
f 353/39/1 354/38/1 355/27/1 356/28/1
f 357/15/1 358/16/1 359/2/1 360/1/1
f 361/40/1 362/15/1 363/1/1 364/29/1
f 365/41/1 366/40/1 367/29/1 368/31/1
f 369/18/1 370/41/1 371/31/1 372/6/1
f 373/21/1 374/20/1 375/11/1 376/13/1
f 377/22/1 378/23/1 379/16/1 380/15/1
f 381/42/1 382/22/1 383/15/1 384/40/1
f 385/43/1 386/42/1 387/40/1 388/41/1
f 389/25/1 390/43/1 391/41/1 392/18/1
f 393/28/1 394/27/1 395/20/1 396/21/1
f 397/33/1 398/34/1 399/23/1 400/22/1
f 401/44/1 402/33/1 403/22/1 404/42/1
f 405/45/1 406/44/1 407/42/1 408/43/1
f 409/36/1 410/45/1 411/43/1 412/25/1
f 413/39/1 414/38/1 415/27/1 416/28/1
f 417/6/1 418/31/1 419/32/1 420/7/1
f 421/13/1 422/11/1 423/12/1 424/14/1
f 425/1/1 426/2/1 427/3/1 428/4/1
f 429/29/1 430/1/1 431/4/1 432/30/1
f 433/31/1 434/29/1 435/30/1 436/32/1
f 437/6/1 438/31/1 439/32/1 440/7/1
f 441/13/1 442/11/1 443/12/1 444/14/1
f 445/18/1 446/41/1 447/31/1 448/6/1
f 449/21/1 450/20/1 451/11/1 452/13/1
f 453/15/1 454/16/1 455/2/1 456/1/1
f 457/40/1 458/15/1 459/1/1 460/29/1
f 461/41/1 462/40/1 463/29/1 464/31/1
f 465/18/1 466/41/1 467/31/1 468/6/1
f 469/21/1 470/20/1 471/11/1 472/13/1
f 473/25/1 474/43/1 475/41/1 476/18/1
f 477/28/1 478/27/1 479/20/1 480/21/1
f 481/22/1 482/23/1 483/16/1 484/15/1
f 485/42/1 486/22/1 487/15/1 488/40/1
f 489/43/1 490/42/1 491/40/1 492/41/1
f 493/25/1 494/43/1 495/41/1 496/18/1
f 497/28/1 498/27/1 499/20/1 500/21/1
f 501/36/1 502/45/1 503/43/1 504/25/1
f 505/39/1 506/38/1 507/27/1 508/28/1
f 509/33/1 510/34/1 511/23/1 512/22/1
f 513/44/1 514/33/1 515/22/1 516/42/1
f 517/45/1 518/44/1 519/42/1 520/43/1
f 521/36/1 522/45/1 523/43/1 524/25/1
f 525/39/1 526/38/1 527/27/1 528/28/1

