# Tiled2Unity generated file. Do not modify by hand.
# Wavefront file for 'field_mesh_0016.obj'

# Vertices (Count = 220)
v -896 -48 0
v -912 -48 0
v -912 -32 0
v -896 -32 0
v -880 -48 0
v -896 -48 0
v -896 -32 0
v -880 -32 0
v -752 -48 0
v -768 -48 0
v -768 -32 0
v -752 -32 0
v -736 -48 0
v -752 -48 0
v -752 -32 0
v -736 -32 0
v -896 -64 0
v -912 -64 0
v -912 -48 0
v -896 -48 0
v -880 -64 0
v -896 -64 0
v -896 -48 0
v -880 -48 0
v -752 -64 0
v -768 -64 0
v -768 -48 0
v -752 -48 0
v -736 -64 0
v -752 -64 0
v -752 -48 0
v -736 -48 0
v -560 -96 0
v -576 -96 0
v -576 -80 0
v -560 -80 0
v -544 -96 0
v -560 -96 0
v -560 -80 0
v -544 -80 0
v -528 -96 0
v -544 -96 0
v -544 -80 0
v -528 -80 0
v -512 -96 0
v -528 -96 0
v -528 -80 0
v -512 -80 0
v -560 -112 0
v -576 -112 0
v -576 -96 0
v -560 -96 0
v -544 -112 0
v -560 -112 0
v -560 -96 0
v -544 -96 0
v -528 -112 0
v -544 -112 0
v -544 -96 0
v -528 -96 0
v -512 -112 0
v -528 -112 0
v -528 -96 0
v -512 -96 0
v -208 -336 0
v -224 -336 0
v -224 -320 0
v -208 -320 0
v -544 -352 0
v -560 -352 0
v -560 -336 0
v -544 -336 0
v -432 -352 0
v -448 -352 0
v -448 -336 0
v -432 -336 0
v -416 -352 0
v -432 -352 0
v -432 -336 0
v -416 -336 0
v -400 -352 0
v -416 -352 0
v -416 -336 0
v -400 -336 0
v -384 -352 0
v -400 -352 0
v -400 -336 0
v -384 -336 0
v -544 -368 0
v -560 -368 0
v -560 -352 0
v -544 -352 0
v -432 -368 0
v -448 -368 0
v -448 -352 0
v -432 -352 0
v -416 -368 0
v -432 -368 0
v -432 -352 0
v -416 -352 0
v -400 -368 0
v -416 -368 0
v -416 -352 0
v -400 -352 0
v -384 -368 0
v -400 -368 0
v -400 -352 0
v -384 -352 0
v -240 -416 0
v -256 -416 0
v -256 -400 0
v -240 -400 0
v -224 -416 0
v -240 -416 0
v -240 -400 0
v -224 -400 0
v -208 -416 0
v -224 -416 0
v -224 -400 0
v -208 -400 0
v -192 -416 0
v -208 -416 0
v -208 -400 0
v -192 -400 0
v -176 -416 0
v -192 -416 0
v -192 -400 0
v -176 -400 0
v -128 -416 0
v -144 -416 0
v -144 -400 0
v -128 -400 0
v -112 -416 0
v -128 -416 0
v -128 -400 0
v -112 -400 0
v -96 -416 0
v -112 -416 0
v -112 -400 0
v -96 -400 0
v -240 -432 0
v -256 -432 0
v -256 -416 0
v -240 -416 0
v -224 -432 0
v -240 -432 0
v -240 -416 0
v -224 -416 0
v -208 -432 0
v -224 -432 0
v -224 -416 0
v -208 -416 0
v -192 -432 0
v -208 -432 0
v -208 -416 0
v -192 -416 0
v -176 -432 0
v -192 -432 0
v -192 -416 0
v -176 -416 0
v -160 -432 0
v -176 -432 0
v -176 -416 0
v -160 -416 0
v -128 -432 0
v -144 -432 0
v -144 -416 0
v -128 -416 0
v -112 -432 0
v -128 -432 0
v -128 -416 0
v -112 -416 0
v -96 -432 0
v -112 -432 0
v -112 -416 0
v -96 -416 0
v -512 -448 0
v -528 -448 0
v -528 -432 0
v -512 -432 0
v -496 -448 0
v -512 -448 0
v -512 -432 0
v -496 -432 0
v -416 -448 0
v -432 -448 0
v -432 -432 0
v -416 -432 0
v -400 -448 0
v -416 -448 0
v -416 -432 0
v -400 -432 0
v -512 -464 0
v -528 -464 0
v -528 -448 0
v -512 -448 0
v -496 -464 0
v -512 -464 0
v -512 -448 0
v -496 -448 0
v -416 -464 0
v -432 -464 0
v -432 -448 0
v -416 -448 0
v -400 -464 0
v -416 -464 0
v -416 -448 0
v -400 -448 0
v -816 -992 0
v -832 -992 0
v -832 -976 0
v -816 -976 0
v -1072 -1056 0
v -1088 -1056 0
v -1088 -1040 0
v -1072 -1040 0
v -768 -1072 0
v -784 -1072 0
v -784 -1056 0
v -768 -1056 0

# Texture cooridinates (Count = 53)
vt 0.15 0.2222222
vt 0.175 0.2222222
vt 0.175 0.25
vt 0.15 0.25
vt 0.125 0.2222222
vt 0.125 0.25
vt 0.15 0.1944444
vt 0.175 0.1944444
vt 0.125 0.1944444
vt 0.725 0.4166667
vt 0.75 0.4166667
vt 0.75 0.4444444
vt 0.725 0.4444444
vt 0.7 0.4166667
vt 0.7 0.4444444
vt 0.675 0.4166667
vt 0.675 0.4444444
vt 0.65 0.4166667
vt 0.65 0.4444444
vt 0.725 0.3888889
vt 0.75 0.3888889
vt 0.7 0.3888889
vt 0.675 0.3888889
vt 0.65 0.3888889
vt 0.825 0.9166667
vt 0.85 0.9166667
vt 0.85 0.9444444
vt 0.825 0.9444444
vt 0.825 0.9722222
vt 0.85 0.9722222
vt 0.85 1
vt 0.825 1
vt 0.9 0.75
vt 0.925 0.75
vt 0.925 0.7777778
vt 0.9 0.7777778
vt 0.875 0.75
vt 0.875 0.7777778
vt 0.9 0.7222222
vt 0.925 0.7222222
vt 0.875 0.7222222
vt 0.75 0.9722222
vt 0.775 0.9722222
vt 0.775 1
vt 0.75 1
vt 0.75 0.9444444
vt 0.775 0.9444444
vt 0.075 0.9722222
vt 0.1 0.9722222
vt 0.1 1
vt 0.075 1
vt 0.125 0.9722222
vt 0.125 1

# Normal
vn 0 0 -1

# Mesh description
g field_mesh_0016

# Faces
f 1/1/1 2/2/1 3/3/1 4/4/1
f 5/5/1 6/1/1 7/4/1 8/6/1
f 9/1/1 10/2/1 11/3/1 12/4/1
f 13/5/1 14/1/1 15/4/1 16/6/1
f 17/7/1 18/8/1 19/2/1 20/1/1
f 21/9/1 22/7/1 23/1/1 24/5/1
f 25/7/1 26/8/1 27/2/1 28/1/1
f 29/9/1 30/7/1 31/1/1 32/5/1
f 33/10/1 34/11/1 35/12/1 36/13/1
f 37/14/1 38/10/1 39/13/1 40/15/1
f 41/16/1 42/14/1 43/15/1 44/17/1
f 45/18/1 46/16/1 47/17/1 48/19/1
f 49/20/1 50/21/1 51/11/1 52/10/1
f 53/22/1 54/20/1 55/10/1 56/14/1
f 57/23/1 58/22/1 59/14/1 60/16/1
f 61/24/1 62/23/1 63/16/1 64/18/1
f 65/25/1 66/26/1 67/27/1 68/28/1
f 69/29/1 70/30/1 71/31/1 72/32/1
f 73/33/1 74/34/1 75/35/1 76/36/1
f 77/37/1 78/33/1 79/36/1 80/38/1
f 81/33/1 82/34/1 83/35/1 84/36/1
f 85/37/1 86/33/1 87/36/1 88/38/1
f 89/28/1 90/27/1 91/30/1 92/29/1
f 93/39/1 94/40/1 95/34/1 96/33/1
f 97/41/1 98/39/1 99/33/1 100/37/1
f 101/39/1 102/40/1 103/34/1 104/33/1
f 105/41/1 106/39/1 107/33/1 108/37/1
f 109/42/1 110/43/1 111/44/1 112/45/1
f 113/42/1 114/43/1 115/44/1 116/45/1
f 117/42/1 118/43/1 119/44/1 120/45/1
f 121/18/1 122/16/1 123/17/1 124/19/1
f 125/10/1 126/11/1 127/12/1 128/13/1
f 129/29/1 130/30/1 131/31/1 132/32/1
f 133/29/1 134/30/1 135/31/1 136/32/1
f 137/29/1 138/30/1 139/31/1 140/32/1
f 141/46/1 142/47/1 143/43/1 144/42/1
f 145/46/1 146/47/1 147/43/1 148/42/1
f 149/46/1 150/47/1 151/43/1 152/42/1
f 153/18/1 154/16/1 155/17/1 156/19/1
f 157/16/1 158/14/1 159/15/1 160/17/1
f 161/10/1 162/11/1 163/12/1 164/13/1
f 165/28/1 166/27/1 167/30/1 168/29/1
f 169/28/1 170/27/1 171/30/1 172/29/1
f 173/28/1 174/27/1 175/30/1 176/29/1
f 177/1/1 178/2/1 179/3/1 180/4/1
f 181/5/1 182/1/1 183/4/1 184/6/1
f 185/1/1 186/2/1 187/3/1 188/4/1
f 189/5/1 190/1/1 191/4/1 192/6/1
f 193/7/1 194/8/1 195/2/1 196/1/1
f 197/9/1 198/7/1 199/1/1 200/5/1
f 201/7/1 202/8/1 203/2/1 204/1/1
f 205/9/1 206/7/1 207/1/1 208/5/1
f 209/48/1 210/49/1 211/50/1 212/51/1
f 213/49/1 214/52/1 215/53/1 216/50/1
f 217/49/1 218/52/1 219/53/1 220/50/1

