# Tiled2Unity generated file. Do not modify by hand.
# Wavefront file for 'field_mesh_0004.obj'

# Vertices (Count = 676)
v -1184 -16 0
v -1200 -16 0
v -1200 0 0
v -1184 0 0
v -1168 -16 0
v -1184 -16 0
v -1184 0 0
v -1168 0 0
v -1152 -16 0
v -1168 -16 0
v -1168 0 0
v -1152 0 0
v -1136 -16 0
v -1152 -16 0
v -1152 0 0
v -1136 0 0
v -1120 -16 0
v -1136 -16 0
v -1136 0 0
v -1120 0 0
v -1104 -16 0
v -1120 -16 0
v -1120 0 0
v -1104 0 0
v -1088 -16 0
v -1104 -16 0
v -1104 0 0
v -1088 0 0
v -1072 -16 0
v -1088 -16 0
v -1088 0 0
v -1072 0 0
v -1056 -16 0
v -1072 -16 0
v -1072 0 0
v -1056 0 0
v -1040 -16 0
v -1056 -16 0
v -1056 0 0
v -1040 0 0
v -1024 -16 0
v -1040 -16 0
v -1040 0 0
v -1024 0 0
v -1008 -16 0
v -1024 -16 0
v -1024 0 0
v -1008 0 0
v -992 -16 0
v -1008 -16 0
v -1008 0 0
v -992 0 0
v -976 -16 0
v -992 -16 0
v -992 0 0
v -976 0 0
v -960 -16 0
v -976 -16 0
v -976 0 0
v -960 0 0
v -944 -16 0
v -960 -16 0
v -960 0 0
v -944 0 0
v -928 -16 0
v -944 -16 0
v -944 0 0
v -928 0 0
v -912 -16 0
v -928 -16 0
v -928 0 0
v -912 0 0
v -720 -16 0
v -736 -16 0
v -736 0 0
v -720 0 0
v -704 -16 0
v -720 -16 0
v -720 0 0
v -704 0 0
v -688 -16 0
v -704 -16 0
v -704 0 0
v -688 0 0
v -672 -16 0
v -688 -16 0
v -688 0 0
v -672 0 0
v -656 -16 0
v -672 -16 0
v -672 0 0
v -656 0 0
v -640 -16 0
v -656 -16 0
v -656 0 0
v -640 0 0
v -624 -16 0
v -640 -16 0
v -640 0 0
v -624 0 0
v -608 -16 0
v -624 -16 0
v -624 0 0
v -608 0 0
v -592 -16 0
v -608 -16 0
v -608 0 0
v -592 0 0
v -576 -16 0
v -592 -16 0
v -592 0 0
v -576 0 0
v -560 -16 0
v -576 -16 0
v -576 0 0
v -560 0 0
v -544 -16 0
v -560 -16 0
v -560 0 0
v -544 0 0
v -528 -16 0
v -544 -16 0
v -544 0 0
v -528 0 0
v -512 -16 0
v -528 -16 0
v -528 0 0
v -512 0 0
v -496 -16 0
v -512 -16 0
v -512 0 0
v -496 0 0
v -480 -16 0
v -496 -16 0
v -496 0 0
v -480 0 0
v -464 -16 0
v -480 -16 0
v -480 0 0
v -464 0 0
v -448 -16 0
v -464 -16 0
v -464 0 0
v -448 0 0
v -432 -16 0
v -448 -16 0
v -448 0 0
v -432 0 0
v -416 -16 0
v -432 -16 0
v -432 0 0
v -416 0 0
v -1184 -32 0
v -1200 -32 0
v -1200 -16 0
v -1184 -16 0
v -1168 -32 0
v -1184 -32 0
v -1184 -16 0
v -1168 -16 0
v -1152 -32 0
v -1168 -32 0
v -1168 -16 0
v -1152 -16 0
v -1136 -32 0
v -1152 -32 0
v -1152 -16 0
v -1136 -16 0
v -1120 -32 0
v -1136 -32 0
v -1136 -16 0
v -1120 -16 0
v -1104 -32 0
v -1120 -32 0
v -1120 -16 0
v -1104 -16 0
v -1088 -32 0
v -1104 -32 0
v -1104 -16 0
v -1088 -16 0
v -1072 -32 0
v -1088 -32 0
v -1088 -16 0
v -1072 -16 0
v -1056 -32 0
v -1072 -32 0
v -1072 -16 0
v -1056 -16 0
v -1040 -32 0
v -1056 -32 0
v -1056 -16 0
v -1040 -16 0
v -1024 -32 0
v -1040 -32 0
v -1040 -16 0
v -1024 -16 0
v -1008 -32 0
v -1024 -32 0
v -1024 -16 0
v -1008 -16 0
v -992 -32 0
v -1008 -32 0
v -1008 -16 0
v -992 -16 0
v -976 -32 0
v -992 -32 0
v -992 -16 0
v -976 -16 0
v -960 -32 0
v -976 -32 0
v -976 -16 0
v -960 -16 0
v -944 -32 0
v -960 -32 0
v -960 -16 0
v -944 -16 0
v -928 -32 0
v -944 -32 0
v -944 -16 0
v -928 -16 0
v -912 -32 0
v -928 -32 0
v -928 -16 0
v -912 -16 0
v -720 -32 0
v -736 -32 0
v -736 -16 0
v -720 -16 0
v -704 -32 0
v -720 -32 0
v -720 -16 0
v -704 -16 0
v -688 -32 0
v -704 -32 0
v -704 -16 0
v -688 -16 0
v -672 -32 0
v -688 -32 0
v -688 -16 0
v -672 -16 0
v -656 -32 0
v -672 -32 0
v -672 -16 0
v -656 -16 0
v -640 -32 0
v -656 -32 0
v -656 -16 0
v -640 -16 0
v -624 -32 0
v -640 -32 0
v -640 -16 0
v -624 -16 0
v -608 -32 0
v -624 -32 0
v -624 -16 0
v -608 -16 0
v -592 -32 0
v -608 -32 0
v -608 -16 0
v -592 -16 0
v -576 -32 0
v -592 -32 0
v -592 -16 0
v -576 -16 0
v -560 -32 0
v -576 -32 0
v -576 -16 0
v -560 -16 0
v -544 -32 0
v -560 -32 0
v -560 -16 0
v -544 -16 0
v -528 -32 0
v -544 -32 0
v -544 -16 0
v -528 -16 0
v -512 -32 0
v -528 -32 0
v -528 -16 0
v -512 -16 0
v -496 -32 0
v -512 -32 0
v -512 -16 0
v -496 -16 0
v -480 -32 0
v -496 -32 0
v -496 -16 0
v -480 -16 0
v -464 -32 0
v -480 -32 0
v -480 -16 0
v -464 -16 0
v -448 -32 0
v -464 -32 0
v -464 -16 0
v -448 -16 0
v -432 -32 0
v -448 -32 0
v -448 -16 0
v -432 -16 0
v -416 -32 0
v -432 -32 0
v -432 -16 0
v -416 -16 0
v -1184 -48 0
v -1200 -48 0
v -1200 -32 0
v -1184 -32 0
v -1168 -48 0
v -1184 -48 0
v -1184 -32 0
v -1168 -32 0
v -1152 -48 0
v -1168 -48 0
v -1168 -32 0
v -1152 -32 0
v -1136 -48 0
v -1152 -48 0
v -1152 -32 0
v -1136 -32 0
v -1120 -48 0
v -1136 -48 0
v -1136 -32 0
v -1120 -32 0
v -1104 -48 0
v -1120 -48 0
v -1120 -32 0
v -1104 -32 0
v -1088 -48 0
v -1104 -48 0
v -1104 -32 0
v -1088 -32 0
v -1072 -48 0
v -1088 -48 0
v -1088 -32 0
v -1072 -32 0
v -1056 -48 0
v -1072 -48 0
v -1072 -32 0
v -1056 -32 0
v -1040 -48 0
v -1056 -48 0
v -1056 -32 0
v -1040 -32 0
v -1024 -48 0
v -1040 -48 0
v -1040 -32 0
v -1024 -32 0
v -1008 -48 0
v -1024 -48 0
v -1024 -32 0
v -1008 -32 0
v -992 -48 0
v -1008 -48 0
v -1008 -32 0
v -992 -32 0
v -976 -48 0
v -992 -48 0
v -992 -32 0
v -976 -32 0
v -960 -48 0
v -976 -48 0
v -976 -32 0
v -960 -32 0
v -944 -48 0
v -960 -48 0
v -960 -32 0
v -944 -32 0
v -928 -48 0
v -944 -48 0
v -944 -32 0
v -928 -32 0
v -912 -48 0
v -928 -48 0
v -928 -32 0
v -912 -32 0
v -720 -48 0
v -736 -48 0
v -736 -32 0
v -720 -32 0
v -704 -48 0
v -720 -48 0
v -720 -32 0
v -704 -32 0
v -688 -48 0
v -704 -48 0
v -704 -32 0
v -688 -32 0
v -672 -48 0
v -688 -48 0
v -688 -32 0
v -672 -32 0
v -656 -48 0
v -672 -48 0
v -672 -32 0
v -656 -32 0
v -640 -48 0
v -656 -48 0
v -656 -32 0
v -640 -32 0
v -624 -48 0
v -640 -48 0
v -640 -32 0
v -624 -32 0
v -608 -48 0
v -624 -48 0
v -624 -32 0
v -608 -32 0
v -592 -48 0
v -608 -48 0
v -608 -32 0
v -592 -32 0
v -576 -48 0
v -592 -48 0
v -592 -32 0
v -576 -32 0
v -560 -48 0
v -576 -48 0
v -576 -32 0
v -560 -32 0
v -544 -48 0
v -560 -48 0
v -560 -32 0
v -544 -32 0
v -528 -48 0
v -544 -48 0
v -544 -32 0
v -528 -32 0
v -512 -48 0
v -528 -48 0
v -528 -32 0
v -512 -32 0
v -496 -48 0
v -512 -48 0
v -512 -32 0
v -496 -32 0
v -480 -48 0
v -496 -48 0
v -496 -32 0
v -480 -32 0
v -464 -48 0
v -480 -48 0
v -480 -32 0
v -464 -32 0
v -448 -48 0
v -464 -48 0
v -464 -32 0
v -448 -32 0
v -432 -48 0
v -448 -48 0
v -448 -32 0
v -432 -32 0
v -416 -48 0
v -432 -48 0
v -432 -32 0
v -416 -32 0
v -1152 -64 0
v -1168 -64 0
v -1168 -48 0
v -1152 -48 0
v -1136 -64 0
v -1152 -64 0
v -1152 -48 0
v -1136 -48 0
v -1072 -64 0
v -1088 -64 0
v -1088 -48 0
v -1072 -48 0
v -1056 -64 0
v -1072 -64 0
v -1072 -48 0
v -1056 -48 0
v -992 -64 0
v -1008 -64 0
v -1008 -48 0
v -992 -48 0
v -976 -64 0
v -992 -64 0
v -992 -48 0
v -976 -48 0
v -928 -64 0
v -944 -64 0
v -944 -48 0
v -928 -48 0
v -912 -64 0
v -928 -64 0
v -928 -48 0
v -912 -48 0
v -720 -64 0
v -736 -64 0
v -736 -48 0
v -720 -48 0
v -704 -64 0
v -720 -64 0
v -720 -48 0
v -704 -48 0
v -656 -64 0
v -672 -64 0
v -672 -48 0
v -656 -48 0
v -640 -64 0
v -656 -64 0
v -656 -48 0
v -640 -48 0
v -576 -64 0
v -592 -64 0
v -592 -48 0
v -576 -48 0
v -560 -64 0
v -576 -64 0
v -576 -48 0
v -560 -48 0
v -496 -64 0
v -512 -64 0
v -512 -48 0
v -496 -48 0
v -480 -64 0
v -496 -64 0
v -496 -48 0
v -480 -48 0
v -432 -64 0
v -448 -64 0
v -448 -48 0
v -432 -48 0
v -416 -64 0
v -432 -64 0
v -432 -48 0
v -416 -48 0
v 0 -64 0
v -16 -64 0
v -16 -48 0
v 0 -48 0
v -928 -80 0
v -944 -80 0
v -944 -64 0
v -928 -64 0
v -912 -80 0
v -928 -80 0
v -928 -64 0
v -912 -64 0
v -720 -80 0
v -736 -80 0
v -736 -64 0
v -720 -64 0
v -704 -80 0
v -720 -80 0
v -720 -64 0
v -704 -64 0
v -432 -80 0
v -448 -80 0
v -448 -64 0
v -432 -64 0
v -416 -80 0
v -432 -80 0
v -432 -64 0
v -416 -64 0
v 0 -80 0
v -16 -80 0
v -16 -64 0
v 0 -64 0
v -1184 -352 0
v -1200 -352 0
v -1200 -336 0
v -1184 -336 0
v -1168 -352 0
v -1184 -352 0
v -1184 -336 0
v -1168 -336 0
v -1152 -352 0
v -1168 -352 0
v -1168 -336 0
v -1152 -336 0
v -1136 -352 0
v -1152 -352 0
v -1152 -336 0
v -1136 -336 0
v -1120 -352 0
v -1136 -352 0
v -1136 -336 0
v -1120 -336 0
v -1104 -352 0
v -1120 -352 0
v -1120 -336 0
v -1104 -336 0
v -1088 -352 0
v -1104 -352 0
v -1104 -336 0
v -1088 -336 0
v -1072 -352 0
v -1088 -352 0
v -1088 -336 0
v -1072 -336 0
v -1072 -368 0
v -1088 -368 0
v -1088 -352 0
v -1072 -352 0
v -1072 -384 0
v -1088 -384 0
v -1088 -368 0
v -1072 -368 0
v -1072 -400 0
v -1088 -400 0
v -1088 -384 0
v -1072 -384 0
v -1072 -416 0
v -1088 -416 0
v -1088 -400 0
v -1072 -400 0
v -1072 -432 0
v -1088 -432 0
v -1088 -416 0
v -1072 -416 0
v -128 -496 0
v -144 -496 0
v -144 -480 0
v -128 -480 0
v -64 -496 0
v -80 -496 0
v -80 -480 0
v -64 -480 0
v -896 -512 0
v -912 -512 0
v -912 -496 0
v -896 -496 0
v -880 -512 0
v -896 -512 0
v -896 -496 0
v -880 -496 0
v -864 -512 0
v -880 -512 0
v -880 -496 0
v -864 -496 0
v -1072 -528 0
v -1088 -528 0
v -1088 -512 0
v -1072 -512 0
v -1072 -544 0
v -1088 -544 0
v -1088 -528 0
v -1072 -528 0
v -1072 -560 0
v -1088 -560 0
v -1088 -544 0
v -1072 -544 0
v -1072 -576 0
v -1088 -576 0
v -1088 -560 0
v -1072 -560 0
v -1072 -592 0
v -1088 -592 0
v -1088 -576 0
v -1072 -576 0
v -1072 -608 0
v -1088 -608 0
v -1088 -592 0
v -1072 -592 0
v -1184 -624 0
v -1200 -624 0
v -1200 -608 0
v -1184 -608 0
v -1168 -624 0
v -1184 -624 0
v -1184 -608 0
v -1168 -608 0
v -1088 -624 0
v -1104 -624 0
v -1104 -608 0
v -1088 -608 0
v -1072 -624 0
v -1088 -624 0
v -1088 -608 0
v -1072 -608 0
v -64 -640 0
v -80 -640 0
v -80 -624 0
v -64 -624 0

# Texture cooridinates (Count = 75)
vt 0.3009901 0.9767442
vt 0.3168317 0.9767442
vt 0.3168317 1
vt 0.3009901 1
vt 0.3485149 0.9767442
vt 0.3643564 0.9767442
vt 0.3643564 1
vt 0.3485149 1
vt 0.3326733 0.9767442
vt 0.3326733 1
vt 0.2851485 0.9767442
vt 0.2851485 1
vt 0.2693069 0.9767442
vt 0.2693069 1
vt 0.1108911 0.9767442
vt 0.1267327 0.9767442
vt 0.1267327 1
vt 0.1108911 1
vt 0.09504951 0.9767442
vt 0.09504951 1
vt 0.3168317 0.9534883
vt 0.3326733 0.9534883
vt 0.3485149 0.9534883
vt 0.3643564 0.9534883
vt 0.3009901 0.9534883
vt 0.2851485 0.9534883
vt 0.2693069 0.9534883
vt 0.1108911 0.9534883
vt 0.1267327 0.9534883
vt 0.09504951 0.9534883
vt 0.3009901 0.9302325
vt 0.3168317 0.9302325
vt 0.3485149 0.9302325
vt 0.3643564 0.9302325
vt 0.3326733 0.9302325
vt 0.2851485 0.9302325
vt 0.2693069 0.9302325
vt 0.1108911 0.9302325
vt 0.1267327 0.9302325
vt 0.09504951 0.9302325
vt 0.3485149 0.9069768
vt 0.3643564 0.9069768
vt 0.3326733 0.9069768
vt 0.2851485 0.9069768
vt 0.3009901 0.9069768
vt 0.2693069 0.9069768
vt 0.1108911 0.9069768
vt 0.1267327 0.9069768
vt 0.09504951 0.9069768
vt 0.7920792 0.3255814
vt 0.8079208 0.3255814
vt 0.8079208 0.3488372
vt 0.7920792 0.3488372
vt 0.2851485 0.8837209
vt 0.3009901 0.8837209
vt 0.2693069 0.8837209
vt 0.1108911 0.8837209
vt 0.1267327 0.8837209
vt 0.09504951 0.8837209
vt 0.4277228 0.1627907
vt 0.4435644 0.1627907
vt 0.4435644 0.1860465
vt 0.4277228 0.1860465
vt 0.1267327 0.7209302
vt 0.1425743 0.7209302
vt 0.1425743 0.744186
vt 0.1267327 0.744186
vt 0.03168317 0.744186
vt 0.04752475 0.744186
vt 0.04752475 0.7674419
vt 0.03168317 0.7674419
vt 0.2693069 0.1395349
vt 0.2851485 0.1395349
vt 0.2851485 0.1627907
vt 0.2693069 0.1627907

# Normal
vn 0 0 -1

# Mesh description
g field_mesh_0004

# Faces
f 1/1/1 2/2/1 3/3/1 4/4/1
f 5/1/1 6/2/1 7/3/1 8/4/1
f 9/5/1 10/6/1 11/7/1 12/8/1
f 13/9/1 14/5/1 15/8/1 16/10/1
f 17/1/1 18/2/1 19/3/1 20/4/1
f 21/1/1 22/2/1 23/3/1 24/4/1
f 25/1/1 26/2/1 27/3/1 28/4/1
f 29/5/1 30/6/1 31/7/1 32/8/1
f 33/9/1 34/5/1 35/8/1 36/10/1
f 37/1/1 38/2/1 39/3/1 40/4/1
f 41/1/1 42/2/1 43/3/1 44/4/1
f 45/1/1 46/2/1 47/3/1 48/4/1
f 49/5/1 50/6/1 51/7/1 52/8/1
f 53/9/1 54/5/1 55/8/1 56/10/1
f 57/1/1 58/2/1 59/3/1 60/4/1
f 61/1/1 62/2/1 63/3/1 64/4/1
f 65/11/1 66/1/1 67/4/1 68/12/1
f 69/13/1 70/11/1 71/12/1 72/14/1
f 73/15/1 74/16/1 75/17/1 76/18/1
f 77/19/1 78/15/1 79/18/1 80/20/1
f 81/1/1 82/2/1 83/3/1 84/4/1
f 85/1/1 86/2/1 87/3/1 88/4/1
f 89/5/1 90/6/1 91/7/1 92/8/1
f 93/9/1 94/5/1 95/8/1 96/10/1
f 97/1/1 98/2/1 99/3/1 100/4/1
f 101/1/1 102/2/1 103/3/1 104/4/1
f 105/1/1 106/2/1 107/3/1 108/4/1
f 109/5/1 110/6/1 111/7/1 112/8/1
f 113/9/1 114/5/1 115/8/1 116/10/1
f 117/1/1 118/2/1 119/3/1 120/4/1
f 121/1/1 122/2/1 123/3/1 124/4/1
f 125/1/1 126/2/1 127/3/1 128/4/1
f 129/5/1 130/6/1 131/7/1 132/8/1
f 133/9/1 134/5/1 135/8/1 136/10/1
f 137/1/1 138/2/1 139/3/1 140/4/1
f 141/1/1 142/2/1 143/3/1 144/4/1
f 145/11/1 146/1/1 147/4/1 148/12/1
f 149/13/1 150/11/1 151/12/1 152/14/1
f 153/21/1 154/22/1 155/9/1 156/2/1
f 157/21/1 158/22/1 159/9/1 160/2/1
f 161/23/1 162/24/1 163/6/1 164/5/1
f 165/22/1 166/23/1 167/5/1 168/9/1
f 169/21/1 170/22/1 171/9/1 172/2/1
f 173/21/1 174/22/1 175/9/1 176/2/1
f 177/21/1 178/22/1 179/9/1 180/2/1
f 181/23/1 182/24/1 183/6/1 184/5/1
f 185/22/1 186/23/1 187/5/1 188/9/1
f 189/21/1 190/22/1 191/9/1 192/2/1
f 193/21/1 194/22/1 195/9/1 196/2/1
f 197/21/1 198/22/1 199/9/1 200/2/1
f 201/23/1 202/24/1 203/6/1 204/5/1
f 205/22/1 206/23/1 207/5/1 208/9/1
f 209/25/1 210/21/1 211/2/1 212/1/1
f 213/25/1 214/21/1 215/2/1 216/1/1
f 217/26/1 218/25/1 219/1/1 220/11/1
f 221/27/1 222/26/1 223/11/1 224/13/1
f 225/28/1 226/29/1 227/16/1 228/15/1
f 229/30/1 230/28/1 231/15/1 232/19/1
f 233/21/1 234/22/1 235/9/1 236/2/1
f 237/21/1 238/22/1 239/9/1 240/2/1
f 241/23/1 242/24/1 243/6/1 244/5/1
f 245/22/1 246/23/1 247/5/1 248/9/1
f 249/21/1 250/22/1 251/9/1 252/2/1
f 253/21/1 254/22/1 255/9/1 256/2/1
f 257/21/1 258/22/1 259/9/1 260/2/1
f 261/23/1 262/24/1 263/6/1 264/5/1
f 265/22/1 266/23/1 267/5/1 268/9/1
f 269/21/1 270/22/1 271/9/1 272/2/1
f 273/21/1 274/22/1 275/9/1 276/2/1
f 277/21/1 278/22/1 279/9/1 280/2/1
f 281/23/1 282/24/1 283/6/1 284/5/1
f 285/22/1 286/23/1 287/5/1 288/9/1
f 289/21/1 290/22/1 291/9/1 292/2/1
f 293/21/1 294/22/1 295/9/1 296/2/1
f 297/26/1 298/25/1 299/1/1 300/11/1
f 301/27/1 302/26/1 303/11/1 304/13/1
f 305/31/1 306/32/1 307/21/1 308/25/1
f 309/31/1 310/32/1 311/21/1 312/25/1
f 313/33/1 314/34/1 315/24/1 316/23/1
f 317/35/1 318/33/1 319/23/1 320/22/1
f 321/31/1 322/32/1 323/21/1 324/25/1
f 325/31/1 326/32/1 327/21/1 328/25/1
f 329/31/1 330/32/1 331/21/1 332/25/1
f 333/33/1 334/34/1 335/24/1 336/23/1
f 337/35/1 338/33/1 339/23/1 340/22/1
f 341/31/1 342/32/1 343/21/1 344/25/1
f 345/31/1 346/32/1 347/21/1 348/25/1
f 349/31/1 350/32/1 351/21/1 352/25/1
f 353/33/1 354/34/1 355/24/1 356/23/1
f 357/35/1 358/33/1 359/23/1 360/22/1
f 361/31/1 362/32/1 363/21/1 364/25/1
f 365/31/1 366/32/1 367/21/1 368/25/1
f 369/36/1 370/31/1 371/25/1 372/26/1
f 373/37/1 374/36/1 375/26/1 376/27/1
f 377/38/1 378/39/1 379/29/1 380/28/1
f 381/40/1 382/38/1 383/28/1 384/30/1
f 385/31/1 386/32/1 387/21/1 388/25/1
f 389/31/1 390/32/1 391/21/1 392/25/1
f 393/33/1 394/34/1 395/24/1 396/23/1
f 397/35/1 398/33/1 399/23/1 400/22/1
f 401/31/1 402/32/1 403/21/1 404/25/1
f 405/31/1 406/32/1 407/21/1 408/25/1
f 409/31/1 410/32/1 411/21/1 412/25/1
f 413/33/1 414/34/1 415/24/1 416/23/1
f 417/35/1 418/33/1 419/23/1 420/22/1
f 421/31/1 422/32/1 423/21/1 424/25/1
f 425/31/1 426/32/1 427/21/1 428/25/1
f 429/31/1 430/32/1 431/21/1 432/25/1
f 433/33/1 434/34/1 435/24/1 436/23/1
f 437/35/1 438/33/1 439/23/1 440/22/1
f 441/31/1 442/32/1 443/21/1 444/25/1
f 445/31/1 446/32/1 447/21/1 448/25/1
f 449/36/1 450/31/1 451/25/1 452/26/1
f 453/37/1 454/36/1 455/26/1 456/27/1
f 457/41/1 458/42/1 459/34/1 460/33/1
f 461/43/1 462/41/1 463/33/1 464/35/1
f 465/41/1 466/42/1 467/34/1 468/33/1
f 469/43/1 470/41/1 471/33/1 472/35/1
f 473/41/1 474/42/1 475/34/1 476/33/1
f 477/43/1 478/41/1 479/33/1 480/35/1
f 481/44/1 482/45/1 483/31/1 484/36/1
f 485/46/1 486/44/1 487/36/1 488/37/1
f 489/47/1 490/48/1 491/39/1 492/38/1
f 493/49/1 494/47/1 495/38/1 496/40/1
f 497/41/1 498/42/1 499/34/1 500/33/1
f 501/43/1 502/41/1 503/33/1 504/35/1
f 505/41/1 506/42/1 507/34/1 508/33/1
f 509/43/1 510/41/1 511/33/1 512/35/1
f 513/41/1 514/42/1 515/34/1 516/33/1
f 517/43/1 518/41/1 519/33/1 520/35/1
f 521/44/1 522/45/1 523/31/1 524/36/1
f 525/46/1 526/44/1 527/36/1 528/37/1
f 529/50/1 530/51/1 531/52/1 532/53/1
f 533/54/1 534/55/1 535/45/1 536/44/1
f 537/56/1 538/54/1 539/44/1 540/46/1
f 541/57/1 542/58/1 543/48/1 544/47/1
f 545/59/1 546/57/1 547/47/1 548/49/1
f 549/54/1 550/55/1 551/45/1 552/44/1
f 553/56/1 554/54/1 555/44/1 556/46/1
f 557/60/1 558/61/1 559/62/1 560/63/1
f 561/64/1 562/65/1 563/66/1 564/67/1
f 565/64/1 566/65/1 567/66/1 568/67/1
f 569/64/1 570/65/1 571/66/1 572/67/1
f 573/64/1 574/65/1 575/66/1 576/67/1
f 577/64/1 578/65/1 579/66/1 580/67/1
f 581/64/1 582/65/1 583/66/1 584/67/1
f 585/64/1 586/65/1 587/66/1 588/67/1
f 589/64/1 590/65/1 591/66/1 592/67/1
f 593/68/1 594/69/1 595/70/1 596/71/1
f 597/68/1 598/69/1 599/70/1 600/71/1
f 601/68/1 602/69/1 603/70/1 604/71/1
f 605/68/1 606/69/1 607/70/1 608/71/1
f 609/68/1 610/69/1 611/70/1 612/71/1
f 613/72/1 614/73/1 615/74/1 616/75/1
f 617/72/1 618/73/1 619/74/1 620/75/1
f 621/72/1 622/73/1 623/74/1 624/75/1
f 625/64/1 626/65/1 627/66/1 628/67/1
f 629/64/1 630/65/1 631/66/1 632/67/1
f 633/68/1 634/69/1 635/70/1 636/71/1
f 637/68/1 638/69/1 639/70/1 640/71/1
f 641/68/1 642/69/1 643/70/1 644/71/1
f 645/68/1 646/69/1 647/70/1 648/71/1
f 649/68/1 650/69/1 651/70/1 652/71/1
f 653/68/1 654/69/1 655/70/1 656/71/1
f 657/64/1 658/65/1 659/66/1 660/67/1
f 661/64/1 662/65/1 663/66/1 664/67/1
f 665/64/1 666/65/1 667/66/1 668/67/1
f 669/64/1 670/65/1 671/66/1 672/67/1
f 673/72/1 674/73/1 675/74/1 676/75/1

