# Tiled2Unity generated file. Do not modify by hand.
# Wavefront file for 'field_mesh_0009.obj'

# Vertices (Count = 160)
v -512 -160 0
v -528 -160 0
v -528 -144 0
v -512 -144 0
v -496 -160 0
v -512 -160 0
v -512 -144 0
v -496 -144 0
v -480 -160 0
v -496 -160 0
v -496 -144 0
v -480 -144 0
v -464 -160 0
v -480 -160 0
v -480 -144 0
v -464 -144 0
v -448 -160 0
v -464 -160 0
v -464 -144 0
v -448 -144 0
v -496 -176 0
v -512 -176 0
v -512 -160 0
v -496 -160 0
v -480 -176 0
v -496 -176 0
v -496 -160 0
v -480 -160 0
v -464 -176 0
v -480 -176 0
v -480 -160 0
v -464 -160 0
v -496 -192 0
v -512 -192 0
v -512 -176 0
v -496 -176 0
v -480 -192 0
v -496 -192 0
v -496 -176 0
v -480 -176 0
v -464 -192 0
v -480 -192 0
v -480 -176 0
v -464 -176 0
v -496 -208 0
v -512 -208 0
v -512 -192 0
v -496 -192 0
v -480 -208 0
v -496 -208 0
v -496 -192 0
v -480 -192 0
v -464 -208 0
v -480 -208 0
v -480 -192 0
v -464 -192 0
v -496 -224 0
v -512 -224 0
v -512 -208 0
v -496 -208 0
v -480 -224 0
v -496 -224 0
v -496 -208 0
v -480 -208 0
v -464 -224 0
v -480 -224 0
v -480 -208 0
v -464 -208 0
v -496 -240 0
v -512 -240 0
v -512 -224 0
v -496 -224 0
v -480 -240 0
v -496 -240 0
v -496 -224 0
v -480 -224 0
v -464 -240 0
v -480 -240 0
v -480 -224 0
v -464 -224 0
v -496 -256 0
v -512 -256 0
v -512 -240 0
v -496 -240 0
v -480 -256 0
v -496 -256 0
v -496 -240 0
v -480 -240 0
v -464 -256 0
v -480 -256 0
v -480 -240 0
v -464 -240 0
v -496 -272 0
v -512 -272 0
v -512 -256 0
v -496 -256 0
v -480 -272 0
v -496 -272 0
v -496 -256 0
v -480 -256 0
v -464 -272 0
v -480 -272 0
v -480 -256 0
v -464 -256 0
v -496 -288 0
v -512 -288 0
v -512 -272 0
v -496 -272 0
v -480 -288 0
v -496 -288 0
v -496 -272 0
v -480 -272 0
v -464 -288 0
v -480 -288 0
v -480 -272 0
v -464 -272 0
v -496 -304 0
v -512 -304 0
v -512 -288 0
v -496 -288 0
v -480 -304 0
v -496 -304 0
v -496 -288 0
v -480 -288 0
v -464 -304 0
v -480 -304 0
v -480 -288 0
v -464 -288 0
v -512 -320 0
v -528 -320 0
v -528 -304 0
v -512 -304 0
v -496 -320 0
v -512 -320 0
v -512 -304 0
v -496 -304 0
v -480 -320 0
v -496 -320 0
v -496 -304 0
v -480 -304 0
v -464 -320 0
v -480 -320 0
v -480 -304 0
v -464 -304 0
v -448 -320 0
v -464 -320 0
v -464 -304 0
v -448 -304 0
v -496 -336 0
v -512 -336 0
v -512 -320 0
v -496 -320 0
v -480 -336 0
v -496 -336 0
v -496 -320 0
v -480 -320 0
v -464 -336 0
v -480 -336 0
v -480 -320 0
v -464 -320 0

# Texture cooridinates (Count = 28)
vt 0.575 0.1944444
vt 0.6 0.1944444
vt 0.6 0.2222222
vt 0.575 0.2222222
vt 0.55 0.1944444
vt 0.55 0.2222222
vt 0.525 0.1944444
vt 0.525 0.2222222
vt 0.5 0.1944444
vt 0.5 0.2222222
vt 0.475 0.1944444
vt 0.475 0.2222222
vt 0.55 0.1666667
vt 0.575 0.1666667
vt 0.525 0.1666667
vt 0.5 0.1666667
vt 0.55 0.1388889
vt 0.575 0.1388889
vt 0.525 0.1388889
vt 0.5 0.1388889
vt 0.525 0.1111111
vt 0.55 0.1111111
vt 0.575 0.1111111
vt 0.5 0.1111111
vt 0.575 0.9444444
vt 0.6 0.9444444
vt 0.6 0.9722222
vt 0.575 0.9722222

# Normal
vn 0 0 -1

# Mesh description
g field_mesh_0009

# Faces
f 1/1/1 2/2/1 3/3/1 4/4/1
f 5/5/1 6/1/1 7/4/1 8/6/1
f 9/7/1 10/5/1 11/6/1 12/8/1
f 13/9/1 14/7/1 15/8/1 16/10/1
f 17/11/1 18/9/1 19/10/1 20/12/1
f 21/13/1 22/14/1 23/1/1 24/5/1
f 25/15/1 26/13/1 27/5/1 28/7/1
f 29/16/1 30/15/1 31/7/1 32/9/1
f 33/17/1 34/18/1 35/14/1 36/13/1
f 37/19/1 38/17/1 39/13/1 40/15/1
f 41/20/1 42/19/1 43/15/1 44/16/1
f 45/17/1 46/18/1 47/14/1 48/13/1
f 49/21/1 50/22/1 51/17/1 52/19/1
f 53/20/1 54/19/1 55/15/1 56/16/1
f 57/17/1 58/18/1 59/14/1 60/13/1
f 61/15/1 62/13/1 63/5/1 64/7/1
f 65/20/1 66/19/1 67/15/1 68/16/1
f 69/17/1 70/18/1 71/14/1 72/13/1
f 73/21/1 74/22/1 75/17/1 76/19/1
f 77/20/1 78/19/1 79/15/1 80/16/1
f 81/17/1 82/18/1 83/14/1 84/13/1
f 85/15/1 86/13/1 87/5/1 88/7/1
f 89/20/1 90/19/1 91/15/1 92/16/1
f 93/17/1 94/18/1 95/14/1 96/13/1
f 97/21/1 98/22/1 99/17/1 100/19/1
f 101/20/1 102/19/1 103/15/1 104/16/1
f 105/17/1 106/18/1 107/14/1 108/13/1
f 109/15/1 110/13/1 111/5/1 112/7/1
f 113/20/1 114/19/1 115/15/1 116/16/1
f 117/17/1 118/18/1 119/14/1 120/13/1
f 121/19/1 122/17/1 123/13/1 124/15/1
f 125/20/1 126/19/1 127/15/1 128/16/1
f 129/1/1 130/2/1 131/3/1 132/4/1
f 133/22/1 134/23/1 135/18/1 136/17/1
f 137/21/1 138/22/1 139/17/1 140/19/1
f 141/24/1 142/21/1 143/19/1 144/20/1
f 145/11/1 146/9/1 147/10/1 148/12/1
f 149/19/1 150/17/1 151/13/1 152/15/1
f 153/19/1 154/17/1 155/13/1 156/15/1
f 157/25/1 158/26/1 159/27/1 160/28/1

