# Tiled2Unity generated file. Do not modify by hand.
# Wavefront file for 'field_mesh_0029.obj'

# Vertices (Count = 756)
v -1184 -208 0
v -1200 -208 0
v -1200 -192 0
v -1184 -192 0
v -1168 -208 0
v -1184 -208 0
v -1184 -192 0
v -1168 -192 0
v -1152 -208 0
v -1168 -208 0
v -1168 -192 0
v -1152 -192 0
v -1136 -208 0
v -1152 -208 0
v -1152 -192 0
v -1136 -192 0
v -1184 -224 0
v -1200 -224 0
v -1200 -208 0
v -1184 -208 0
v -1168 -224 0
v -1184 -224 0
v -1184 -208 0
v -1168 -208 0
v -1152 -224 0
v -1168 -224 0
v -1168 -208 0
v -1152 -208 0
v -1136 -224 0
v -1152 -224 0
v -1152 -208 0
v -1136 -208 0
v -1184 -240 0
v -1200 -240 0
v -1200 -224 0
v -1184 -224 0
v -1168 -240 0
v -1184 -240 0
v -1184 -224 0
v -1168 -224 0
v -1152 -240 0
v -1168 -240 0
v -1168 -224 0
v -1152 -224 0
v -1136 -240 0
v -1152 -240 0
v -1152 -224 0
v -1136 -224 0
v -1184 -256 0
v -1200 -256 0
v -1200 -240 0
v -1184 -240 0
v -1168 -256 0
v -1184 -256 0
v -1184 -240 0
v -1168 -240 0
v -1152 -256 0
v -1168 -256 0
v -1168 -240 0
v -1152 -240 0
v -1136 -256 0
v -1152 -256 0
v -1152 -240 0
v -1136 -240 0
v -432 -256 0
v -448 -256 0
v -448 -240 0
v -432 -240 0
v -416 -256 0
v -432 -256 0
v -432 -240 0
v -416 -240 0
v -400 -256 0
v -416 -256 0
v -416 -240 0
v -400 -240 0
v -384 -256 0
v -400 -256 0
v -400 -240 0
v -384 -240 0
v -368 -256 0
v -384 -256 0
v -384 -240 0
v -368 -240 0
v -432 -272 0
v -448 -272 0
v -448 -256 0
v -432 -256 0
v -416 -272 0
v -432 -272 0
v -432 -256 0
v -416 -256 0
v -400 -272 0
v -416 -272 0
v -416 -256 0
v -400 -256 0
v -384 -272 0
v -400 -272 0
v -400 -256 0
v -384 -256 0
v -368 -272 0
v -384 -272 0
v -384 -256 0
v -368 -256 0
v -432 -288 0
v -448 -288 0
v -448 -272 0
v -432 -272 0
v -416 -288 0
v -432 -288 0
v -432 -272 0
v -416 -272 0
v -400 -288 0
v -416 -288 0
v -416 -272 0
v -400 -272 0
v -384 -288 0
v -400 -288 0
v -400 -272 0
v -384 -272 0
v -368 -288 0
v -384 -288 0
v -384 -272 0
v -368 -272 0
v -432 -304 0
v -448 -304 0
v -448 -288 0
v -432 -288 0
v -416 -304 0
v -432 -304 0
v -432 -288 0
v -416 -288 0
v -400 -304 0
v -416 -304 0
v -416 -288 0
v -400 -288 0
v -384 -304 0
v -400 -304 0
v -400 -288 0
v -384 -288 0
v -368 -304 0
v -384 -304 0
v -384 -288 0
v -368 -288 0
v -320 -304 0
v -336 -304 0
v -336 -288 0
v -320 -288 0
v -336 -448 0
v -352 -448 0
v -352 -432 0
v -336 -432 0
v -320 -448 0
v -336 -448 0
v -336 -432 0
v -320 -432 0
v -304 -448 0
v -320 -448 0
v -320 -432 0
v -304 -432 0
v -288 -448 0
v -304 -448 0
v -304 -432 0
v -288 -432 0
v -272 -448 0
v -288 -448 0
v -288 -432 0
v -272 -432 0
v -336 -464 0
v -352 -464 0
v -352 -448 0
v -336 -448 0
v -320 -464 0
v -336 -464 0
v -336 -448 0
v -320 -448 0
v -304 -464 0
v -320 -464 0
v -320 -448 0
v -304 -448 0
v -288 -464 0
v -304 -464 0
v -304 -448 0
v -288 -448 0
v -272 -464 0
v -288 -464 0
v -288 -448 0
v -272 -448 0
v -336 -480 0
v -352 -480 0
v -352 -464 0
v -336 -464 0
v -320 -480 0
v -336 -480 0
v -336 -464 0
v -320 -464 0
v -304 -480 0
v -320 -480 0
v -320 -464 0
v -304 -464 0
v -288 -480 0
v -304 -480 0
v -304 -464 0
v -288 -464 0
v -272 -480 0
v -288 -480 0
v -288 -464 0
v -272 -464 0
v -336 -496 0
v -352 -496 0
v -352 -480 0
v -336 -480 0
v -320 -496 0
v -336 -496 0
v -336 -480 0
v -320 -480 0
v -304 -496 0
v -320 -496 0
v -320 -480 0
v -304 -480 0
v -288 -496 0
v -304 -496 0
v -304 -480 0
v -288 -480 0
v -272 -496 0
v -288 -496 0
v -288 -480 0
v -272 -480 0
v -1184 -560 0
v -1200 -560 0
v -1200 -544 0
v -1184 -544 0
v -1168 -560 0
v -1184 -560 0
v -1184 -544 0
v -1168 -544 0
v -1184 -576 0
v -1200 -576 0
v -1200 -560 0
v -1184 -560 0
v -1168 -576 0
v -1184 -576 0
v -1184 -560 0
v -1168 -560 0
v -1184 -592 0
v -1200 -592 0
v -1200 -576 0
v -1184 -576 0
v -1168 -592 0
v -1184 -592 0
v -1184 -576 0
v -1168 -576 0
v -1184 -608 0
v -1200 -608 0
v -1200 -592 0
v -1184 -592 0
v -1168 -608 0
v -1184 -608 0
v -1184 -592 0
v -1168 -592 0
v -992 -976 0
v -1008 -976 0
v -1008 -960 0
v -992 -960 0
v -976 -976 0
v -992 -976 0
v -992 -960 0
v -976 -960 0
v -960 -976 0
v -976 -976 0
v -976 -960 0
v -960 -960 0
v -944 -976 0
v -960 -976 0
v -960 -960 0
v -944 -960 0
v -992 -992 0
v -1008 -992 0
v -1008 -976 0
v -992 -976 0
v -976 -992 0
v -992 -992 0
v -992 -976 0
v -976 -976 0
v -960 -992 0
v -976 -992 0
v -976 -976 0
v -960 -976 0
v -944 -992 0
v -960 -992 0
v -960 -976 0
v -944 -976 0
v -992 -1008 0
v -1008 -1008 0
v -1008 -992 0
v -992 -992 0
v -976 -1008 0
v -992 -1008 0
v -992 -992 0
v -976 -992 0
v -960 -1008 0
v -976 -1008 0
v -976 -992 0
v -960 -992 0
v -944 -1008 0
v -960 -1008 0
v -960 -992 0
v -944 -992 0
v -992 -1024 0
v -1008 -1024 0
v -1008 -1008 0
v -992 -1008 0
v -976 -1024 0
v -992 -1024 0
v -992 -1008 0
v -976 -1008 0
v -960 -1024 0
v -976 -1024 0
v -976 -1008 0
v -960 -1008 0
v -944 -1024 0
v -960 -1024 0
v -960 -1008 0
v -944 -1008 0
v -1184 -1168 0
v -1200 -1168 0
v -1200 -1152 0
v -1184 -1152 0
v -1168 -1168 0
v -1184 -1168 0
v -1184 -1152 0
v -1168 -1152 0
v -1152 -1168 0
v -1168 -1168 0
v -1168 -1152 0
v -1152 -1152 0
v -1136 -1168 0
v -1152 -1168 0
v -1152 -1152 0
v -1136 -1152 0
v -1120 -1168 0
v -1136 -1168 0
v -1136 -1152 0
v -1120 -1152 0
v -1104 -1168 0
v -1120 -1168 0
v -1120 -1152 0
v -1104 -1152 0
v -1088 -1168 0
v -1104 -1168 0
v -1104 -1152 0
v -1088 -1152 0
v -1072 -1168 0
v -1088 -1168 0
v -1088 -1152 0
v -1072 -1152 0
v -1056 -1168 0
v -1072 -1168 0
v -1072 -1152 0
v -1056 -1152 0
v -1040 -1168 0
v -1056 -1168 0
v -1056 -1152 0
v -1040 -1152 0
v -1024 -1168 0
v -1040 -1168 0
v -1040 -1152 0
v -1024 -1152 0
v -1008 -1168 0
v -1024 -1168 0
v -1024 -1152 0
v -1008 -1152 0
v -992 -1168 0
v -1008 -1168 0
v -1008 -1152 0
v -992 -1152 0
v -976 -1168 0
v -992 -1168 0
v -992 -1152 0
v -976 -1152 0
v -960 -1168 0
v -976 -1168 0
v -976 -1152 0
v -960 -1152 0
v -944 -1168 0
v -960 -1168 0
v -960 -1152 0
v -944 -1152 0
v -928 -1168 0
v -944 -1168 0
v -944 -1152 0
v -928 -1152 0
v -912 -1168 0
v -928 -1168 0
v -928 -1152 0
v -912 -1152 0
v -896 -1168 0
v -912 -1168 0
v -912 -1152 0
v -896 -1152 0
v -880 -1168 0
v -896 -1168 0
v -896 -1152 0
v -880 -1152 0
v -864 -1168 0
v -880 -1168 0
v -880 -1152 0
v -864 -1152 0
v -848 -1168 0
v -864 -1168 0
v -864 -1152 0
v -848 -1152 0
v -832 -1168 0
v -848 -1168 0
v -848 -1152 0
v -832 -1152 0
v -816 -1168 0
v -832 -1168 0
v -832 -1152 0
v -816 -1152 0
v -800 -1168 0
v -816 -1168 0
v -816 -1152 0
v -800 -1152 0
v -784 -1168 0
v -800 -1168 0
v -800 -1152 0
v -784 -1152 0
v -768 -1168 0
v -784 -1168 0
v -784 -1152 0
v -768 -1152 0
v -752 -1168 0
v -768 -1168 0
v -768 -1152 0
v -752 -1152 0
v -736 -1168 0
v -752 -1168 0
v -752 -1152 0
v -736 -1152 0
v -720 -1168 0
v -736 -1168 0
v -736 -1152 0
v -720 -1152 0
v -704 -1168 0
v -720 -1168 0
v -720 -1152 0
v -704 -1152 0
v -528 -1168 0
v -544 -1168 0
v -544 -1152 0
v -528 -1152 0
v -512 -1168 0
v -528 -1168 0
v -528 -1152 0
v -512 -1152 0
v -496 -1168 0
v -512 -1168 0
v -512 -1152 0
v -496 -1152 0
v -480 -1168 0
v -496 -1168 0
v -496 -1152 0
v -480 -1152 0
v -464 -1168 0
v -480 -1168 0
v -480 -1152 0
v -464 -1152 0
v -1184 -1184 0
v -1200 -1184 0
v -1200 -1168 0
v -1184 -1168 0
v -1168 -1184 0
v -1184 -1184 0
v -1184 -1168 0
v -1168 -1168 0
v -1152 -1184 0
v -1168 -1184 0
v -1168 -1168 0
v -1152 -1168 0
v -1136 -1184 0
v -1152 -1184 0
v -1152 -1168 0
v -1136 -1168 0
v -1120 -1184 0
v -1136 -1184 0
v -1136 -1168 0
v -1120 -1168 0
v -1104 -1184 0
v -1120 -1184 0
v -1120 -1168 0
v -1104 -1168 0
v -1088 -1184 0
v -1104 -1184 0
v -1104 -1168 0
v -1088 -1168 0
v -1072 -1184 0
v -1088 -1184 0
v -1088 -1168 0
v -1072 -1168 0
v -1056 -1184 0
v -1072 -1184 0
v -1072 -1168 0
v -1056 -1168 0
v -1040 -1184 0
v -1056 -1184 0
v -1056 -1168 0
v -1040 -1168 0
v -1024 -1184 0
v -1040 -1184 0
v -1040 -1168 0
v -1024 -1168 0
v -1008 -1184 0
v -1024 -1184 0
v -1024 -1168 0
v -1008 -1168 0
v -992 -1184 0
v -1008 -1184 0
v -1008 -1168 0
v -992 -1168 0
v -976 -1184 0
v -992 -1184 0
v -992 -1168 0
v -976 -1168 0
v -960 -1184 0
v -976 -1184 0
v -976 -1168 0
v -960 -1168 0
v -944 -1184 0
v -960 -1184 0
v -960 -1168 0
v -944 -1168 0
v -928 -1184 0
v -944 -1184 0
v -944 -1168 0
v -928 -1168 0
v -912 -1184 0
v -928 -1184 0
v -928 -1168 0
v -912 -1168 0
v -896 -1184 0
v -912 -1184 0
v -912 -1168 0
v -896 -1168 0
v -880 -1184 0
v -896 -1184 0
v -896 -1168 0
v -880 -1168 0
v -864 -1184 0
v -880 -1184 0
v -880 -1168 0
v -864 -1168 0
v -848 -1184 0
v -864 -1184 0
v -864 -1168 0
v -848 -1168 0
v -832 -1184 0
v -848 -1184 0
v -848 -1168 0
v -832 -1168 0
v -816 -1184 0
v -832 -1184 0
v -832 -1168 0
v -816 -1168 0
v -800 -1184 0
v -816 -1184 0
v -816 -1168 0
v -800 -1168 0
v -784 -1184 0
v -800 -1184 0
v -800 -1168 0
v -784 -1168 0
v -768 -1184 0
v -784 -1184 0
v -784 -1168 0
v -768 -1168 0
v -752 -1184 0
v -768 -1184 0
v -768 -1168 0
v -752 -1168 0
v -736 -1184 0
v -752 -1184 0
v -752 -1168 0
v -736 -1168 0
v -720 -1184 0
v -736 -1184 0
v -736 -1168 0
v -720 -1168 0
v -704 -1184 0
v -720 -1184 0
v -720 -1168 0
v -704 -1168 0
v -528 -1184 0
v -544 -1184 0
v -544 -1168 0
v -528 -1168 0
v -512 -1184 0
v -528 -1184 0
v -528 -1168 0
v -512 -1168 0
v -496 -1184 0
v -512 -1184 0
v -512 -1168 0
v -496 -1168 0
v -480 -1184 0
v -496 -1184 0
v -496 -1168 0
v -480 -1168 0
v -464 -1184 0
v -480 -1184 0
v -480 -1168 0
v -464 -1168 0
v -1184 -1200 0
v -1200 -1200 0
v -1200 -1184 0
v -1184 -1184 0
v -1168 -1200 0
v -1184 -1200 0
v -1184 -1184 0
v -1168 -1184 0
v -1152 -1200 0
v -1168 -1200 0
v -1168 -1184 0
v -1152 -1184 0
v -1136 -1200 0
v -1152 -1200 0
v -1152 -1184 0
v -1136 -1184 0
v -1120 -1200 0
v -1136 -1200 0
v -1136 -1184 0
v -1120 -1184 0
v -1104 -1200 0
v -1120 -1200 0
v -1120 -1184 0
v -1104 -1184 0
v -1088 -1200 0
v -1104 -1200 0
v -1104 -1184 0
v -1088 -1184 0
v -1072 -1200 0
v -1088 -1200 0
v -1088 -1184 0
v -1072 -1184 0
v -1056 -1200 0
v -1072 -1200 0
v -1072 -1184 0
v -1056 -1184 0
v -1040 -1200 0
v -1056 -1200 0
v -1056 -1184 0
v -1040 -1184 0
v -1024 -1200 0
v -1040 -1200 0
v -1040 -1184 0
v -1024 -1184 0
v -1008 -1200 0
v -1024 -1200 0
v -1024 -1184 0
v -1008 -1184 0
v -992 -1200 0
v -1008 -1200 0
v -1008 -1184 0
v -992 -1184 0
v -976 -1200 0
v -992 -1200 0
v -992 -1184 0
v -976 -1184 0
v -960 -1200 0
v -976 -1200 0
v -976 -1184 0
v -960 -1184 0
v -944 -1200 0
v -960 -1200 0
v -960 -1184 0
v -944 -1184 0
v -928 -1200 0
v -944 -1200 0
v -944 -1184 0
v -928 -1184 0
v -912 -1200 0
v -928 -1200 0
v -928 -1184 0
v -912 -1184 0
v -896 -1200 0
v -912 -1200 0
v -912 -1184 0
v -896 -1184 0
v -880 -1200 0
v -896 -1200 0
v -896 -1184 0
v -880 -1184 0
v -864 -1200 0
v -880 -1200 0
v -880 -1184 0
v -864 -1184 0
v -848 -1200 0
v -864 -1200 0
v -864 -1184 0
v -848 -1184 0
v -832 -1200 0
v -848 -1200 0
v -848 -1184 0
v -832 -1184 0
v -816 -1200 0
v -832 -1200 0
v -832 -1184 0
v -816 -1184 0
v -800 -1200 0
v -816 -1200 0
v -816 -1184 0
v -800 -1184 0
v -784 -1200 0
v -800 -1200 0
v -800 -1184 0
v -784 -1184 0
v -768 -1200 0
v -784 -1200 0
v -784 -1184 0
v -768 -1184 0
v -752 -1200 0
v -768 -1200 0
v -768 -1184 0
v -752 -1184 0
v -736 -1200 0
v -752 -1200 0
v -752 -1184 0
v -736 -1184 0
v -720 -1200 0
v -736 -1200 0
v -736 -1184 0
v -720 -1184 0
v -704 -1200 0
v -720 -1200 0
v -720 -1184 0
v -704 -1184 0
v -528 -1200 0
v -544 -1200 0
v -544 -1184 0
v -528 -1184 0
v -512 -1200 0
v -528 -1200 0
v -528 -1184 0
v -512 -1184 0
v -496 -1200 0
v -512 -1200 0
v -512 -1184 0
v -496 -1184 0
v -480 -1200 0
v -496 -1200 0
v -496 -1184 0
v -480 -1184 0
v -464 -1200 0
v -480 -1200 0
v -480 -1184 0
v -464 -1184 0

# Texture cooridinates (Count = 70)
vt 0.75 0.8024194
vt 0.875 0.8024194
vt 0.875 0.8064516
vt 0.75 0.8064516
vt 0.625 0.8024194
vt 0.625 0.8064516
vt 0.5 0.8024194
vt 0.5 0.8064516
vt 0 0.8024194
vt 0.125 0.8024194
vt 0.125 0.8064516
vt 0 0.8064516
vt 0.75 0.7983871
vt 0.875 0.7983871
vt 0.625 0.7983871
vt 0.5 0.7983871
vt 0 0.7983871
vt 0.125 0.7983871
vt 0.75 0.7943549
vt 0.875 0.7943549
vt 0.625 0.7943549
vt 0.5 0.7943549
vt 0 0.7943549
vt 0.125 0.7943549
vt 0.75 0.7903226
vt 0.875 0.7903226
vt 0.625 0.7903226
vt 0.5 0.7903226
vt 0 0.7903226
vt 0.125 0.7903226
vt 1 0.8024194
vt 1 0.8064516
vt 0.375 0.8024194
vt 0.375 0.8064516
vt 0.25 0.8024194
vt 0.25 0.8064516
vt 1 0.7983871
vt 0.375 0.7983871
vt 0.25 0.7983871
vt 1 0.7943549
vt 0.375 0.7943549
vt 0.25 0.7943549
vt 1 0.7903226
vt 0.375 0.7903226
vt 0.25 0.7903226
vt 0.375 0.8548387
vt 0.5 0.8548387
vt 0.5 0.858871
vt 0.375 0.858871
vt 0.25 0.8548387
vt 0.25 0.858871
vt 0.125 0.8548387
vt 0.125 0.858871
vt 0 0.8548387
vt 0 0.858871
vt 0.375 0.8508065
vt 0.5 0.8508065
vt 0.25 0.8508065
vt 0.125 0.8508065
vt 0 0.8508065
vt 0.375 0.8467742
vt 0.5 0.8467742
vt 0.25 0.8467742
vt 0.125 0.8467742
vt 0 0.8467742
vt 0.375 0.842742
vt 0.5 0.842742
vt 0.25 0.842742
vt 0.125 0.842742
vt 0 0.842742

# Normal
vn 0 0 -1

# Mesh description
g field_mesh_0029

# Faces
f 1/1/1 2/2/1 3/3/1 4/4/1
f 5/5/1 6/1/1 7/4/1 8/6/1
f 9/7/1 10/5/1 11/6/1 12/8/1
f 13/9/1 14/10/1 15/11/1 16/12/1
f 17/13/1 18/14/1 19/2/1 20/1/1
f 21/15/1 22/13/1 23/1/1 24/5/1
f 25/16/1 26/15/1 27/5/1 28/7/1
f 29/17/1 30/18/1 31/10/1 32/9/1
f 33/19/1 34/20/1 35/14/1 36/13/1
f 37/21/1 38/19/1 39/13/1 40/15/1
f 41/22/1 42/21/1 43/15/1 44/16/1
f 45/23/1 46/24/1 47/18/1 48/17/1
f 49/25/1 50/26/1 51/20/1 52/19/1
f 53/27/1 54/25/1 55/19/1 56/21/1
f 57/28/1 58/27/1 59/21/1 60/22/1
f 61/29/1 62/30/1 63/24/1 64/23/1
f 65/2/1 66/31/1 67/32/1 68/3/1
f 69/33/1 70/7/1 71/8/1 72/34/1
f 73/35/1 74/33/1 75/34/1 76/36/1
f 77/10/1 78/35/1 79/36/1 80/11/1
f 81/29/1 82/30/1 83/24/1 84/23/1
f 85/14/1 86/37/1 87/31/1 88/2/1
f 89/38/1 90/16/1 91/7/1 92/33/1
f 93/39/1 94/38/1 95/33/1 96/35/1
f 97/18/1 98/39/1 99/35/1 100/10/1
f 101/17/1 102/18/1 103/10/1 104/9/1
f 105/20/1 106/40/1 107/37/1 108/14/1
f 109/41/1 110/22/1 111/16/1 112/38/1
f 113/42/1 114/41/1 115/38/1 116/39/1
f 117/24/1 118/42/1 119/39/1 120/18/1
f 121/23/1 122/24/1 123/18/1 124/17/1
f 125/26/1 126/43/1 127/40/1 128/20/1
f 129/44/1 130/28/1 131/22/1 132/41/1
f 133/45/1 134/44/1 135/41/1 136/42/1
f 137/30/1 138/45/1 139/42/1 140/24/1
f 141/29/1 142/30/1 143/24/1 144/23/1
f 145/29/1 146/30/1 147/24/1 148/23/1
f 149/2/1 150/31/1 151/32/1 152/3/1
f 153/33/1 154/7/1 155/8/1 156/34/1
f 157/35/1 158/33/1 159/34/1 160/36/1
f 161/10/1 162/35/1 163/36/1 164/11/1
f 165/9/1 166/10/1 167/11/1 168/12/1
f 169/14/1 170/37/1 171/31/1 172/2/1
f 173/38/1 174/16/1 175/7/1 176/33/1
f 177/39/1 178/38/1 179/33/1 180/35/1
f 181/18/1 182/39/1 183/35/1 184/10/1
f 185/17/1 186/18/1 187/10/1 188/9/1
f 189/20/1 190/40/1 191/37/1 192/14/1
f 193/41/1 194/22/1 195/16/1 196/38/1
f 197/42/1 198/41/1 199/38/1 200/39/1
f 201/24/1 202/42/1 203/39/1 204/18/1
f 205/23/1 206/24/1 207/18/1 208/17/1
f 209/26/1 210/43/1 211/40/1 212/20/1
f 213/44/1 214/28/1 215/22/1 216/41/1
f 217/45/1 218/44/1 219/41/1 220/42/1
f 221/30/1 222/45/1 223/42/1 224/24/1
f 225/29/1 226/30/1 227/24/1 228/23/1
f 229/10/1 230/35/1 231/36/1 232/11/1
f 233/9/1 234/10/1 235/11/1 236/12/1
f 237/18/1 238/39/1 239/35/1 240/10/1
f 241/17/1 242/18/1 243/10/1 244/9/1
f 245/24/1 246/42/1 247/39/1 248/18/1
f 249/23/1 250/24/1 251/18/1 252/17/1
f 253/30/1 254/45/1 255/42/1 256/24/1
f 257/29/1 258/30/1 259/24/1 260/23/1
f 261/46/1 262/47/1 263/48/1 264/49/1
f 265/50/1 266/46/1 267/49/1 268/51/1
f 269/52/1 270/50/1 271/51/1 272/53/1
f 273/54/1 274/52/1 275/53/1 276/55/1
f 277/56/1 278/57/1 279/47/1 280/46/1
f 281/58/1 282/56/1 283/46/1 284/50/1
f 285/59/1 286/58/1 287/50/1 288/52/1
f 289/60/1 290/59/1 291/52/1 292/54/1
f 293/61/1 294/62/1 295/57/1 296/56/1
f 297/63/1 298/61/1 299/56/1 300/58/1
f 301/64/1 302/63/1 303/58/1 304/59/1
f 305/65/1 306/64/1 307/59/1 308/60/1
f 309/66/1 310/67/1 311/62/1 312/61/1
f 313/68/1 314/66/1 315/61/1 316/63/1
f 317/69/1 318/68/1 319/63/1 320/64/1
f 321/70/1 322/69/1 323/64/1 324/65/1
f 325/1/1 326/2/1 327/3/1 328/4/1
f 329/5/1 330/1/1 331/4/1 332/6/1
f 333/7/1 334/5/1 335/6/1 336/8/1
f 337/33/1 338/7/1 339/8/1 340/34/1
f 341/5/1 342/1/1 343/4/1 344/6/1
f 345/7/1 346/5/1 347/6/1 348/8/1
f 349/33/1 350/7/1 351/8/1 352/34/1
f 353/5/1 354/1/1 355/4/1 356/6/1
f 357/7/1 358/5/1 359/6/1 360/8/1
f 361/33/1 362/7/1 363/8/1 364/34/1
f 365/5/1 366/1/1 367/4/1 368/6/1
f 369/7/1 370/5/1 371/6/1 372/8/1
f 373/33/1 374/7/1 375/8/1 376/34/1
f 377/5/1 378/1/1 379/4/1 380/6/1
f 381/7/1 382/5/1 383/6/1 384/8/1
f 385/33/1 386/7/1 387/8/1 388/34/1
f 389/5/1 390/1/1 391/4/1 392/6/1
f 393/7/1 394/5/1 395/6/1 396/8/1
f 397/33/1 398/7/1 399/8/1 400/34/1
f 401/5/1 402/1/1 403/4/1 404/6/1
f 405/7/1 406/5/1 407/6/1 408/8/1
f 409/33/1 410/7/1 411/8/1 412/34/1
f 413/5/1 414/1/1 415/4/1 416/6/1
f 417/7/1 418/5/1 419/6/1 420/8/1
f 421/33/1 422/7/1 423/8/1 424/34/1
f 425/5/1 426/1/1 427/4/1 428/6/1
f 429/7/1 430/5/1 431/6/1 432/8/1
f 433/33/1 434/7/1 435/8/1 436/34/1
f 437/35/1 438/33/1 439/34/1 440/36/1
f 441/10/1 442/35/1 443/36/1 444/11/1
f 445/9/1 446/10/1 447/11/1 448/12/1
f 449/2/1 450/31/1 451/32/1 452/3/1
f 453/1/1 454/2/1 455/3/1 456/4/1
f 457/5/1 458/1/1 459/4/1 460/6/1
f 461/7/1 462/5/1 463/6/1 464/8/1
f 465/9/1 466/10/1 467/11/1 468/12/1
f 469/13/1 470/14/1 471/2/1 472/1/1
f 473/15/1 474/13/1 475/1/1 476/5/1
f 477/16/1 478/15/1 479/5/1 480/7/1
f 481/38/1 482/16/1 483/7/1 484/33/1
f 485/15/1 486/13/1 487/1/1 488/5/1
f 489/16/1 490/15/1 491/5/1 492/7/1
f 493/38/1 494/16/1 495/7/1 496/33/1
f 497/15/1 498/13/1 499/1/1 500/5/1
f 501/16/1 502/15/1 503/5/1 504/7/1
f 505/38/1 506/16/1 507/7/1 508/33/1
f 509/15/1 510/13/1 511/1/1 512/5/1
f 513/16/1 514/15/1 515/5/1 516/7/1
f 517/38/1 518/16/1 519/7/1 520/33/1
f 521/15/1 522/13/1 523/1/1 524/5/1
f 525/16/1 526/15/1 527/5/1 528/7/1
f 529/38/1 530/16/1 531/7/1 532/33/1
f 533/15/1 534/13/1 535/1/1 536/5/1
f 537/16/1 538/15/1 539/5/1 540/7/1
f 541/38/1 542/16/1 543/7/1 544/33/1
f 545/15/1 546/13/1 547/1/1 548/5/1
f 549/16/1 550/15/1 551/5/1 552/7/1
f 553/38/1 554/16/1 555/7/1 556/33/1
f 557/15/1 558/13/1 559/1/1 560/5/1
f 561/16/1 562/15/1 563/5/1 564/7/1
f 565/38/1 566/16/1 567/7/1 568/33/1
f 569/15/1 570/13/1 571/1/1 572/5/1
f 573/16/1 574/15/1 575/5/1 576/7/1
f 577/38/1 578/16/1 579/7/1 580/33/1
f 581/39/1 582/38/1 583/33/1 584/35/1
f 585/18/1 586/39/1 587/35/1 588/10/1
f 589/17/1 590/18/1 591/10/1 592/9/1
f 593/14/1 594/37/1 595/31/1 596/2/1
f 597/13/1 598/14/1 599/2/1 600/1/1
f 601/15/1 602/13/1 603/1/1 604/5/1
f 605/16/1 606/15/1 607/5/1 608/7/1
f 609/17/1 610/18/1 611/10/1 612/9/1
f 613/19/1 614/20/1 615/14/1 616/13/1
f 617/21/1 618/19/1 619/13/1 620/15/1
f 621/22/1 622/21/1 623/15/1 624/16/1
f 625/41/1 626/22/1 627/16/1 628/38/1
f 629/21/1 630/19/1 631/13/1 632/15/1
f 633/22/1 634/21/1 635/15/1 636/16/1
f 637/41/1 638/22/1 639/16/1 640/38/1
f 641/21/1 642/19/1 643/13/1 644/15/1
f 645/22/1 646/21/1 647/15/1 648/16/1
f 649/41/1 650/22/1 651/16/1 652/38/1
f 653/21/1 654/19/1 655/13/1 656/15/1
f 657/22/1 658/21/1 659/15/1 660/16/1
f 661/41/1 662/22/1 663/16/1 664/38/1
f 665/21/1 666/19/1 667/13/1 668/15/1
f 669/22/1 670/21/1 671/15/1 672/16/1
f 673/41/1 674/22/1 675/16/1 676/38/1
f 677/21/1 678/19/1 679/13/1 680/15/1
f 681/22/1 682/21/1 683/15/1 684/16/1
f 685/41/1 686/22/1 687/16/1 688/38/1
f 689/21/1 690/19/1 691/13/1 692/15/1
f 693/22/1 694/21/1 695/15/1 696/16/1
f 697/41/1 698/22/1 699/16/1 700/38/1
f 701/21/1 702/19/1 703/13/1 704/15/1
f 705/22/1 706/21/1 707/15/1 708/16/1
f 709/41/1 710/22/1 711/16/1 712/38/1
f 713/21/1 714/19/1 715/13/1 716/15/1
f 717/22/1 718/21/1 719/15/1 720/16/1
f 721/41/1 722/22/1 723/16/1 724/38/1
f 725/42/1 726/41/1 727/38/1 728/39/1
f 729/24/1 730/42/1 731/39/1 732/18/1
f 733/23/1 734/24/1 735/18/1 736/17/1
f 737/20/1 738/40/1 739/37/1 740/14/1
f 741/19/1 742/20/1 743/14/1 744/13/1
f 745/21/1 746/19/1 747/13/1 748/15/1
f 749/22/1 750/21/1 751/15/1 752/16/1
f 753/23/1 754/24/1 755/18/1 756/17/1

