# Tiled2Unity generated file. Do not modify by hand.
# Wavefront file for 'field_mesh_0007.obj'

# Vertices (Count = 212)
v -256 -16 0
v -272 -16 0
v -272 0 0
v -256 0 0
v -224 -16 0
v -240 -16 0
v -240 0 0
v -224 0 0
v -176 -16 0
v -192 -16 0
v -192 0 0
v -176 0 0
v -48 -16 0
v -64 -16 0
v -64 0 0
v -48 0 0
v -1136 -48 0
v -1152 -48 0
v -1152 -32 0
v -1136 -32 0
v -1120 -48 0
v -1136 -48 0
v -1136 -32 0
v -1120 -32 0
v -1104 -48 0
v -1120 -48 0
v -1120 -32 0
v -1104 -32 0
v -1184 -64 0
v -1200 -64 0
v -1200 -48 0
v -1184 -48 0
v -1136 -64 0
v -1152 -64 0
v -1152 -48 0
v -1136 -48 0
v -1120 -64 0
v -1136 -64 0
v -1136 -48 0
v -1120 -48 0
v -1104 -64 0
v -1120 -64 0
v -1120 -48 0
v -1104 -48 0
v -1136 -80 0
v -1152 -80 0
v -1152 -64 0
v -1136 -64 0
v -1120 -80 0
v -1136 -80 0
v -1136 -64 0
v -1120 -64 0
v -1104 -80 0
v -1120 -80 0
v -1120 -64 0
v -1104 -64 0
v -1056 -80 0
v -1072 -80 0
v -1072 -64 0
v -1056 -64 0
v -1040 -80 0
v -1056 -80 0
v -1056 -64 0
v -1040 -64 0
v -1136 -96 0
v -1152 -96 0
v -1152 -80 0
v -1136 -80 0
v -1120 -96 0
v -1136 -96 0
v -1136 -80 0
v -1120 -80 0
v -1104 -96 0
v -1120 -96 0
v -1120 -80 0
v -1104 -80 0
v -1056 -96 0
v -1072 -96 0
v -1072 -80 0
v -1056 -80 0
v -1088 -112 0
v -1104 -112 0
v -1104 -96 0
v -1088 -96 0
v -1072 -112 0
v -1088 -112 0
v -1088 -96 0
v -1072 -96 0
v -1088 -128 0
v -1104 -128 0
v -1104 -112 0
v -1088 -112 0
v -1072 -128 0
v -1088 -128 0
v -1088 -112 0
v -1072 -112 0
v -1104 -144 0
v -1120 -144 0
v -1120 -128 0
v -1104 -128 0
v -1088 -144 0
v -1104 -144 0
v -1104 -128 0
v -1088 -128 0
v -1072 -144 0
v -1088 -144 0
v -1088 -128 0
v -1072 -128 0
v -1104 -160 0
v -1120 -160 0
v -1120 -144 0
v -1104 -144 0
v -1088 -160 0
v -1104 -160 0
v -1104 -144 0
v -1088 -144 0
v -1072 -160 0
v -1088 -160 0
v -1088 -144 0
v -1072 -144 0
v -1104 -176 0
v -1120 -176 0
v -1120 -160 0
v -1104 -160 0
v -1088 -176 0
v -1104 -176 0
v -1104 -160 0
v -1088 -160 0
v -1072 -176 0
v -1088 -176 0
v -1088 -160 0
v -1072 -160 0
v -1104 -384 0
v -1120 -384 0
v -1120 -368 0
v -1104 -368 0
v -1104 -400 0
v -1120 -400 0
v -1120 -384 0
v -1104 -384 0
v -896 -416 0
v -912 -416 0
v -912 -400 0
v -896 -400 0
v -208 -736 0
v -224 -736 0
v -224 -720 0
v -208 -720 0
v -160 -752 0
v -176 -752 0
v -176 -736 0
v -160 -736 0
v -160 -768 0
v -176 -768 0
v -176 -752 0
v -160 -752 0
v -256 -784 0
v -272 -784 0
v -272 -768 0
v -256 -768 0
v -240 -784 0
v -256 -784 0
v -256 -768 0
v -240 -768 0
v -224 -784 0
v -240 -784 0
v -240 -768 0
v -224 -768 0
v -336 -800 0
v -352 -800 0
v -352 -784 0
v -336 -784 0
v -320 -800 0
v -336 -800 0
v -336 -784 0
v -320 -784 0
v -304 -800 0
v -320 -800 0
v -320 -784 0
v -304 -784 0
v -256 -800 0
v -272 -800 0
v -272 -784 0
v -256 -784 0
v -240 -800 0
v -256 -800 0
v -256 -784 0
v -240 -784 0
v -336 -816 0
v -352 -816 0
v -352 -800 0
v -336 -800 0
v -320 -816 0
v -336 -816 0
v -336 -800 0
v -320 -800 0
v -304 -816 0
v -320 -816 0
v -320 -800 0
v -304 -800 0
v -336 -832 0
v -352 -832 0
v -352 -816 0
v -336 -816 0
v -320 -832 0
v -336 -832 0
v -336 -816 0
v -320 -816 0
v -304 -832 0
v -320 -832 0
v -320 -816 0
v -304 -816 0

# Texture cooridinates (Count = 69)
vt 0.375 0.7217742
vt 0.5 0.7217742
vt 0.5 0.7258065
vt 0.375 0.7258065
vt 0.875 0.875
vt 1 0.875
vt 1 0.8790323
vt 0.875 0.8790323
vt 0.75 0.875
vt 0.75 0.8790323
vt 0.625 0.875
vt 0.625 0.8790323
vt 0.25 0.8306451
vt 0.375 0.8306451
vt 0.375 0.8346774
vt 0.25 0.8346774
vt 0.875 0.8709677
vt 1 0.8709677
vt 0.75 0.8709677
vt 0.625 0.8709677
vt 0.875 0.8669355
vt 1 0.8669355
vt 0.75 0.8669355
vt 0.625 0.8669355
vt 0.875 0.8629032
vt 1 0.8629032
vt 0.75 0.8629032
vt 0.625 0.8629032
vt 0.5 0.9556451
vt 0.375 0.9556451
vt 0.375 0.9596774
vt 0.5 0.9596774
vt 0.625 0.9556451
vt 0.625 0.9596774
vt 0.5 0.9516129
vt 0.375 0.9516129
vt 0.625 0.9516129
vt 0.875 0.7298387
vt 1 0.7298387
vt 1 0.733871
vt 0.875 0.733871
vt 0.75 0.7298387
vt 0.75 0.733871
vt 0.625 0.7298387
vt 0.625 0.733871
vt 0.875 0.7258065
vt 1 0.7258065
vt 0.75 0.7258065
vt 0.625 0.7258065
vt 0.875 0.7217742
vt 1 0.7217742
vt 0.75 0.7217742
vt 0.625 0.7217742
vt 0.875 0.8830645
vt 1 0.8830645
vt 1 0.8870968
vt 0.875 0.8870968
vt 0.125 0.9193549
vt 0.25 0.9193549
vt 0.25 0.9233871
vt 0.125 0.9233871
vt 0.5 0.9475806
vt 0.625 0.9475806
vt 0.375 0.9475806
vt 0.75 0.8830645
vt 0.75 0.8870968
vt 0.5 0.9435484
vt 0.625 0.9435484
vt 0.375 0.9435484

# Normal
vn 0 0 -1

# Mesh description
g field_mesh_0007

# Faces
f 1/1/1 2/2/1 3/3/1 4/4/1
f 5/1/1 6/2/1 7/3/1 8/4/1
f 9/1/1 10/2/1 11/3/1 12/4/1
f 13/1/1 14/2/1 15/3/1 16/4/1
f 17/5/1 18/6/1 19/7/1 20/8/1
f 21/9/1 22/5/1 23/8/1 24/10/1
f 25/11/1 26/9/1 27/10/1 28/12/1
f 29/13/1 30/14/1 31/15/1 32/16/1
f 33/17/1 34/18/1 35/6/1 36/5/1
f 37/19/1 38/17/1 39/5/1 40/9/1
f 41/20/1 42/19/1 43/9/1 44/11/1
f 45/21/1 46/22/1 47/18/1 48/17/1
f 49/23/1 50/21/1 51/17/1 52/19/1
f 53/24/1 54/23/1 55/19/1 56/20/1
f 57/1/1 58/2/1 59/3/1 60/4/1
f 61/1/1 62/2/1 63/3/1 64/4/1
f 65/25/1 66/26/1 67/22/1 68/21/1
f 69/27/1 70/25/1 71/21/1 72/23/1
f 73/28/1 74/27/1 75/23/1 76/24/1
f 77/1/1 78/2/1 79/3/1 80/4/1
f 81/29/1 82/30/1 83/31/1 84/32/1
f 85/33/1 86/29/1 87/32/1 88/34/1
f 89/35/1 90/36/1 91/30/1 92/29/1
f 93/37/1 94/35/1 95/29/1 96/33/1
f 97/38/1 98/39/1 99/40/1 100/41/1
f 101/42/1 102/38/1 103/41/1 104/43/1
f 105/44/1 106/42/1 107/43/1 108/45/1
f 109/46/1 110/47/1 111/39/1 112/38/1
f 113/48/1 114/46/1 115/38/1 116/42/1
f 117/49/1 118/48/1 119/42/1 120/44/1
f 121/50/1 122/51/1 123/47/1 124/46/1
f 125/52/1 126/50/1 127/46/1 128/48/1
f 129/53/1 130/52/1 131/48/1 132/49/1
f 133/54/1 134/55/1 135/56/1 136/57/1
f 137/8/1 138/7/1 139/55/1 140/54/1
f 141/58/1 142/59/1 143/60/1 144/61/1
f 145/58/1 146/59/1 147/60/1 148/61/1
f 149/54/1 150/55/1 151/56/1 152/57/1
f 153/8/1 154/7/1 155/55/1 156/54/1
f 157/62/1 158/63/1 159/37/1 160/35/1
f 161/64/1 162/62/1 163/35/1 164/36/1
f 165/65/1 166/54/1 167/57/1 168/66/1
f 169/38/1 170/39/1 171/40/1 172/41/1
f 173/42/1 174/38/1 175/41/1 176/43/1
f 177/44/1 178/42/1 179/43/1 180/45/1
f 181/67/1 182/68/1 183/63/1 184/62/1
f 185/69/1 186/67/1 187/62/1 188/64/1
f 189/46/1 190/47/1 191/39/1 192/38/1
f 193/48/1 194/46/1 195/38/1 196/42/1
f 197/49/1 198/48/1 199/42/1 200/44/1
f 201/50/1 202/51/1 203/47/1 204/46/1
f 205/52/1 206/50/1 207/46/1 208/48/1
f 209/53/1 210/52/1 211/48/1 212/49/1

