# Tiled2Unity generated file. Do not modify by hand.
# Wavefront file for 'field_mesh_0006.obj'

# Vertices (Count = 876)
v -576 -96 0
v -592 -96 0
v -592 -80 0
v -576 -80 0
v -560 -96 0
v -576 -96 0
v -576 -80 0
v -560 -80 0
v -544 -96 0
v -560 -96 0
v -560 -80 0
v -544 -80 0
v -528 -96 0
v -544 -96 0
v -544 -80 0
v -528 -80 0
v -512 -96 0
v -528 -96 0
v -528 -80 0
v -512 -80 0
v -496 -96 0
v -512 -96 0
v -512 -80 0
v -496 -80 0
v -480 -96 0
v -496 -96 0
v -496 -80 0
v -480 -80 0
v -464 -96 0
v -480 -96 0
v -480 -80 0
v -464 -80 0
v -448 -96 0
v -464 -96 0
v -464 -80 0
v -448 -80 0
v -576 -112 0
v -592 -112 0
v -592 -96 0
v -576 -96 0
v -560 -112 0
v -576 -112 0
v -576 -96 0
v -560 -96 0
v -544 -112 0
v -560 -112 0
v -560 -96 0
v -544 -96 0
v -528 -112 0
v -544 -112 0
v -544 -96 0
v -528 -96 0
v -512 -112 0
v -528 -112 0
v -528 -96 0
v -512 -96 0
v -496 -112 0
v -512 -112 0
v -512 -96 0
v -496 -96 0
v -480 -112 0
v -496 -112 0
v -496 -96 0
v -480 -96 0
v -464 -112 0
v -480 -112 0
v -480 -96 0
v -464 -96 0
v -448 -112 0
v -464 -112 0
v -464 -96 0
v -448 -96 0
v -576 -128 0
v -592 -128 0
v -592 -112 0
v -576 -112 0
v -560 -128 0
v -576 -128 0
v -576 -112 0
v -560 -112 0
v -544 -128 0
v -560 -128 0
v -560 -112 0
v -544 -112 0
v -528 -128 0
v -544 -128 0
v -544 -112 0
v -528 -112 0
v -512 -128 0
v -528 -128 0
v -528 -112 0
v -512 -112 0
v -496 -128 0
v -512 -128 0
v -512 -112 0
v -496 -112 0
v -480 -128 0
v -496 -128 0
v -496 -112 0
v -480 -112 0
v -464 -128 0
v -480 -128 0
v -480 -112 0
v -464 -112 0
v -448 -128 0
v -464 -128 0
v -464 -112 0
v -448 -112 0
v -576 -144 0
v -592 -144 0
v -592 -128 0
v -576 -128 0
v -560 -144 0
v -576 -144 0
v -576 -128 0
v -560 -128 0
v -544 -144 0
v -560 -144 0
v -560 -128 0
v -544 -128 0
v -528 -144 0
v -544 -144 0
v -544 -128 0
v -528 -128 0
v -512 -144 0
v -528 -144 0
v -528 -128 0
v -512 -128 0
v -496 -144 0
v -512 -144 0
v -512 -128 0
v -496 -128 0
v -480 -144 0
v -496 -144 0
v -496 -128 0
v -480 -128 0
v -464 -144 0
v -480 -144 0
v -480 -128 0
v -464 -128 0
v -448 -144 0
v -464 -144 0
v -464 -128 0
v -448 -128 0
v -576 -160 0
v -592 -160 0
v -592 -144 0
v -576 -144 0
v -560 -160 0
v -576 -160 0
v -576 -144 0
v -560 -144 0
v -544 -160 0
v -560 -160 0
v -560 -144 0
v -544 -144 0
v -528 -160 0
v -544 -160 0
v -544 -144 0
v -528 -144 0
v -512 -160 0
v -528 -160 0
v -528 -144 0
v -512 -144 0
v -496 -160 0
v -512 -160 0
v -512 -144 0
v -496 -144 0
v -480 -160 0
v -496 -160 0
v -496 -144 0
v -480 -144 0
v -464 -160 0
v -480 -160 0
v -480 -144 0
v -464 -144 0
v -448 -160 0
v -464 -160 0
v -464 -144 0
v -448 -144 0
v -576 -176 0
v -592 -176 0
v -592 -160 0
v -576 -160 0
v -560 -176 0
v -576 -176 0
v -576 -160 0
v -560 -160 0
v -544 -176 0
v -560 -176 0
v -560 -160 0
v -544 -160 0
v -528 -176 0
v -544 -176 0
v -544 -160 0
v -528 -160 0
v -512 -176 0
v -528 -176 0
v -528 -160 0
v -512 -160 0
v -496 -176 0
v -512 -176 0
v -512 -160 0
v -496 -160 0
v -480 -176 0
v -496 -176 0
v -496 -160 0
v -480 -160 0
v -464 -176 0
v -480 -176 0
v -480 -160 0
v -464 -160 0
v -448 -176 0
v -464 -176 0
v -464 -160 0
v -448 -160 0
v -576 -192 0
v -592 -192 0
v -592 -176 0
v -576 -176 0
v -560 -192 0
v -576 -192 0
v -576 -176 0
v -560 -176 0
v -544 -192 0
v -560 -192 0
v -560 -176 0
v -544 -176 0
v -528 -192 0
v -544 -192 0
v -544 -176 0
v -528 -176 0
v -512 -192 0
v -528 -192 0
v -528 -176 0
v -512 -176 0
v -496 -192 0
v -512 -192 0
v -512 -176 0
v -496 -176 0
v -480 -192 0
v -496 -192 0
v -496 -176 0
v -480 -176 0
v -464 -192 0
v -480 -192 0
v -480 -176 0
v -464 -176 0
v -448 -192 0
v -464 -192 0
v -464 -176 0
v -448 -176 0
v -160 -192 0
v -176 -192 0
v -176 -176 0
v -160 -176 0
v -144 -192 0
v -160 -192 0
v -160 -176 0
v -144 -176 0
v -128 -192 0
v -144 -192 0
v -144 -176 0
v -128 -176 0
v -576 -208 0
v -592 -208 0
v -592 -192 0
v -576 -192 0
v -560 -208 0
v -576 -208 0
v -576 -192 0
v -560 -192 0
v -544 -208 0
v -560 -208 0
v -560 -192 0
v -544 -192 0
v -528 -208 0
v -544 -208 0
v -544 -192 0
v -528 -192 0
v -512 -208 0
v -528 -208 0
v -528 -192 0
v -512 -192 0
v -496 -208 0
v -512 -208 0
v -512 -192 0
v -496 -192 0
v -480 -208 0
v -496 -208 0
v -496 -192 0
v -480 -192 0
v -464 -208 0
v -480 -208 0
v -480 -192 0
v -464 -192 0
v -448 -208 0
v -464 -208 0
v -464 -192 0
v -448 -192 0
v -176 -208 0
v -192 -208 0
v -192 -192 0
v -176 -192 0
v -112 -208 0
v -128 -208 0
v -128 -192 0
v -112 -192 0
v -176 -224 0
v -192 -224 0
v -192 -208 0
v -176 -208 0
v -112 -224 0
v -128 -224 0
v -128 -208 0
v -112 -208 0
v -176 -240 0
v -192 -240 0
v -192 -224 0
v -176 -224 0
v -112 -240 0
v -128 -240 0
v -128 -224 0
v -112 -224 0
v -160 -256 0
v -176 -256 0
v -176 -240 0
v -160 -240 0
v -144 -256 0
v -160 -256 0
v -160 -240 0
v -144 -240 0
v -128 -256 0
v -144 -256 0
v -144 -240 0
v -128 -240 0
v -544 -336 0
v -560 -336 0
v -560 -320 0
v -544 -320 0
v -528 -336 0
v -544 -336 0
v -544 -320 0
v -528 -320 0
v -512 -336 0
v -528 -336 0
v -528 -320 0
v -512 -320 0
v -496 -336 0
v -512 -336 0
v -512 -320 0
v -496 -320 0
v -480 -336 0
v -496 -336 0
v -496 -320 0
v -480 -320 0
v -464 -336 0
v -480 -336 0
v -480 -320 0
v -464 -320 0
v -448 -336 0
v -464 -336 0
v -464 -320 0
v -448 -320 0
v -432 -336 0
v -448 -336 0
v -448 -320 0
v -432 -320 0
v -416 -336 0
v -432 -336 0
v -432 -320 0
v -416 -320 0
v -400 -336 0
v -416 -336 0
v -416 -320 0
v -400 -320 0
v -384 -336 0
v -400 -336 0
v -400 -320 0
v -384 -320 0
v -368 -336 0
v -384 -336 0
v -384 -320 0
v -368 -320 0
v -544 -352 0
v -560 -352 0
v -560 -336 0
v -544 -336 0
v -528 -352 0
v -544 -352 0
v -544 -336 0
v -528 -336 0
v -512 -352 0
v -528 -352 0
v -528 -336 0
v -512 -336 0
v -496 -352 0
v -512 -352 0
v -512 -336 0
v -496 -336 0
v -480 -352 0
v -496 -352 0
v -496 -336 0
v -480 -336 0
v -464 -352 0
v -480 -352 0
v -480 -336 0
v -464 -336 0
v -448 -352 0
v -464 -352 0
v -464 -336 0
v -448 -336 0
v -432 -352 0
v -448 -352 0
v -448 -336 0
v -432 -336 0
v -416 -352 0
v -432 -352 0
v -432 -336 0
v -416 -336 0
v -400 -352 0
v -416 -352 0
v -416 -336 0
v -400 -336 0
v -384 -352 0
v -400 -352 0
v -400 -336 0
v -384 -336 0
v -368 -352 0
v -384 -352 0
v -384 -336 0
v -368 -336 0
v -544 -368 0
v -560 -368 0
v -560 -352 0
v -544 -352 0
v -528 -368 0
v -544 -368 0
v -544 -352 0
v -528 -352 0
v -512 -368 0
v -528 -368 0
v -528 -352 0
v -512 -352 0
v -496 -368 0
v -512 -368 0
v -512 -352 0
v -496 -352 0
v -480 -368 0
v -496 -368 0
v -496 -352 0
v -480 -352 0
v -464 -368 0
v -480 -368 0
v -480 -352 0
v -464 -352 0
v -448 -368 0
v -464 -368 0
v -464 -352 0
v -448 -352 0
v -432 -368 0
v -448 -368 0
v -448 -352 0
v -432 -352 0
v -416 -368 0
v -432 -368 0
v -432 -352 0
v -416 -352 0
v -400 -368 0
v -416 -368 0
v -416 -352 0
v -400 -352 0
v -384 -368 0
v -400 -368 0
v -400 -352 0
v -384 -352 0
v -368 -368 0
v -384 -368 0
v -384 -352 0
v -368 -352 0
v -544 -384 0
v -560 -384 0
v -560 -368 0
v -544 -368 0
v -528 -384 0
v -544 -384 0
v -544 -368 0
v -528 -368 0
v -512 -384 0
v -528 -384 0
v -528 -368 0
v -512 -368 0
v -496 -384 0
v -512 -384 0
v -512 -368 0
v -496 -368 0
v -480 -384 0
v -496 -384 0
v -496 -368 0
v -480 -368 0
v -464 -384 0
v -480 -384 0
v -480 -368 0
v -464 -368 0
v -448 -384 0
v -464 -384 0
v -464 -368 0
v -448 -368 0
v -432 -384 0
v -448 -384 0
v -448 -368 0
v -432 -368 0
v -416 -384 0
v -432 -384 0
v -432 -368 0
v -416 -368 0
v -400 -384 0
v -416 -384 0
v -416 -368 0
v -400 -368 0
v -384 -384 0
v -400 -384 0
v -400 -368 0
v -384 -368 0
v -368 -384 0
v -384 -384 0
v -384 -368 0
v -368 -368 0
v -544 -400 0
v -560 -400 0
v -560 -384 0
v -544 -384 0
v -528 -400 0
v -544 -400 0
v -544 -384 0
v -528 -384 0
v -512 -400 0
v -528 -400 0
v -528 -384 0
v -512 -384 0
v -496 -400 0
v -512 -400 0
v -512 -384 0
v -496 -384 0
v -480 -400 0
v -496 -400 0
v -496 -384 0
v -480 -384 0
v -464 -400 0
v -480 -400 0
v -480 -384 0
v -464 -384 0
v -448 -400 0
v -464 -400 0
v -464 -384 0
v -448 -384 0
v -432 -400 0
v -448 -400 0
v -448 -384 0
v -432 -384 0
v -416 -400 0
v -432 -400 0
v -432 -384 0
v -416 -384 0
v -400 -400 0
v -416 -400 0
v -416 -384 0
v -400 -384 0
v -384 -400 0
v -400 -400 0
v -400 -384 0
v -384 -384 0
v -368 -400 0
v -384 -400 0
v -384 -384 0
v -368 -384 0
v -544 -416 0
v -560 -416 0
v -560 -400 0
v -544 -400 0
v -528 -416 0
v -544 -416 0
v -544 -400 0
v -528 -400 0
v -512 -416 0
v -528 -416 0
v -528 -400 0
v -512 -400 0
v -496 -416 0
v -512 -416 0
v -512 -400 0
v -496 -400 0
v -480 -416 0
v -496 -416 0
v -496 -400 0
v -480 -400 0
v -464 -416 0
v -480 -416 0
v -480 -400 0
v -464 -400 0
v -448 -416 0
v -464 -416 0
v -464 -400 0
v -448 -400 0
v -432 -416 0
v -448 -416 0
v -448 -400 0
v -432 -400 0
v -416 -416 0
v -432 -416 0
v -432 -400 0
v -416 -400 0
v -400 -416 0
v -416 -416 0
v -416 -400 0
v -400 -400 0
v -384 -416 0
v -400 -416 0
v -400 -400 0
v -384 -400 0
v -368 -416 0
v -384 -416 0
v -384 -400 0
v -368 -400 0
v -544 -432 0
v -560 -432 0
v -560 -416 0
v -544 -416 0
v -528 -432 0
v -544 -432 0
v -544 -416 0
v -528 -416 0
v -512 -432 0
v -528 -432 0
v -528 -416 0
v -512 -416 0
v -496 -432 0
v -512 -432 0
v -512 -416 0
v -496 -416 0
v -480 -432 0
v -496 -432 0
v -496 -416 0
v -480 -416 0
v -464 -432 0
v -480 -432 0
v -480 -416 0
v -464 -416 0
v -448 -432 0
v -464 -432 0
v -464 -416 0
v -448 -416 0
v -432 -432 0
v -448 -432 0
v -448 -416 0
v -432 -416 0
v -416 -432 0
v -432 -432 0
v -432 -416 0
v -416 -416 0
v -400 -432 0
v -416 -432 0
v -416 -416 0
v -400 -416 0
v -384 -432 0
v -400 -432 0
v -400 -416 0
v -384 -416 0
v -368 -432 0
v -384 -432 0
v -384 -416 0
v -368 -416 0
v -544 -448 0
v -560 -448 0
v -560 -432 0
v -544 -432 0
v -528 -448 0
v -544 -448 0
v -544 -432 0
v -528 -432 0
v -512 -448 0
v -528 -448 0
v -528 -432 0
v -512 -432 0
v -496 -448 0
v -512 -448 0
v -512 -432 0
v -496 -432 0
v -480 -448 0
v -496 -448 0
v -496 -432 0
v -480 -432 0
v -464 -448 0
v -480 -448 0
v -480 -432 0
v -464 -432 0
v -448 -448 0
v -464 -448 0
v -464 -432 0
v -448 -432 0
v -432 -448 0
v -448 -448 0
v -448 -432 0
v -432 -432 0
v -416 -448 0
v -432 -448 0
v -432 -432 0
v -416 -432 0
v -400 -448 0
v -416 -448 0
v -416 -432 0
v -400 -432 0
v -384 -448 0
v -400 -448 0
v -400 -432 0
v -384 -432 0
v -368 -448 0
v -384 -448 0
v -384 -432 0
v -368 -432 0
v -544 -464 0
v -560 -464 0
v -560 -448 0
v -544 -448 0
v -528 -464 0
v -544 -464 0
v -544 -448 0
v -528 -448 0
v -512 -464 0
v -528 -464 0
v -528 -448 0
v -512 -448 0
v -496 -464 0
v -512 -464 0
v -512 -448 0
v -496 -448 0
v -480 -464 0
v -496 -464 0
v -496 -448 0
v -480 -448 0
v -464 -464 0
v -480 -464 0
v -480 -448 0
v -464 -448 0
v -448 -464 0
v -464 -464 0
v -464 -448 0
v -448 -448 0
v -432 -464 0
v -448 -464 0
v -448 -448 0
v -432 -448 0
v -416 -464 0
v -432 -464 0
v -432 -448 0
v -416 -448 0
v -400 -464 0
v -416 -464 0
v -416 -448 0
v -400 -448 0
v -384 -464 0
v -400 -464 0
v -400 -448 0
v -384 -448 0
v -368 -464 0
v -384 -464 0
v -384 -448 0
v -368 -448 0
v -544 -480 0
v -560 -480 0
v -560 -464 0
v -544 -464 0
v -528 -480 0
v -544 -480 0
v -544 -464 0
v -528 -464 0
v -512 -480 0
v -528 -480 0
v -528 -464 0
v -512 -464 0
v -496 -480 0
v -512 -480 0
v -512 -464 0
v -496 -464 0
v -480 -480 0
v -496 -480 0
v -496 -464 0
v -480 -464 0
v -464 -480 0
v -480 -480 0
v -480 -464 0
v -464 -464 0
v -448 -480 0
v -464 -480 0
v -464 -464 0
v -448 -464 0
v -432 -480 0
v -448 -480 0
v -448 -464 0
v -432 -464 0
v -416 -480 0
v -432 -480 0
v -432 -464 0
v -416 -464 0
v -400 -480 0
v -416 -480 0
v -416 -464 0
v -400 -464 0
v -384 -480 0
v -400 -480 0
v -400 -464 0
v -384 -464 0
v -368 -480 0
v -384 -480 0
v -384 -464 0
v -368 -464 0
v -992 -1056 0
v -1008 -1056 0
v -1008 -1040 0
v -992 -1040 0
v -976 -1056 0
v -992 -1056 0
v -992 -1040 0
v -976 -1040 0
v -960 -1056 0
v -976 -1056 0
v -976 -1040 0
v -960 -1040 0
v -992 -1072 0
v -1008 -1072 0
v -1008 -1056 0
v -992 -1056 0
v -976 -1072 0
v -992 -1072 0
v -992 -1056 0
v -976 -1056 0
v -960 -1072 0
v -976 -1072 0
v -976 -1056 0
v -960 -1056 0
v -992 -1088 0
v -1008 -1088 0
v -1008 -1072 0
v -992 -1072 0
v -976 -1088 0
v -992 -1088 0
v -992 -1072 0
v -976 -1072 0
v -960 -1088 0
v -976 -1088 0
v -976 -1072 0
v -960 -1072 0
v -992 -1104 0
v -1008 -1104 0
v -1008 -1088 0
v -992 -1088 0
v -976 -1104 0
v -992 -1104 0
v -992 -1088 0
v -976 -1088 0
v -960 -1104 0
v -976 -1104 0
v -976 -1088 0
v -960 -1088 0
v -992 -1120 0
v -1008 -1120 0
v -1008 -1104 0
v -992 -1104 0
v -976 -1120 0
v -992 -1120 0
v -992 -1104 0
v -976 -1104 0
v -960 -1120 0
v -976 -1120 0
v -976 -1104 0
v -960 -1104 0

# Texture cooridinates (Count = 50)
vt 0.6 0.9722222
vt 0.625 0.9722222
vt 0.625 1
vt 0.6 1
vt 0.575 0.9722222
vt 0.575 1
vt 0.55 0.9722222
vt 0.55 1
vt 0.6 0.9444444
vt 0.625 0.9444444
vt 0.575 0.9444444
vt 0.55 0.9444444
vt 0.6 0.9166667
vt 0.625 0.9166667
vt 0.575 0.9166667
vt 0.55 0.9166667
vt 0.6 0.8888889
vt 0.625 0.8888889
vt 0.575 0.8888889
vt 0.55 0.8888889
vt 0.6 0.8611111
vt 0.625 0.8611111
vt 0.575 0.8611111
vt 0.55 0.8611111
vt 0.125 0.8333333
vt 0.15 0.8333333
vt 0.15 0.8611111
vt 0.125 0.8611111
vt 0.1 0.8333333
vt 0.1 0.8611111
vt 0.075 0.8333333
vt 0.075 0.8611111
vt 0.6 0.8333333
vt 0.625 0.8333333
vt 0.575 0.8333333
vt 0.55 0.8333333
vt 0.175 0.8055556
vt 0.2 0.8055556
vt 0.2 0.8333333
vt 0.175 0.8333333
vt 0.15 0.8055556
vt 0.125 0.8055556
vt 0.175 0.7777778
vt 0.2 0.7777778
vt 0.15 0.7777778
vt 0.125 0.7777778
vt 0.175 0.75
vt 0.2 0.75
vt 0.15 0.75
vt 0.125 0.75

# Normal
vn 0 0 -1

# Mesh description
g field_mesh_0006

# Faces
f 1/1/1 2/2/1 3/3/1 4/4/1
f 5/5/1 6/1/1 7/4/1 8/6/1
f 9/5/1 10/1/1 11/4/1 12/6/1
f 13/5/1 14/1/1 15/4/1 16/6/1
f 17/5/1 18/1/1 19/4/1 20/6/1
f 21/5/1 22/1/1 23/4/1 24/6/1
f 25/5/1 26/1/1 27/4/1 28/6/1
f 29/5/1 30/1/1 31/4/1 32/6/1
f 33/7/1 34/5/1 35/6/1 36/8/1
f 37/9/1 38/10/1 39/2/1 40/1/1
f 41/11/1 42/9/1 43/1/1 44/5/1
f 45/11/1 46/9/1 47/1/1 48/5/1
f 49/11/1 50/9/1 51/1/1 52/5/1
f 53/11/1 54/9/1 55/1/1 56/5/1
f 57/11/1 58/9/1 59/1/1 60/5/1
f 61/11/1 62/9/1 63/1/1 64/5/1
f 65/11/1 66/9/1 67/1/1 68/5/1
f 69/12/1 70/11/1 71/5/1 72/7/1
f 73/9/1 74/10/1 75/2/1 76/1/1
f 77/11/1 78/9/1 79/1/1 80/5/1
f 81/11/1 82/9/1 83/1/1 84/5/1
f 85/11/1 86/9/1 87/1/1 88/5/1
f 89/11/1 90/9/1 91/1/1 92/5/1
f 93/11/1 94/9/1 95/1/1 96/5/1
f 97/11/1 98/9/1 99/1/1 100/5/1
f 101/11/1 102/9/1 103/1/1 104/5/1
f 105/12/1 106/11/1 107/5/1 108/7/1
f 109/9/1 110/10/1 111/2/1 112/1/1
f 113/11/1 114/9/1 115/1/1 116/5/1
f 117/11/1 118/9/1 119/1/1 120/5/1
f 121/11/1 122/9/1 123/1/1 124/5/1
f 125/11/1 126/9/1 127/1/1 128/5/1
f 129/11/1 130/9/1 131/1/1 132/5/1
f 133/11/1 134/9/1 135/1/1 136/5/1
f 137/11/1 138/9/1 139/1/1 140/5/1
f 141/12/1 142/11/1 143/5/1 144/7/1
f 145/13/1 146/14/1 147/10/1 148/9/1
f 149/15/1 150/13/1 151/9/1 152/11/1
f 153/15/1 154/13/1 155/9/1 156/11/1
f 157/15/1 158/13/1 159/9/1 160/11/1
f 161/15/1 162/13/1 163/9/1 164/11/1
f 165/15/1 166/13/1 167/9/1 168/11/1
f 169/15/1 170/13/1 171/9/1 172/11/1
f 173/15/1 174/13/1 175/9/1 176/11/1
f 177/16/1 178/15/1 179/11/1 180/12/1
f 181/17/1 182/18/1 183/14/1 184/13/1
f 185/19/1 186/17/1 187/13/1 188/15/1
f 189/19/1 190/17/1 191/13/1 192/15/1
f 193/19/1 194/17/1 195/13/1 196/15/1
f 197/19/1 198/17/1 199/13/1 200/15/1
f 201/19/1 202/17/1 203/13/1 204/15/1
f 205/19/1 206/17/1 207/13/1 208/15/1
f 209/19/1 210/17/1 211/13/1 212/15/1
f 213/20/1 214/19/1 215/15/1 216/16/1
f 217/21/1 218/22/1 219/18/1 220/17/1
f 221/23/1 222/21/1 223/17/1 224/19/1
f 225/23/1 226/21/1 227/17/1 228/19/1
f 229/23/1 230/21/1 231/17/1 232/19/1
f 233/23/1 234/21/1 235/17/1 236/19/1
f 237/23/1 238/21/1 239/17/1 240/19/1
f 241/23/1 242/21/1 243/17/1 244/19/1
f 245/23/1 246/21/1 247/17/1 248/19/1
f 249/24/1 250/23/1 251/19/1 252/20/1
f 253/25/1 254/26/1 255/27/1 256/28/1
f 257/29/1 258/25/1 259/28/1 260/30/1
f 261/31/1 262/29/1 263/30/1 264/32/1
f 265/33/1 266/34/1 267/22/1 268/21/1
f 269/35/1 270/33/1 271/21/1 272/23/1
f 273/35/1 274/33/1 275/21/1 276/23/1
f 277/35/1 278/33/1 279/21/1 280/23/1
f 281/35/1 282/33/1 283/21/1 284/23/1
f 285/35/1 286/33/1 287/21/1 288/23/1
f 289/35/1 290/33/1 291/21/1 292/23/1
f 293/35/1 294/33/1 295/21/1 296/23/1
f 297/36/1 298/35/1 299/23/1 300/24/1
f 301/29/1 302/30/1 303/32/1 304/31/1
f 305/29/1 306/30/1 307/32/1 308/31/1
f 309/25/1 310/28/1 311/30/1 312/29/1
f 313/25/1 314/28/1 315/30/1 316/29/1
f 317/26/1 318/27/1 319/28/1 320/25/1
f 321/26/1 322/27/1 323/28/1 324/25/1
f 325/28/1 326/27/1 327/26/1 328/25/1
f 329/30/1 330/28/1 331/25/1 332/29/1
f 333/32/1 334/30/1 335/29/1 336/31/1
f 337/1/1 338/2/1 339/3/1 340/4/1
f 341/5/1 342/1/1 343/4/1 344/6/1
f 345/5/1 346/1/1 347/4/1 348/6/1
f 349/5/1 350/1/1 351/4/1 352/6/1
f 353/5/1 354/1/1 355/4/1 356/6/1
f 357/5/1 358/1/1 359/4/1 360/6/1
f 361/5/1 362/1/1 363/4/1 364/6/1
f 365/5/1 366/1/1 367/4/1 368/6/1
f 369/5/1 370/1/1 371/4/1 372/6/1
f 373/5/1 374/1/1 375/4/1 376/6/1
f 377/5/1 378/1/1 379/4/1 380/6/1
f 381/7/1 382/5/1 383/6/1 384/8/1
f 385/9/1 386/10/1 387/2/1 388/1/1
f 389/11/1 390/9/1 391/1/1 392/5/1
f 393/11/1 394/9/1 395/1/1 396/5/1
f 397/11/1 398/9/1 399/1/1 400/5/1
f 401/11/1 402/9/1 403/1/1 404/5/1
f 405/11/1 406/9/1 407/1/1 408/5/1
f 409/11/1 410/9/1 411/1/1 412/5/1
f 413/11/1 414/9/1 415/1/1 416/5/1
f 417/11/1 418/9/1 419/1/1 420/5/1
f 421/11/1 422/9/1 423/1/1 424/5/1
f 425/11/1 426/9/1 427/1/1 428/5/1
f 429/12/1 430/11/1 431/5/1 432/7/1
f 433/9/1 434/10/1 435/2/1 436/1/1
f 437/11/1 438/9/1 439/1/1 440/5/1
f 441/11/1 442/9/1 443/1/1 444/5/1
f 445/11/1 446/9/1 447/1/1 448/5/1
f 449/11/1 450/9/1 451/1/1 452/5/1
f 453/11/1 454/9/1 455/1/1 456/5/1
f 457/11/1 458/9/1 459/1/1 460/5/1
f 461/11/1 462/9/1 463/1/1 464/5/1
f 465/11/1 466/9/1 467/1/1 468/5/1
f 469/11/1 470/9/1 471/1/1 472/5/1
f 473/11/1 474/9/1 475/1/1 476/5/1
f 477/12/1 478/11/1 479/5/1 480/7/1
f 481/9/1 482/10/1 483/2/1 484/1/1
f 485/11/1 486/9/1 487/1/1 488/5/1
f 489/11/1 490/9/1 491/1/1 492/5/1
f 493/11/1 494/9/1 495/1/1 496/5/1
f 497/11/1 498/9/1 499/1/1 500/5/1
f 501/11/1 502/9/1 503/1/1 504/5/1
f 505/11/1 506/9/1 507/1/1 508/5/1
f 509/11/1 510/9/1 511/1/1 512/5/1
f 513/11/1 514/9/1 515/1/1 516/5/1
f 517/11/1 518/9/1 519/1/1 520/5/1
f 521/11/1 522/9/1 523/1/1 524/5/1
f 525/12/1 526/11/1 527/5/1 528/7/1
f 529/9/1 530/10/1 531/2/1 532/1/1
f 533/11/1 534/9/1 535/1/1 536/5/1
f 537/11/1 538/9/1 539/1/1 540/5/1
f 541/11/1 542/9/1 543/1/1 544/5/1
f 545/11/1 546/9/1 547/1/1 548/5/1
f 549/11/1 550/9/1 551/1/1 552/5/1
f 553/11/1 554/9/1 555/1/1 556/5/1
f 557/11/1 558/9/1 559/1/1 560/5/1
f 561/11/1 562/9/1 563/1/1 564/5/1
f 565/11/1 566/9/1 567/1/1 568/5/1
f 569/11/1 570/9/1 571/1/1 572/5/1
f 573/12/1 574/11/1 575/5/1 576/7/1
f 577/9/1 578/10/1 579/2/1 580/1/1
f 581/11/1 582/9/1 583/1/1 584/5/1
f 585/11/1 586/9/1 587/1/1 588/5/1
f 589/11/1 590/9/1 591/1/1 592/5/1
f 593/11/1 594/9/1 595/1/1 596/5/1
f 597/11/1 598/9/1 599/1/1 600/5/1
f 601/11/1 602/9/1 603/1/1 604/5/1
f 605/11/1 606/9/1 607/1/1 608/5/1
f 609/11/1 610/9/1 611/1/1 612/5/1
f 613/11/1 614/9/1 615/1/1 616/5/1
f 617/11/1 618/9/1 619/1/1 620/5/1
f 621/12/1 622/11/1 623/5/1 624/7/1
f 625/13/1 626/14/1 627/10/1 628/9/1
f 629/15/1 630/13/1 631/9/1 632/11/1
f 633/15/1 634/13/1 635/9/1 636/11/1
f 637/15/1 638/13/1 639/9/1 640/11/1
f 641/15/1 642/13/1 643/9/1 644/11/1
f 645/15/1 646/13/1 647/9/1 648/11/1
f 649/15/1 650/13/1 651/9/1 652/11/1
f 653/15/1 654/13/1 655/9/1 656/11/1
f 657/15/1 658/13/1 659/9/1 660/11/1
f 661/15/1 662/13/1 663/9/1 664/11/1
f 665/15/1 666/13/1 667/9/1 668/11/1
f 669/16/1 670/15/1 671/11/1 672/12/1
f 673/17/1 674/18/1 675/14/1 676/13/1
f 677/19/1 678/17/1 679/13/1 680/15/1
f 681/19/1 682/17/1 683/13/1 684/15/1
f 685/19/1 686/17/1 687/13/1 688/15/1
f 689/19/1 690/17/1 691/13/1 692/15/1
f 693/19/1 694/17/1 695/13/1 696/15/1
f 697/19/1 698/17/1 699/13/1 700/15/1
f 701/19/1 702/17/1 703/13/1 704/15/1
f 705/19/1 706/17/1 707/13/1 708/15/1
f 709/19/1 710/17/1 711/13/1 712/15/1
f 713/19/1 714/17/1 715/13/1 716/15/1
f 717/20/1 718/19/1 719/15/1 720/16/1
f 721/21/1 722/22/1 723/18/1 724/17/1
f 725/23/1 726/21/1 727/17/1 728/19/1
f 729/23/1 730/21/1 731/17/1 732/19/1
f 733/23/1 734/21/1 735/17/1 736/19/1
f 737/23/1 738/21/1 739/17/1 740/19/1
f 741/23/1 742/21/1 743/17/1 744/19/1
f 745/23/1 746/21/1 747/17/1 748/19/1
f 749/23/1 750/21/1 751/17/1 752/19/1
f 753/23/1 754/21/1 755/17/1 756/19/1
f 757/23/1 758/21/1 759/17/1 760/19/1
f 761/23/1 762/21/1 763/17/1 764/19/1
f 765/24/1 766/23/1 767/19/1 768/20/1
f 769/33/1 770/34/1 771/22/1 772/21/1
f 773/35/1 774/33/1 775/21/1 776/23/1
f 777/35/1 778/33/1 779/21/1 780/23/1
f 781/35/1 782/33/1 783/21/1 784/23/1
f 785/35/1 786/33/1 787/21/1 788/23/1
f 789/35/1 790/33/1 791/21/1 792/23/1
f 793/35/1 794/33/1 795/21/1 796/23/1
f 797/35/1 798/33/1 799/21/1 800/23/1
f 801/35/1 802/33/1 803/21/1 804/23/1
f 805/35/1 806/33/1 807/21/1 808/23/1
f 809/35/1 810/33/1 811/21/1 812/23/1
f 813/36/1 814/35/1 815/23/1 816/24/1
f 817/37/1 818/38/1 819/39/1 820/40/1
f 821/41/1 822/37/1 823/40/1 824/26/1
f 825/42/1 826/41/1 827/26/1 828/25/1
f 829/43/1 830/44/1 831/38/1 832/37/1
f 833/45/1 834/43/1 835/37/1 836/41/1
f 837/46/1 838/45/1 839/41/1 840/42/1
f 841/43/1 842/44/1 843/38/1 844/37/1
f 845/45/1 846/43/1 847/37/1 848/41/1
f 849/46/1 850/45/1 851/41/1 852/42/1
f 853/43/1 854/44/1 855/38/1 856/37/1
f 857/45/1 858/43/1 859/37/1 860/41/1
f 861/46/1 862/45/1 863/41/1 864/42/1
f 865/47/1 866/48/1 867/44/1 868/43/1
f 869/49/1 870/47/1 871/43/1 872/45/1
f 873/50/1 874/49/1 875/45/1 876/46/1

